<mxfile host="app.diagrams.net" modified="2022-10-30T10:57:24.992Z" agent="5.0 (X11; Linux x86_64) AppleWebKit/537.36 (KHTML, like Gecko) Chrome/106.0.0.0 Safari/537.36" etag="FXOmgLyURtxFhajMBkz3" version="20.5.1" type="github">
  <diagram id="0g_tkqqBcTyARztIZQmj" name="Page-1">
    <mxGraphModel dx="3555" dy="2078" grid="1" gridSize="10" guides="1" tooltips="1" connect="1" arrows="1" fold="1" page="1" pageScale="1" pageWidth="850" pageHeight="1100" math="0" shadow="0">
      <root>
        <mxCell id="0" />
        <mxCell id="1" parent="0" />
        <mxCell id="1cYzLMDH8k2ymOEcpvg8-6" style="edgeStyle=orthogonalEdgeStyle;rounded=0;orthogonalLoop=1;jettySize=auto;html=1;entryX=0;entryY=0.5;entryDx=0;entryDy=0;startArrow=none;" parent="1" source="1cYzLMDH8k2ymOEcpvg8-10" target="1cYzLMDH8k2ymOEcpvg8-3" edge="1">
          <mxGeometry relative="1" as="geometry" />
        </mxCell>
        <mxCell id="1cYzLMDH8k2ymOEcpvg8-7" style="edgeStyle=orthogonalEdgeStyle;rounded=0;orthogonalLoop=1;jettySize=auto;html=1;" parent="1" source="1cYzLMDH8k2ymOEcpvg8-2" target="1cYzLMDH8k2ymOEcpvg8-8" edge="1">
          <mxGeometry relative="1" as="geometry">
            <mxPoint x="190" y="400" as="targetPoint" />
          </mxGeometry>
        </mxCell>
        <mxCell id="1cYzLMDH8k2ymOEcpvg8-2" value="Decision?" style="whiteSpace=wrap;html=1;aspect=fixed;" parent="1" vertex="1">
          <mxGeometry x="80" y="240" width="80" height="80" as="geometry" />
        </mxCell>
        <mxCell id="1cYzLMDH8k2ymOEcpvg8-14" value="" style="edgeStyle=orthogonalEdgeStyle;rounded=0;orthogonalLoop=1;jettySize=auto;html=1;" parent="1" source="1cYzLMDH8k2ymOEcpvg8-3" edge="1">
          <mxGeometry relative="1" as="geometry">
            <mxPoint x="500" y="120" as="targetPoint" />
          </mxGeometry>
        </mxCell>
        <mxCell id="1cYzLMDH8k2ymOEcpvg8-20" style="edgeStyle=orthogonalEdgeStyle;rounded=0;orthogonalLoop=1;jettySize=auto;html=1;entryX=0.5;entryY=0;entryDx=0;entryDy=0;" parent="1" source="1cYzLMDH8k2ymOEcpvg8-3" target="1cYzLMDH8k2ymOEcpvg8-19" edge="1">
          <mxGeometry relative="1" as="geometry" />
        </mxCell>
        <mxCell id="1cYzLMDH8k2ymOEcpvg8-3" value="Option 1" style="ellipse;whiteSpace=wrap;html=1;aspect=fixed;" parent="1" vertex="1">
          <mxGeometry x="310" y="130" width="80" height="80" as="geometry" />
        </mxCell>
        <mxCell id="1cYzLMDH8k2ymOEcpvg8-4" value="Option 2" style="ellipse;whiteSpace=wrap;html=1;aspect=fixed;" parent="1" vertex="1">
          <mxGeometry x="310" y="280" width="80" height="80" as="geometry" />
        </mxCell>
        <mxCell id="1cYzLMDH8k2ymOEcpvg8-8" value="Do nothing (0)" style="text;html=1;strokeColor=none;fillColor=none;align=center;verticalAlign=middle;whiteSpace=wrap;rounded=0;" parent="1" vertex="1">
          <mxGeometry x="170" y="360" width="60" height="30" as="geometry" />
        </mxCell>
        <mxCell id="1cYzLMDH8k2ymOEcpvg8-10" value="(Cost)" style="text;html=1;strokeColor=none;fillColor=none;align=center;verticalAlign=middle;whiteSpace=wrap;rounded=0;" parent="1" vertex="1">
          <mxGeometry x="230" y="155" width="60" height="30" as="geometry" />
        </mxCell>
        <mxCell id="1cYzLMDH8k2ymOEcpvg8-11" value="" style="edgeStyle=orthogonalEdgeStyle;rounded=0;orthogonalLoop=1;jettySize=auto;html=1;entryX=0;entryY=0.5;entryDx=0;entryDy=0;endArrow=none;" parent="1" source="1cYzLMDH8k2ymOEcpvg8-2" target="1cYzLMDH8k2ymOEcpvg8-10" edge="1">
          <mxGeometry relative="1" as="geometry">
            <mxPoint x="160" y="280" as="sourcePoint" />
            <mxPoint x="310" y="170" as="targetPoint" />
          </mxGeometry>
        </mxCell>
        <mxCell id="1cYzLMDH8k2ymOEcpvg8-33" style="edgeStyle=orthogonalEdgeStyle;rounded=0;orthogonalLoop=1;jettySize=auto;html=1;entryX=0;entryY=0;entryDx=0;entryDy=0;" parent="1" source="1cYzLMDH8k2ymOEcpvg8-9" target="1cYzLMDH8k2ymOEcpvg8-4" edge="1">
          <mxGeometry relative="1" as="geometry" />
        </mxCell>
        <mxCell id="1cYzLMDH8k2ymOEcpvg8-9" value="(Cost)" style="text;html=1;strokeColor=none;fillColor=none;align=center;verticalAlign=middle;whiteSpace=wrap;rounded=0;" parent="1" vertex="1">
          <mxGeometry x="230" y="265" width="60" height="30" as="geometry" />
        </mxCell>
        <mxCell id="1cYzLMDH8k2ymOEcpvg8-12" value="" style="edgeStyle=orthogonalEdgeStyle;rounded=0;orthogonalLoop=1;jettySize=auto;html=1;endArrow=none;" parent="1" source="1cYzLMDH8k2ymOEcpvg8-2" target="1cYzLMDH8k2ymOEcpvg8-9" edge="1">
          <mxGeometry relative="1" as="geometry">
            <mxPoint x="160" y="280" as="sourcePoint" />
            <mxPoint x="310" y="280" as="targetPoint" />
          </mxGeometry>
        </mxCell>
        <mxCell id="1cYzLMDH8k2ymOEcpvg8-16" value="0.2" style="text;html=1;strokeColor=none;fillColor=none;align=center;verticalAlign=middle;whiteSpace=wrap;rounded=0;" parent="1" vertex="1">
          <mxGeometry x="500" y="130" width="60" height="30" as="geometry" />
        </mxCell>
        <mxCell id="1cYzLMDH8k2ymOEcpvg8-18" value="£200,000" style="text;html=1;strokeColor=none;fillColor=none;align=center;verticalAlign=middle;whiteSpace=wrap;rounded=0;" parent="1" vertex="1">
          <mxGeometry x="470" y="90" width="60" height="30" as="geometry" />
        </mxCell>
        <mxCell id="1cYzLMDH8k2ymOEcpvg8-19" value="£45,000" style="text;html=1;strokeColor=none;fillColor=none;align=center;verticalAlign=middle;whiteSpace=wrap;rounded=0;" parent="1" vertex="1">
          <mxGeometry x="470" y="190" width="60" height="30" as="geometry" />
        </mxCell>
        <mxCell id="1cYzLMDH8k2ymOEcpvg8-22" value="0.8" style="text;html=1;strokeColor=none;fillColor=none;align=center;verticalAlign=middle;whiteSpace=wrap;rounded=0;" parent="1" vertex="1">
          <mxGeometry x="500" y="170" width="60" height="30" as="geometry" />
        </mxCell>
        <mxCell id="1cYzLMDH8k2ymOEcpvg8-27" value="" style="edgeStyle=orthogonalEdgeStyle;rounded=0;orthogonalLoop=1;jettySize=auto;html=1;" parent="1" edge="1">
          <mxGeometry relative="1" as="geometry">
            <mxPoint x="390" y="320" as="sourcePoint" />
            <mxPoint x="500" y="270" as="targetPoint" />
          </mxGeometry>
        </mxCell>
        <mxCell id="1cYzLMDH8k2ymOEcpvg8-28" style="edgeStyle=orthogonalEdgeStyle;rounded=0;orthogonalLoop=1;jettySize=auto;html=1;entryX=0.5;entryY=0;entryDx=0;entryDy=0;" parent="1" target="1cYzLMDH8k2ymOEcpvg8-31" edge="1">
          <mxGeometry relative="1" as="geometry">
            <mxPoint x="390" y="320" as="sourcePoint" />
          </mxGeometry>
        </mxCell>
        <mxCell id="1cYzLMDH8k2ymOEcpvg8-29" value="0.6" style="text;html=1;strokeColor=none;fillColor=none;align=center;verticalAlign=middle;whiteSpace=wrap;rounded=0;" parent="1" vertex="1">
          <mxGeometry x="500" y="280" width="60" height="30" as="geometry" />
        </mxCell>
        <mxCell id="1cYzLMDH8k2ymOEcpvg8-30" value="£75,000" style="text;html=1;strokeColor=none;fillColor=none;align=center;verticalAlign=middle;whiteSpace=wrap;rounded=0;" parent="1" vertex="1">
          <mxGeometry x="470" y="240" width="60" height="30" as="geometry" />
        </mxCell>
        <mxCell id="1cYzLMDH8k2ymOEcpvg8-31" value="£60,000" style="text;html=1;strokeColor=none;fillColor=none;align=center;verticalAlign=middle;whiteSpace=wrap;rounded=0;" parent="1" vertex="1">
          <mxGeometry x="470" y="340" width="60" height="30" as="geometry" />
        </mxCell>
        <mxCell id="1cYzLMDH8k2ymOEcpvg8-32" value="0.4" style="text;html=1;strokeColor=none;fillColor=none;align=center;verticalAlign=middle;whiteSpace=wrap;rounded=0;" parent="1" vertex="1">
          <mxGeometry x="500" y="320" width="60" height="30" as="geometry" />
        </mxCell>
        <mxCell id="1cYzLMDH8k2ymOEcpvg8-34" value="(E(X) = £76000)" style="text;html=1;strokeColor=none;fillColor=none;align=center;verticalAlign=middle;whiteSpace=wrap;rounded=0;" parent="1" vertex="1">
          <mxGeometry x="560" y="150" width="110" height="30" as="geometry" />
        </mxCell>
        <mxCell id="1cYzLMDH8k2ymOEcpvg8-35" value="(E(X) = £69000)" style="text;html=1;strokeColor=none;fillColor=none;align=center;verticalAlign=middle;whiteSpace=wrap;rounded=0;" parent="1" vertex="1">
          <mxGeometry x="560" y="305" width="110" height="30" as="geometry" />
        </mxCell>
        <mxCell id="1cYzLMDH8k2ymOEcpvg8-36" style="edgeStyle=orthogonalEdgeStyle;rounded=0;orthogonalLoop=1;jettySize=auto;html=1;entryX=0;entryY=0.5;entryDx=0;entryDy=0;startArrow=none;" parent="1" source="1cYzLMDH8k2ymOEcpvg8-44" target="1cYzLMDH8k2ymOEcpvg8-41" edge="1">
          <mxGeometry relative="1" as="geometry" />
        </mxCell>
        <mxCell id="1cYzLMDH8k2ymOEcpvg8-37" style="edgeStyle=orthogonalEdgeStyle;rounded=0;orthogonalLoop=1;jettySize=auto;html=1;" parent="1" source="1cYzLMDH8k2ymOEcpvg8-38" target="1cYzLMDH8k2ymOEcpvg8-43" edge="1">
          <mxGeometry relative="1" as="geometry">
            <mxPoint x="190" y="830" as="targetPoint" />
          </mxGeometry>
        </mxCell>
        <mxCell id="1cYzLMDH8k2ymOEcpvg8-38" value="What car type should we make?" style="whiteSpace=wrap;html=1;aspect=fixed;" parent="1" vertex="1">
          <mxGeometry x="80" y="670" width="80" height="80" as="geometry" />
        </mxCell>
        <mxCell id="1cYzLMDH8k2ymOEcpvg8-39" value="" style="edgeStyle=orthogonalEdgeStyle;rounded=0;orthogonalLoop=1;jettySize=auto;html=1;" parent="1" source="1cYzLMDH8k2ymOEcpvg8-41" edge="1">
          <mxGeometry relative="1" as="geometry">
            <mxPoint x="500" y="550" as="targetPoint" />
          </mxGeometry>
        </mxCell>
        <mxCell id="1cYzLMDH8k2ymOEcpvg8-40" style="edgeStyle=orthogonalEdgeStyle;rounded=0;orthogonalLoop=1;jettySize=auto;html=1;entryX=0.5;entryY=0;entryDx=0;entryDy=0;" parent="1" source="1cYzLMDH8k2ymOEcpvg8-41" target="1cYzLMDH8k2ymOEcpvg8-51" edge="1">
          <mxGeometry relative="1" as="geometry" />
        </mxCell>
        <mxCell id="1cYzLMDH8k2ymOEcpvg8-61" style="edgeStyle=orthogonalEdgeStyle;rounded=0;orthogonalLoop=1;jettySize=auto;html=1;" parent="1" source="1cYzLMDH8k2ymOEcpvg8-41" edge="1">
          <mxGeometry relative="1" as="geometry">
            <mxPoint x="430" y="460" as="targetPoint" />
          </mxGeometry>
        </mxCell>
        <mxCell id="1cYzLMDH8k2ymOEcpvg8-41" value="Hybrid car" style="ellipse;whiteSpace=wrap;html=1;aspect=fixed;" parent="1" vertex="1">
          <mxGeometry x="310" y="560" width="80" height="80" as="geometry" />
        </mxCell>
        <mxCell id="1cYzLMDH8k2ymOEcpvg8-42" value="Electric car" style="ellipse;whiteSpace=wrap;html=1;aspect=fixed;" parent="1" vertex="1">
          <mxGeometry x="310" y="710" width="80" height="80" as="geometry" />
        </mxCell>
        <mxCell id="1cYzLMDH8k2ymOEcpvg8-43" value="Do nothing (0)" style="text;html=1;strokeColor=none;fillColor=none;align=center;verticalAlign=middle;whiteSpace=wrap;rounded=0;" parent="1" vertex="1">
          <mxGeometry x="170" y="790" width="60" height="30" as="geometry" />
        </mxCell>
        <mxCell id="1cYzLMDH8k2ymOEcpvg8-44" value="(£150m)" style="text;html=1;strokeColor=none;fillColor=none;align=center;verticalAlign=middle;whiteSpace=wrap;rounded=0;" parent="1" vertex="1">
          <mxGeometry x="230" y="585" width="60" height="30" as="geometry" />
        </mxCell>
        <mxCell id="1cYzLMDH8k2ymOEcpvg8-45" value="" style="edgeStyle=orthogonalEdgeStyle;rounded=0;orthogonalLoop=1;jettySize=auto;html=1;entryX=0;entryY=0.5;entryDx=0;entryDy=0;endArrow=none;" parent="1" source="1cYzLMDH8k2ymOEcpvg8-38" target="1cYzLMDH8k2ymOEcpvg8-44" edge="1">
          <mxGeometry relative="1" as="geometry">
            <mxPoint x="160" y="710" as="sourcePoint" />
            <mxPoint x="310" y="600" as="targetPoint" />
          </mxGeometry>
        </mxCell>
        <mxCell id="1cYzLMDH8k2ymOEcpvg8-46" style="edgeStyle=orthogonalEdgeStyle;rounded=0;orthogonalLoop=1;jettySize=auto;html=1;entryX=0;entryY=0;entryDx=0;entryDy=0;" parent="1" source="1cYzLMDH8k2ymOEcpvg8-47" target="1cYzLMDH8k2ymOEcpvg8-42" edge="1">
          <mxGeometry relative="1" as="geometry" />
        </mxCell>
        <mxCell id="1cYzLMDH8k2ymOEcpvg8-47" value="(£175m)" style="text;html=1;strokeColor=none;fillColor=none;align=center;verticalAlign=middle;whiteSpace=wrap;rounded=0;" parent="1" vertex="1">
          <mxGeometry x="230" y="695" width="60" height="30" as="geometry" />
        </mxCell>
        <mxCell id="1cYzLMDH8k2ymOEcpvg8-48" value="" style="edgeStyle=orthogonalEdgeStyle;rounded=0;orthogonalLoop=1;jettySize=auto;html=1;endArrow=none;" parent="1" source="1cYzLMDH8k2ymOEcpvg8-38" target="1cYzLMDH8k2ymOEcpvg8-47" edge="1">
          <mxGeometry relative="1" as="geometry">
            <mxPoint x="160" y="710" as="sourcePoint" />
            <mxPoint x="310" y="710" as="targetPoint" />
          </mxGeometry>
        </mxCell>
        <mxCell id="1cYzLMDH8k2ymOEcpvg8-49" value="0.3" style="text;html=1;strokeColor=none;fillColor=none;align=center;verticalAlign=middle;whiteSpace=wrap;rounded=0;" parent="1" vertex="1">
          <mxGeometry x="500" y="560" width="60" height="30" as="geometry" />
        </mxCell>
        <mxCell id="1cYzLMDH8k2ymOEcpvg8-50" value="£140m" style="text;html=1;strokeColor=none;fillColor=none;align=center;verticalAlign=middle;whiteSpace=wrap;rounded=0;" parent="1" vertex="1">
          <mxGeometry x="470" y="520" width="60" height="30" as="geometry" />
        </mxCell>
        <mxCell id="1cYzLMDH8k2ymOEcpvg8-51" value="£60m" style="text;html=1;strokeColor=none;fillColor=none;align=center;verticalAlign=middle;whiteSpace=wrap;rounded=0;" parent="1" vertex="1">
          <mxGeometry x="470" y="620" width="60" height="30" as="geometry" />
        </mxCell>
        <mxCell id="1cYzLMDH8k2ymOEcpvg8-52" value="0.4" style="text;html=1;strokeColor=none;fillColor=none;align=center;verticalAlign=middle;whiteSpace=wrap;rounded=0;" parent="1" vertex="1">
          <mxGeometry x="500" y="600" width="60" height="30" as="geometry" />
        </mxCell>
        <mxCell id="1cYzLMDH8k2ymOEcpvg8-59" value="(E(X) = £171m,&lt;br&gt;Net gain = £21m)" style="text;html=1;strokeColor=none;fillColor=none;align=center;verticalAlign=middle;whiteSpace=wrap;rounded=0;" parent="1" vertex="1">
          <mxGeometry x="560" y="580" width="110" height="30" as="geometry" />
        </mxCell>
        <mxCell id="1cYzLMDH8k2ymOEcpvg8-63" value="£350m" style="text;html=1;strokeColor=none;fillColor=none;align=center;verticalAlign=middle;whiteSpace=wrap;rounded=0;" parent="1" vertex="1">
          <mxGeometry x="400" y="430" width="60" height="30" as="geometry" />
        </mxCell>
        <mxCell id="1cYzLMDH8k2ymOEcpvg8-64" value="0.3" style="text;html=1;strokeColor=none;fillColor=none;align=center;verticalAlign=middle;whiteSpace=wrap;rounded=0;" parent="1" vertex="1">
          <mxGeometry x="430" y="470" width="60" height="30" as="geometry" />
        </mxCell>
        <mxCell id="1cYzLMDH8k2ymOEcpvg8-65" value="" style="edgeStyle=orthogonalEdgeStyle;rounded=0;orthogonalLoop=1;jettySize=auto;html=1;" parent="1" edge="1">
          <mxGeometry relative="1" as="geometry">
            <mxPoint x="500" y="700" as="targetPoint" />
            <mxPoint x="390" y="750" as="sourcePoint" />
          </mxGeometry>
        </mxCell>
        <mxCell id="1cYzLMDH8k2ymOEcpvg8-66" style="edgeStyle=orthogonalEdgeStyle;rounded=0;orthogonalLoop=1;jettySize=auto;html=1;entryX=0.5;entryY=0;entryDx=0;entryDy=0;" parent="1" target="1cYzLMDH8k2ymOEcpvg8-70" edge="1">
          <mxGeometry relative="1" as="geometry">
            <mxPoint x="390" y="750" as="sourcePoint" />
          </mxGeometry>
        </mxCell>
        <mxCell id="1cYzLMDH8k2ymOEcpvg8-67" style="edgeStyle=orthogonalEdgeStyle;rounded=0;orthogonalLoop=1;jettySize=auto;html=1;" parent="1" edge="1">
          <mxGeometry relative="1" as="geometry">
            <mxPoint x="430" y="860" as="targetPoint" />
            <mxPoint x="390" y="750" as="sourcePoint" />
          </mxGeometry>
        </mxCell>
        <mxCell id="1cYzLMDH8k2ymOEcpvg8-68" value="0.6" style="text;html=1;strokeColor=none;fillColor=none;align=center;verticalAlign=middle;whiteSpace=wrap;rounded=0;" parent="1" vertex="1">
          <mxGeometry x="500" y="710" width="60" height="30" as="geometry" />
        </mxCell>
        <mxCell id="1cYzLMDH8k2ymOEcpvg8-69" value="£40m" style="text;html=1;strokeColor=none;fillColor=none;align=center;verticalAlign=middle;whiteSpace=wrap;rounded=0;" parent="1" vertex="1">
          <mxGeometry x="470" y="670" width="60" height="30" as="geometry" />
        </mxCell>
        <mxCell id="1cYzLMDH8k2ymOEcpvg8-70" value="£125m" style="text;html=1;strokeColor=none;fillColor=none;align=center;verticalAlign=middle;whiteSpace=wrap;rounded=0;" parent="1" vertex="1">
          <mxGeometry x="470" y="770" width="60" height="30" as="geometry" />
        </mxCell>
        <mxCell id="1cYzLMDH8k2ymOEcpvg8-71" value="0.3" style="text;html=1;strokeColor=none;fillColor=none;align=center;verticalAlign=middle;whiteSpace=wrap;rounded=0;" parent="1" vertex="1">
          <mxGeometry x="500" y="750" width="60" height="30" as="geometry" />
        </mxCell>
        <mxCell id="1cYzLMDH8k2ymOEcpvg8-72" value="(E(X) = £171.5m&lt;br&gt;Net gain = -3.5m)" style="text;html=1;strokeColor=none;fillColor=none;align=center;verticalAlign=middle;whiteSpace=wrap;rounded=0;" parent="1" vertex="1">
          <mxGeometry x="560" y="730" width="110" height="30" as="geometry" />
        </mxCell>
        <mxCell id="1cYzLMDH8k2ymOEcpvg8-73" value="£1100m" style="text;html=1;strokeColor=none;fillColor=none;align=center;verticalAlign=middle;whiteSpace=wrap;rounded=0;" parent="1" vertex="1">
          <mxGeometry x="400" y="860" width="60" height="30" as="geometry" />
        </mxCell>
        <mxCell id="1cYzLMDH8k2ymOEcpvg8-74" value="0.1" style="text;html=1;strokeColor=none;fillColor=none;align=center;verticalAlign=middle;whiteSpace=wrap;rounded=0;" parent="1" vertex="1">
          <mxGeometry x="430" y="820" width="60" height="30" as="geometry" />
        </mxCell>
        <mxCell id="1cYzLMDH8k2ymOEcpvg8-76" style="edgeStyle=orthogonalEdgeStyle;rounded=0;orthogonalLoop=1;jettySize=auto;html=1;startArrow=none;" parent="1" source="1cYzLMDH8k2ymOEcpvg8-78" edge="1">
          <mxGeometry relative="1" as="geometry">
            <mxPoint x="240" y="1239.9999999999998" as="targetPoint" />
          </mxGeometry>
        </mxCell>
        <mxCell id="1cYzLMDH8k2ymOEcpvg8-80" style="edgeStyle=orthogonalEdgeStyle;rounded=0;orthogonalLoop=1;jettySize=auto;html=1;startArrow=none;" parent="1" source="1cYzLMDH8k2ymOEcpvg8-82" edge="1">
          <mxGeometry relative="1" as="geometry">
            <mxPoint x="240" y="1000" as="targetPoint" />
          </mxGeometry>
        </mxCell>
        <mxCell id="1cYzLMDH8k2ymOEcpvg8-75" value="Production option" style="whiteSpace=wrap;html=1;aspect=fixed;" parent="1" vertex="1">
          <mxGeometry x="80" y="1100" width="80" height="80" as="geometry" />
        </mxCell>
        <mxCell id="1cYzLMDH8k2ymOEcpvg8-91" style="edgeStyle=orthogonalEdgeStyle;rounded=0;orthogonalLoop=1;jettySize=auto;html=1;" parent="1" source="1cYzLMDH8k2ymOEcpvg8-77" target="1cYzLMDH8k2ymOEcpvg8-90" edge="1">
          <mxGeometry relative="1" as="geometry" />
        </mxCell>
        <mxCell id="1cYzLMDH8k2ymOEcpvg8-93" style="edgeStyle=orthogonalEdgeStyle;rounded=0;orthogonalLoop=1;jettySize=auto;html=1;entryX=0;entryY=0.5;entryDx=0;entryDy=0;startArrow=none;" parent="1" source="1cYzLMDH8k2ymOEcpvg8-94" target="1cYzLMDH8k2ymOEcpvg8-92" edge="1">
          <mxGeometry relative="1" as="geometry" />
        </mxCell>
        <mxCell id="1cYzLMDH8k2ymOEcpvg8-77" value="What new product should we make?" style="whiteSpace=wrap;html=1;aspect=fixed;" parent="1" vertex="1">
          <mxGeometry x="200" y="1240" width="80" height="80" as="geometry" />
        </mxCell>
        <mxCell id="1cYzLMDH8k2ymOEcpvg8-78" value="£1.5m" style="text;html=1;strokeColor=none;fillColor=none;align=center;verticalAlign=middle;whiteSpace=wrap;rounded=0;" parent="1" vertex="1">
          <mxGeometry x="210" y="1180" width="60" height="30" as="geometry" />
        </mxCell>
        <mxCell id="1cYzLMDH8k2ymOEcpvg8-79" value="" style="edgeStyle=orthogonalEdgeStyle;rounded=0;orthogonalLoop=1;jettySize=auto;html=1;endArrow=none;" parent="1" source="1cYzLMDH8k2ymOEcpvg8-75" target="1cYzLMDH8k2ymOEcpvg8-78" edge="1">
          <mxGeometry relative="1" as="geometry">
            <mxPoint x="240" y="1239.9999999999998" as="targetPoint" />
            <mxPoint x="160" y="1139.9999999999998" as="sourcePoint" />
          </mxGeometry>
        </mxCell>
        <mxCell id="1cYzLMDH8k2ymOEcpvg8-84" style="edgeStyle=orthogonalEdgeStyle;rounded=0;orthogonalLoop=1;jettySize=auto;html=1;" parent="1" source="1cYzLMDH8k2ymOEcpvg8-81" edge="1">
          <mxGeometry relative="1" as="geometry">
            <mxPoint x="400" y="930" as="targetPoint" />
          </mxGeometry>
        </mxCell>
        <mxCell id="1cYzLMDH8k2ymOEcpvg8-86" style="edgeStyle=orthogonalEdgeStyle;rounded=0;orthogonalLoop=1;jettySize=auto;html=1;" parent="1" source="1cYzLMDH8k2ymOEcpvg8-81" edge="1">
          <mxGeometry relative="1" as="geometry">
            <mxPoint x="400" y="980" as="targetPoint" />
          </mxGeometry>
        </mxCell>
        <mxCell id="1cYzLMDH8k2ymOEcpvg8-81" value="New production line" style="ellipse;whiteSpace=wrap;html=1;aspect=fixed;" parent="1" vertex="1">
          <mxGeometry x="200" y="920" width="80" height="80" as="geometry" />
        </mxCell>
        <mxCell id="1cYzLMDH8k2ymOEcpvg8-82" value="£1.5m" style="text;html=1;strokeColor=none;fillColor=none;align=center;verticalAlign=middle;whiteSpace=wrap;rounded=0;" parent="1" vertex="1">
          <mxGeometry x="210" y="1040" width="60" height="30" as="geometry" />
        </mxCell>
        <mxCell id="1cYzLMDH8k2ymOEcpvg8-83" value="" style="edgeStyle=orthogonalEdgeStyle;rounded=0;orthogonalLoop=1;jettySize=auto;html=1;endArrow=none;" parent="1" source="1cYzLMDH8k2ymOEcpvg8-75" target="1cYzLMDH8k2ymOEcpvg8-82" edge="1">
          <mxGeometry relative="1" as="geometry">
            <mxPoint x="240" y="1000" as="targetPoint" />
            <mxPoint x="160" y="1140" as="sourcePoint" />
          </mxGeometry>
        </mxCell>
        <mxCell id="1cYzLMDH8k2ymOEcpvg8-85" value="0.6" style="text;html=1;strokeColor=none;fillColor=none;align=center;verticalAlign=middle;whiteSpace=wrap;rounded=0;" parent="1" vertex="1">
          <mxGeometry x="330" y="900" width="60" height="30" as="geometry" />
        </mxCell>
        <mxCell id="1cYzLMDH8k2ymOEcpvg8-87" value="0.4" style="text;html=1;strokeColor=none;fillColor=none;align=center;verticalAlign=middle;whiteSpace=wrap;rounded=0;" parent="1" vertex="1">
          <mxGeometry x="330" y="980" width="60" height="30" as="geometry" />
        </mxCell>
        <mxCell id="1cYzLMDH8k2ymOEcpvg8-88" value="£2.5m" style="text;html=1;strokeColor=none;fillColor=none;align=center;verticalAlign=middle;whiteSpace=wrap;rounded=0;" parent="1" vertex="1">
          <mxGeometry x="410" y="920" width="60" height="30" as="geometry" />
        </mxCell>
        <mxCell id="1cYzLMDH8k2ymOEcpvg8-89" value="£1.75m" style="text;html=1;strokeColor=none;fillColor=none;align=center;verticalAlign=middle;whiteSpace=wrap;rounded=0;" parent="1" vertex="1">
          <mxGeometry x="410" y="970" width="60" height="30" as="geometry" />
        </mxCell>
        <mxCell id="1cYzLMDH8k2ymOEcpvg8-96" style="edgeStyle=orthogonalEdgeStyle;rounded=0;orthogonalLoop=1;jettySize=auto;html=1;" parent="1" source="1cYzLMDH8k2ymOEcpvg8-90" edge="1">
          <mxGeometry relative="1" as="geometry">
            <mxPoint x="470" y="1230" as="targetPoint" />
          </mxGeometry>
        </mxCell>
        <mxCell id="1cYzLMDH8k2ymOEcpvg8-99" style="edgeStyle=orthogonalEdgeStyle;rounded=0;orthogonalLoop=1;jettySize=auto;html=1;" parent="1" source="1cYzLMDH8k2ymOEcpvg8-90" edge="1">
          <mxGeometry relative="1" as="geometry">
            <mxPoint x="470" y="1330" as="targetPoint" />
          </mxGeometry>
        </mxCell>
        <mxCell id="1cYzLMDH8k2ymOEcpvg8-90" value="Skincare" style="ellipse;whiteSpace=wrap;html=1;aspect=fixed;" parent="1" vertex="1">
          <mxGeometry x="330" y="1240" width="80" height="80" as="geometry" />
        </mxCell>
        <mxCell id="1cYzLMDH8k2ymOEcpvg8-92" value="Self-tanning" style="ellipse;whiteSpace=wrap;html=1;aspect=fixed;" parent="1" vertex="1">
          <mxGeometry x="330" y="1410" width="80" height="80" as="geometry" />
        </mxCell>
        <mxCell id="1cYzLMDH8k2ymOEcpvg8-94" value="£0.2m" style="text;html=1;strokeColor=none;fillColor=none;align=center;verticalAlign=middle;whiteSpace=wrap;rounded=0;" parent="1" vertex="1">
          <mxGeometry x="270" y="1370" width="60" height="30" as="geometry" />
        </mxCell>
        <mxCell id="1cYzLMDH8k2ymOEcpvg8-95" value="" style="edgeStyle=orthogonalEdgeStyle;rounded=0;orthogonalLoop=1;jettySize=auto;html=1;entryX=0;entryY=0.5;entryDx=0;entryDy=0;endArrow=none;" parent="1" source="1cYzLMDH8k2ymOEcpvg8-77" target="1cYzLMDH8k2ymOEcpvg8-94" edge="1">
          <mxGeometry relative="1" as="geometry">
            <mxPoint x="280" y="1280" as="sourcePoint" />
            <mxPoint x="330.00000000000125" y="1430" as="targetPoint" />
          </mxGeometry>
        </mxCell>
        <mxCell id="1cYzLMDH8k2ymOEcpvg8-97" value="0.3" style="text;html=1;strokeColor=none;fillColor=none;align=center;verticalAlign=middle;whiteSpace=wrap;rounded=0;" parent="1" vertex="1">
          <mxGeometry x="480" y="1250" width="60" height="30" as="geometry" />
        </mxCell>
        <mxCell id="1cYzLMDH8k2ymOEcpvg8-98" value="0.7" style="text;html=1;strokeColor=none;fillColor=none;align=center;verticalAlign=middle;whiteSpace=wrap;rounded=0;" parent="1" vertex="1">
          <mxGeometry x="480" y="1300" width="60" height="30" as="geometry" />
        </mxCell>
        <mxCell id="1cYzLMDH8k2ymOEcpvg8-100" value="£3.75m" style="text;html=1;strokeColor=none;fillColor=none;align=center;verticalAlign=middle;whiteSpace=wrap;rounded=0;" parent="1" vertex="1">
          <mxGeometry x="440" y="1200" width="60" height="30" as="geometry" />
        </mxCell>
        <mxCell id="1cYzLMDH8k2ymOEcpvg8-101" value="£0.4m" style="text;html=1;strokeColor=none;fillColor=none;align=center;verticalAlign=middle;whiteSpace=wrap;rounded=0;" parent="1" vertex="1">
          <mxGeometry x="440" y="1330" width="60" height="30" as="geometry" />
        </mxCell>
        <mxCell id="1cYzLMDH8k2ymOEcpvg8-102" style="edgeStyle=orthogonalEdgeStyle;rounded=0;orthogonalLoop=1;jettySize=auto;html=1;" parent="1" edge="1">
          <mxGeometry relative="1" as="geometry">
            <mxPoint x="470" y="1400" as="targetPoint" />
            <mxPoint x="410" y="1450" as="sourcePoint" />
          </mxGeometry>
        </mxCell>
        <mxCell id="1cYzLMDH8k2ymOEcpvg8-103" style="edgeStyle=orthogonalEdgeStyle;rounded=0;orthogonalLoop=1;jettySize=auto;html=1;" parent="1" edge="1">
          <mxGeometry relative="1" as="geometry">
            <mxPoint x="470" y="1500" as="targetPoint" />
            <mxPoint x="410" y="1450" as="sourcePoint" />
          </mxGeometry>
        </mxCell>
        <mxCell id="1cYzLMDH8k2ymOEcpvg8-104" value="0.4" style="text;html=1;strokeColor=none;fillColor=none;align=center;verticalAlign=middle;whiteSpace=wrap;rounded=0;" parent="1" vertex="1">
          <mxGeometry x="480" y="1420" width="60" height="30" as="geometry" />
        </mxCell>
        <mxCell id="1cYzLMDH8k2ymOEcpvg8-105" value="0.6" style="text;html=1;strokeColor=none;fillColor=none;align=center;verticalAlign=middle;whiteSpace=wrap;rounded=0;" parent="1" vertex="1">
          <mxGeometry x="480" y="1470" width="60" height="30" as="geometry" />
        </mxCell>
        <mxCell id="1cYzLMDH8k2ymOEcpvg8-106" value="£3.2m" style="text;html=1;strokeColor=none;fillColor=none;align=center;verticalAlign=middle;whiteSpace=wrap;rounded=0;" parent="1" vertex="1">
          <mxGeometry x="440" y="1370" width="60" height="30" as="geometry" />
        </mxCell>
        <mxCell id="1cYzLMDH8k2ymOEcpvg8-107" value="£0.75m" style="text;html=1;strokeColor=none;fillColor=none;align=center;verticalAlign=middle;whiteSpace=wrap;rounded=0;" parent="1" vertex="1">
          <mxGeometry x="440" y="1500" width="60" height="30" as="geometry" />
        </mxCell>
        <mxCell id="1cYzLMDH8k2ymOEcpvg8-108" value="(E(X) = £2.2m&lt;br&gt;Net gain = 0.7m)" style="text;html=1;strokeColor=none;fillColor=none;align=center;verticalAlign=middle;whiteSpace=wrap;rounded=0;" parent="1" vertex="1">
          <mxGeometry x="490" y="940" width="110" height="30" as="geometry" />
        </mxCell>
        <mxCell id="1cYzLMDH8k2ymOEcpvg8-109" value="(E(X) = £1.405m&lt;br&gt;Net gain = -0.095m)" style="text;html=1;strokeColor=none;fillColor=none;align=center;verticalAlign=middle;whiteSpace=wrap;rounded=0;" parent="1" vertex="1">
          <mxGeometry x="530" y="1265" width="110" height="30" as="geometry" />
        </mxCell>
        <mxCell id="1cYzLMDH8k2ymOEcpvg8-110" value="(E(X) = £1.73m&lt;br&gt;Net gain = 0.03m)" style="text;html=1;strokeColor=none;fillColor=none;align=center;verticalAlign=middle;whiteSpace=wrap;rounded=0;" parent="1" vertex="1">
          <mxGeometry x="530" y="1435" width="110" height="30" as="geometry" />
        </mxCell>
        <mxCell id="GN6NEk3GIBlOtZDuDhRS-2" style="edgeStyle=orthogonalEdgeStyle;rounded=0;orthogonalLoop=1;jettySize=auto;html=1;" parent="1" source="GN6NEk3GIBlOtZDuDhRS-1" edge="1">
          <mxGeometry relative="1" as="geometry">
            <mxPoint x="400" y="2040" as="targetPoint" />
          </mxGeometry>
        </mxCell>
        <mxCell id="GN6NEk3GIBlOtZDuDhRS-3" style="edgeStyle=orthogonalEdgeStyle;rounded=0;orthogonalLoop=1;jettySize=auto;html=1;" parent="1" source="GN6NEk3GIBlOtZDuDhRS-1" edge="1">
          <mxGeometry relative="1" as="geometry">
            <mxPoint x="410" y="2130" as="targetPoint" />
          </mxGeometry>
        </mxCell>
        <mxCell id="GN6NEk3GIBlOtZDuDhRS-4" style="edgeStyle=orthogonalEdgeStyle;rounded=0;orthogonalLoop=1;jettySize=auto;html=1;" parent="1" source="GN6NEk3GIBlOtZDuDhRS-1" edge="1">
          <mxGeometry relative="1" as="geometry">
            <mxPoint x="240" y="2170" as="targetPoint" />
          </mxGeometry>
        </mxCell>
        <mxCell id="GN6NEk3GIBlOtZDuDhRS-1" value="Internal or external?" style="whiteSpace=wrap;html=1;aspect=fixed;" parent="1" vertex="1">
          <mxGeometry x="200" y="2050" width="80" height="80" as="geometry" />
        </mxCell>
        <mxCell id="GN6NEk3GIBlOtZDuDhRS-5" value="0" style="text;html=1;strokeColor=none;fillColor=none;align=center;verticalAlign=middle;whiteSpace=wrap;rounded=0;" parent="1" vertex="1">
          <mxGeometry x="210" y="2170" width="60" height="30" as="geometry" />
        </mxCell>
        <mxCell id="GN6NEk3GIBlOtZDuDhRS-8" value="Nothing" style="text;html=1;strokeColor=none;fillColor=none;align=center;verticalAlign=middle;whiteSpace=wrap;rounded=0;" parent="1" vertex="1">
          <mxGeometry x="180" y="2130" width="60" height="30" as="geometry" />
        </mxCell>
        <mxCell id="GN6NEk3GIBlOtZDuDhRS-9" value="External, (£175,000)" style="text;html=1;strokeColor=none;fillColor=none;align=center;verticalAlign=middle;whiteSpace=wrap;rounded=0;" parent="1" vertex="1">
          <mxGeometry x="350" y="2140" width="60" height="30" as="geometry" />
        </mxCell>
        <mxCell id="GN6NEk3GIBlOtZDuDhRS-10" value="&lt;div style=&quot;&quot;&gt;&lt;span style=&quot;background-color: initial;&quot;&gt;Internal&lt;/span&gt;&lt;/div&gt;" style="text;html=1;strokeColor=none;fillColor=none;align=center;verticalAlign=middle;whiteSpace=wrap;rounded=0;" parent="1" vertex="1">
          <mxGeometry x="400" y="2050" width="60" height="30" as="geometry" />
        </mxCell>
        <mxCell id="GN6NEk3GIBlOtZDuDhRS-11" value="(£850,000)" style="text;html=1;strokeColor=none;fillColor=none;align=center;verticalAlign=middle;whiteSpace=wrap;rounded=0;" parent="1" vertex="1">
          <mxGeometry x="280" y="2060" width="60" height="30" as="geometry" />
        </mxCell>
        <mxCell id="GN6NEk3GIBlOtZDuDhRS-13" style="edgeStyle=orthogonalEdgeStyle;rounded=0;orthogonalLoop=1;jettySize=auto;html=1;" parent="1" source="GN6NEk3GIBlOtZDuDhRS-12" edge="1">
          <mxGeometry relative="1" as="geometry">
            <mxPoint x="530" y="2070" as="targetPoint" />
          </mxGeometry>
        </mxCell>
        <mxCell id="GN6NEk3GIBlOtZDuDhRS-18" style="edgeStyle=orthogonalEdgeStyle;rounded=0;orthogonalLoop=1;jettySize=auto;html=1;" parent="1" source="GN6NEk3GIBlOtZDuDhRS-12" edge="1">
          <mxGeometry relative="1" as="geometry">
            <mxPoint x="630" y="2130" as="targetPoint" />
          </mxGeometry>
        </mxCell>
        <mxCell id="GN6NEk3GIBlOtZDuDhRS-21" style="edgeStyle=orthogonalEdgeStyle;rounded=0;orthogonalLoop=1;jettySize=auto;html=1;" parent="1" source="GN6NEk3GIBlOtZDuDhRS-12" edge="1">
          <mxGeometry relative="1" as="geometry">
            <mxPoint x="530" y="2180" as="targetPoint" />
          </mxGeometry>
        </mxCell>
        <mxCell id="GN6NEk3GIBlOtZDuDhRS-12" value="" style="ellipse;whiteSpace=wrap;html=1;aspect=fixed;" parent="1" vertex="1">
          <mxGeometry x="410" y="2090" width="80" height="80" as="geometry" />
        </mxCell>
        <mxCell id="GN6NEk3GIBlOtZDuDhRS-16" value="0.25" style="text;html=1;strokeColor=none;fillColor=none;align=center;verticalAlign=middle;whiteSpace=wrap;rounded=0;" parent="1" vertex="1">
          <mxGeometry x="520" y="2070" width="60" height="30" as="geometry" />
        </mxCell>
        <mxCell id="GN6NEk3GIBlOtZDuDhRS-17" value="£1,280,000" style="text;html=1;strokeColor=none;fillColor=none;align=center;verticalAlign=middle;whiteSpace=wrap;rounded=0;" parent="1" vertex="1">
          <mxGeometry x="500" y="2040" width="60" height="30" as="geometry" />
        </mxCell>
        <mxCell id="GN6NEk3GIBlOtZDuDhRS-19" value="0.35" style="text;html=1;strokeColor=none;fillColor=none;align=center;verticalAlign=middle;whiteSpace=wrap;rounded=0;" parent="1" vertex="1">
          <mxGeometry x="560" y="2100" width="60" height="30" as="geometry" />
        </mxCell>
        <mxCell id="GN6NEk3GIBlOtZDuDhRS-20" value="£1,240,000" style="text;html=1;strokeColor=none;fillColor=none;align=center;verticalAlign=middle;whiteSpace=wrap;rounded=0;" parent="1" vertex="1">
          <mxGeometry x="640" y="2115" width="60" height="30" as="geometry" />
        </mxCell>
        <mxCell id="GN6NEk3GIBlOtZDuDhRS-22" value="0.40" style="text;html=1;strokeColor=none;fillColor=none;align=center;verticalAlign=middle;whiteSpace=wrap;rounded=0;" parent="1" vertex="1">
          <mxGeometry x="515" y="2140" width="60" height="30" as="geometry" />
        </mxCell>
        <mxCell id="GN6NEk3GIBlOtZDuDhRS-23" value="£1,190,000" style="text;html=1;strokeColor=none;fillColor=none;align=center;verticalAlign=middle;whiteSpace=wrap;rounded=0;" parent="1" vertex="1">
          <mxGeometry x="500" y="2180" width="60" height="30" as="geometry" />
        </mxCell>
        <mxCell id="GN6NEk3GIBlOtZDuDhRS-24" value="E(X) = £1,230,000&lt;br&gt;Net gains = £205,000" style="text;html=1;strokeColor=none;fillColor=none;align=center;verticalAlign=middle;whiteSpace=wrap;rounded=0;" parent="1" vertex="1">
          <mxGeometry x="610" y="2160" width="120" height="30" as="geometry" />
        </mxCell>
        <mxCell id="GN6NEk3GIBlOtZDuDhRS-26" style="edgeStyle=orthogonalEdgeStyle;rounded=0;orthogonalLoop=1;jettySize=auto;html=1;startArrow=none;" parent="1" source="GN6NEk3GIBlOtZDuDhRS-28" edge="1">
          <mxGeometry relative="1" as="geometry">
            <mxPoint x="520" y="1900" as="targetPoint" />
          </mxGeometry>
        </mxCell>
        <mxCell id="GN6NEk3GIBlOtZDuDhRS-27" style="edgeStyle=orthogonalEdgeStyle;rounded=0;orthogonalLoop=1;jettySize=auto;html=1;startArrow=none;" parent="1" source="GN6NEk3GIBlOtZDuDhRS-30" edge="1">
          <mxGeometry relative="1" as="geometry">
            <mxPoint x="290" y="1900" as="targetPoint" />
          </mxGeometry>
        </mxCell>
        <mxCell id="GN6NEk3GIBlOtZDuDhRS-25" value="Kitchen or sports club?" style="whiteSpace=wrap;html=1;aspect=fixed;" parent="1" vertex="1">
          <mxGeometry x="360" y="1960" width="80" height="80" as="geometry" />
        </mxCell>
        <mxCell id="GN6NEk3GIBlOtZDuDhRS-28" value="Kitchen" style="text;html=1;strokeColor=none;fillColor=none;align=center;verticalAlign=middle;whiteSpace=wrap;rounded=0;" parent="1" vertex="1">
          <mxGeometry x="490" y="1925" width="60" height="30" as="geometry" />
        </mxCell>
        <mxCell id="GN6NEk3GIBlOtZDuDhRS-29" value="" style="edgeStyle=orthogonalEdgeStyle;rounded=0;orthogonalLoop=1;jettySize=auto;html=1;endArrow=none;" parent="1" source="GN6NEk3GIBlOtZDuDhRS-25" target="GN6NEk3GIBlOtZDuDhRS-28" edge="1">
          <mxGeometry relative="1" as="geometry">
            <mxPoint x="520" y="1900" as="targetPoint" />
            <mxPoint x="440" y="2000" as="sourcePoint" />
          </mxGeometry>
        </mxCell>
        <mxCell id="GN6NEk3GIBlOtZDuDhRS-30" value="Sports club" style="text;html=1;strokeColor=none;fillColor=none;align=center;verticalAlign=middle;whiteSpace=wrap;rounded=0;" parent="1" vertex="1">
          <mxGeometry x="260" y="1925" width="60" height="30" as="geometry" />
        </mxCell>
        <mxCell id="GN6NEk3GIBlOtZDuDhRS-31" value="" style="edgeStyle=orthogonalEdgeStyle;rounded=0;orthogonalLoop=1;jettySize=auto;html=1;endArrow=none;" parent="1" source="GN6NEk3GIBlOtZDuDhRS-25" target="GN6NEk3GIBlOtZDuDhRS-30" edge="1">
          <mxGeometry relative="1" as="geometry">
            <mxPoint x="290" y="1900" as="targetPoint" />
            <mxPoint x="360" y="2000" as="sourcePoint" />
          </mxGeometry>
        </mxCell>
        <mxCell id="GN6NEk3GIBlOtZDuDhRS-33" style="edgeStyle=orthogonalEdgeStyle;rounded=0;orthogonalLoop=1;jettySize=auto;html=1;" parent="1" source="GN6NEk3GIBlOtZDuDhRS-32" edge="1">
          <mxGeometry relative="1" as="geometry">
            <mxPoint x="600" y="1860" as="targetPoint" />
          </mxGeometry>
        </mxCell>
        <mxCell id="GN6NEk3GIBlOtZDuDhRS-37" style="edgeStyle=orthogonalEdgeStyle;rounded=0;orthogonalLoop=1;jettySize=auto;html=1;" parent="1" source="GN6NEk3GIBlOtZDuDhRS-32" edge="1">
          <mxGeometry relative="1" as="geometry">
            <mxPoint x="520" y="1770" as="targetPoint" />
          </mxGeometry>
        </mxCell>
        <mxCell id="GN6NEk3GIBlOtZDuDhRS-32" value="" style="ellipse;whiteSpace=wrap;html=1;aspect=fixed;" parent="1" vertex="1">
          <mxGeometry x="480" y="1820" width="80" height="80" as="geometry" />
        </mxCell>
        <mxCell id="GN6NEk3GIBlOtZDuDhRS-34" value="£1,340,000" style="text;html=1;strokeColor=none;fillColor=none;align=center;verticalAlign=middle;whiteSpace=wrap;rounded=0;" parent="1" vertex="1">
          <mxGeometry x="610" y="1845" width="60" height="30" as="geometry" />
        </mxCell>
        <mxCell id="GN6NEk3GIBlOtZDuDhRS-35" value="0.6" style="text;html=1;strokeColor=none;fillColor=none;align=center;verticalAlign=middle;whiteSpace=wrap;rounded=0;" parent="1" vertex="1">
          <mxGeometry x="550" y="1830" width="60" height="30" as="geometry" />
        </mxCell>
        <mxCell id="GN6NEk3GIBlOtZDuDhRS-38" value="0.4" style="text;html=1;strokeColor=none;fillColor=none;align=center;verticalAlign=middle;whiteSpace=wrap;rounded=0;" parent="1" vertex="1">
          <mxGeometry x="520" y="1790" width="30" height="30" as="geometry" />
        </mxCell>
        <mxCell id="GN6NEk3GIBlOtZDuDhRS-39" value="£1,125,000" style="text;html=1;strokeColor=none;fillColor=none;align=center;verticalAlign=middle;whiteSpace=wrap;rounded=0;" parent="1" vertex="1">
          <mxGeometry x="490" y="1740" width="60" height="30" as="geometry" />
        </mxCell>
        <mxCell id="GN6NEk3GIBlOtZDuDhRS-40" value="E(X) = £1,254,000&lt;br&gt;Net gains = £404,000" style="text;html=1;strokeColor=none;fillColor=none;align=center;verticalAlign=middle;whiteSpace=wrap;rounded=0;" parent="1" vertex="1">
          <mxGeometry x="600" y="1740" width="140" height="30" as="geometry" />
        </mxCell>
        <mxCell id="GN6NEk3GIBlOtZDuDhRS-42" style="edgeStyle=orthogonalEdgeStyle;rounded=0;orthogonalLoop=1;jettySize=auto;html=1;startArrow=none;" parent="1" source="GN6NEk3GIBlOtZDuDhRS-47" edge="1">
          <mxGeometry relative="1" as="geometry">
            <mxPoint x="290" y="1750" as="targetPoint" />
          </mxGeometry>
        </mxCell>
        <mxCell id="GN6NEk3GIBlOtZDuDhRS-43" style="edgeStyle=orthogonalEdgeStyle;rounded=0;orthogonalLoop=1;jettySize=auto;html=1;" parent="1" source="GN6NEk3GIBlOtZDuDhRS-41" edge="1">
          <mxGeometry relative="1" as="geometry">
            <mxPoint x="390" y="1860" as="targetPoint" />
          </mxGeometry>
        </mxCell>
        <mxCell id="GN6NEk3GIBlOtZDuDhRS-44" style="edgeStyle=orthogonalEdgeStyle;rounded=0;orthogonalLoop=1;jettySize=auto;html=1;" parent="1" source="GN6NEk3GIBlOtZDuDhRS-41" edge="1">
          <mxGeometry relative="1" as="geometry">
            <mxPoint x="180" y="1860" as="targetPoint" />
          </mxGeometry>
        </mxCell>
        <mxCell id="GN6NEk3GIBlOtZDuDhRS-41" value="" style="ellipse;whiteSpace=wrap;html=1;aspect=fixed;" parent="1" vertex="1">
          <mxGeometry x="250" y="1820" width="80" height="80" as="geometry" />
        </mxCell>
        <mxCell id="GN6NEk3GIBlOtZDuDhRS-45" value="0.25" style="text;html=1;strokeColor=none;fillColor=none;align=center;verticalAlign=middle;whiteSpace=wrap;rounded=0;" parent="1" vertex="1">
          <mxGeometry x="330" y="1830" width="60" height="30" as="geometry" />
        </mxCell>
        <mxCell id="GN6NEk3GIBlOtZDuDhRS-46" value="0.25" style="text;html=1;strokeColor=none;fillColor=none;align=center;verticalAlign=middle;whiteSpace=wrap;rounded=0;" parent="1" vertex="1">
          <mxGeometry x="200" y="1830" width="60" height="30" as="geometry" />
        </mxCell>
        <mxCell id="GN6NEk3GIBlOtZDuDhRS-47" value="0.5" style="text;html=1;strokeColor=none;fillColor=none;align=center;verticalAlign=middle;whiteSpace=wrap;rounded=0;" parent="1" vertex="1">
          <mxGeometry x="260" y="1770" width="60" height="30" as="geometry" />
        </mxCell>
        <mxCell id="GN6NEk3GIBlOtZDuDhRS-48" value="" style="edgeStyle=orthogonalEdgeStyle;rounded=0;orthogonalLoop=1;jettySize=auto;html=1;endArrow=none;" parent="1" source="GN6NEk3GIBlOtZDuDhRS-41" target="GN6NEk3GIBlOtZDuDhRS-47" edge="1">
          <mxGeometry relative="1" as="geometry">
            <mxPoint x="290" y="1750" as="targetPoint" />
            <mxPoint x="290" y="1820" as="sourcePoint" />
          </mxGeometry>
        </mxCell>
        <mxCell id="GN6NEk3GIBlOtZDuDhRS-49" value="£155,000" style="text;html=1;strokeColor=none;fillColor=none;align=center;verticalAlign=middle;whiteSpace=wrap;rounded=0;" parent="1" vertex="1">
          <mxGeometry x="390" y="1845" width="60" height="30" as="geometry" />
        </mxCell>
        <mxCell id="GN6NEk3GIBlOtZDuDhRS-50" value="£1,220,000" style="text;html=1;strokeColor=none;fillColor=none;align=center;verticalAlign=middle;whiteSpace=wrap;rounded=0;" parent="1" vertex="1">
          <mxGeometry x="260" y="1720" width="60" height="30" as="geometry" />
        </mxCell>
        <mxCell id="GN6NEk3GIBlOtZDuDhRS-51" value="£1,480,000" style="text;html=1;strokeColor=none;fillColor=none;align=center;verticalAlign=middle;whiteSpace=wrap;rounded=0;" parent="1" vertex="1">
          <mxGeometry x="110" y="1845" width="60" height="30" as="geometry" />
        </mxCell>
        <mxCell id="GN6NEk3GIBlOtZDuDhRS-52" value="E(X) = £1,018,750&lt;br&gt;Net gain = £168,750" style="text;html=1;strokeColor=none;fillColor=none;align=center;verticalAlign=middle;whiteSpace=wrap;rounded=0;" parent="1" vertex="1">
          <mxGeometry x="150" y="1750" width="130" height="30" as="geometry" />
        </mxCell>
        <mxCell id="GN6NEk3GIBlOtZDuDhRS-53" value="Most financially rewarding according to decision tree is kitchen" style="text;html=1;strokeColor=none;fillColor=none;align=center;verticalAlign=middle;whiteSpace=wrap;rounded=0;" parent="1" vertex="1">
          <mxGeometry x="350" y="2220" width="220" height="30" as="geometry" />
        </mxCell>
        <mxCell id="DR4r57PZJUJLHKagL7Pu-20" value="" style="group" vertex="1" connectable="0" parent="1">
          <mxGeometry x="30" y="2250" width="2230" height="740" as="geometry" />
        </mxCell>
        <mxCell id="DR4r57PZJUJLHKagL7Pu-1" value="&lt;a style=&quot;color: rgb(0, 0, 0); font-family: &amp;quot;Times New Roman&amp;quot;; font-size: medium; font-style: normal; font-variant-ligatures: normal; font-variant-caps: normal; font-weight: 400; letter-spacing: normal; orphans: 2; text-align: start; text-indent: 0px; text-transform: none; widows: 2; word-spacing: 0px; -webkit-text-stroke-width: 0px; text-decoration-thickness: initial; text-decoration-style: initial; text-decoration-color: initial;&quot; data-slideid=&quot;&quot; data-shapeids=&quot;5&quot; data-sessionid=&quot;a01fd9dd-c62d-48c0-ac28-d79ea6aea118&quot; class=&quot;CID511edaa1-ba4e-45ca-b739-3559b7e452ee&quot;&gt;&amp;nbsp;&lt;/a&gt;&lt;img style=&quot;color: rgb(0, 0, 0); font-family: &amp;quot;Times New Roman&amp;quot;; font-size: medium; font-style: normal; font-variant-ligatures: normal; font-variant-caps: normal; font-weight: 400; letter-spacing: normal; orphans: 2; text-align: start; text-indent: 0px; text-transform: none; widows: 2; word-spacing: 0px; -webkit-text-stroke-width: 0px; text-decoration-thickness: initial; text-decoration-style: initial; text-decoration-color: initial;&quot; class=&quot;CID511edaa1-ba4e-45ca-b739-3559b7e452ee&quot; src=&quot;data:image/jpg;base64, /9j/4AAQSkZJRgABAQEAYABgAAD/2wBDAAUDBAQEAwUEBAQFBQUGBwwIBwcHBw8LCwkMEQ8SEhEPERETFhwXExQaFRERGCEYGh0dHx8fExciJCIeJBweHx7/2wBDAQUFBQcGBw4ICA4eFBEUHh4eHh4eHh4eHh4eHh4eHh4eHh4eHh4eHh4eHh4eHh4eHh4eHh4eHh4eHh4eHh4eHh7/wAARCALyBBcDASIAAhEBAxEB/8QAHwAAAQUBAQEBAQEAAAAAAAAAAAECAwQFBgcICQoL/8QAtRAAAgEDAwIEAwUFBAQAAAF9AQIDAAQRBRIhMUEGE1FhByJxFDKBkaEII0KxwRVS0fAkM2JyggkKFhcYGRolJicoKSo0NTY3ODk6Q0RFRkdISUpTVFVWV1hZWmNkZWZnaGlqc3R1dnd4eXqDhIWGh4iJipKTlJWWl5iZmqKjpKWmp6ipqrKztLW2t7i5usLDxMXGx8jJytLT1NXW19jZ2uHi4+Tl5ufo6erx8vP09fb3+Pn6/8QAHwEAAwEBAQEBAQEBAQAAAAAAAAECAwQFBgcICQoL/8QAtREAAgECBAQDBAcFBAQAAQJ3AAECAxEEBSExBhJBUQdhcRMiMoEIFEKRobHBCSMzUvAVYnLRChYkNOEl8RcYGRomJygpKjU2Nzg5OkNERUZHSElKU1RVVldYWVpjZGVmZ2hpanN0dXZ3eHl6goOEhYaHiImKkpOUlZaXmJmaoqOkpaanqKmqsrO0tba3uLm6wsPExcbHyMnK0tPU1dbX2Nna4uPk5ebn6Onq8vP09fb3+Pn6/9oADAMBAAIRAxEAPwD7LooooAKKKKACiiigAooooAKKKKACiiigAooooAKKKKACiiigAooooAKKKKACiiigAooooAKKKKACiiigAooooAKKKKACiiigAooooAKKKKAEoFNYkHrQHbjjNADjS03d05p1ABRTd3B5pVOR60ALRRSEmhgAoNNycg04dKQBQelFNdtv40wH9qBTc06gAopm75sU5TkUALRRRQAUUUUAFFFFAAelJS0YoABRTSSKNxzQA6jvSA80tABRRRQAUUUUAFJilooATFBNITjuKQN7H69qAHiimqTmnUAFFFFAAetJQ3Wm7qAH0U0McDNOoAKKKKACiiigAooooAKKKKACiiigAooooAKKKKACiiigAooooAKKKKACiiigAooooAKKKKACiiigAooooAKKKKACiiigAooooAKKKKACiiigAooooAKKKKACiiigAooooAKKKKACiiigAooooAKKKKACiiigAooooAKKKKACiiigAooooAKKKKACiiigAooooAKKKKACiiigAooooAKKKKACiiigAooooAKKKKACiiigDyb9p/4geIPh34HsdW8N/wBnC8udUhsy19EzxorhstgMvTA71x+rfET4j6D4N1zxJfeLvAWrQ2EKMF02xkd0ZpFXLL53I59RXTftX+DNe8ceCdI0vQNJ/tOSLW7a4uIS6KBCu7eTvIB69PemfGT4V6Sfg/4i0f4d+C9Js9W1COJBFYW8Vu0oWRWILcA4Azye1JXtqVpdI1/Enxm8LeFpdG07WF1G81S/sI7ySLT7My+TGVyZHGfkXOfXpXTfDPx5oXxD8LJ4k8O/ajYPM8Km4i8tyyHB4yeK8X1S08VeDfiuusaHpOm69Nf+Gba0vrGS/hhmsmiVgXYMwyhyc4z0NRfsoaj4xsfhz4atNK8MwX2lX+r3zanfC5VBZLuyrKucuCfSqsmrol6HrPxo8caj4F8HXeraZ4Z1LW7hYJXH2WLfHb7ULb5jkYQY5xWn8JvEF94o+HOheINSSFbu/tVmmEKkIGJPQEnjil+KemX+sfDbxJpWmQG4vLzS7iCCIMAXdo2AAJwBknqTVX4M6LqWh/Cjw9ousW5tL+1sRFPFvDGNsnjcpI79qS2A7HccfdNcf8aPEuoeD/hdr/iTSlt2vtPtHmhE6F4ywGRkAgkfjXPXnwd+1XMs5+I/xCiMjltsevzqq57KA3FX/jJ4X1TVPgfrnhfREudU1CXTWt7cTzAyzPtwCzseSfUml0GtzyfTvjB8RbC48LXmqax4I1+21q7it307SoXS6i3gnOTIw+XHPHevSdQ+PHgDT/Hl34Ku5tSTVbSUxzf6ITGoCFy+4H7oA6+teLH4a+MNZs/DOk6N8GLDwJqVldwSXPiKOe2WRUTO7/VMXbd9K9N8PeCvGOn+IPixqVrYx2t7rIA0a7mZGEpEO3OASQN3Y4qnsSjovCfxu8F+I/ElvoNumr2M94HNjNfWflRXe3r5TZO78hXE/Ez9o7RrPS7qPwWk9zfQajFZJd3VizWUrGQK6o4YZIGa5Dwf8M/iA3jfwRq2p+Gdeh+wtNHq91f62lyQzAfvIk8whI/QLz7VBqXgH4uWfwxX4V2nge3vbGx1iO4j1aO9iUTwiUNkIzAhsdcgUacyGz1XRvi5JZ+MfHkHiyWxtNC8ORWzxSxxkSEyRIxBOTuJLcAAdqtW/wC0D4Fk0HVdWkt9dtv7LVJLm0nsNlz5Tk7ZQm7lOOua858bfB/xl4k1T4htDZtaJfy6fc6bI1wq/aGgWIuoKklDlCATirngT4W6tq17ruo+L/D2s6Yk2ivpon1nxA19PICMnA3MixggY5zyeKNLC+1Y9U1n4j6W2qp4a0Pz7jXr3R5NTsiLfzIFQL8pkIYdSw47+tYM/wAaLDwnpun6f42s9QufEQshd6nHpNiZI7RCTh3BbKLge9cF+xVpOsXTa54o8Qsst1ZpHoNo6nKmK3G1iD9VHNWfj94A8Zan8QbnXvC/h3VHnubBbeLUtH1Vbd8jPy3EbugdOe27ih6NAtb+R77F4g02fw0PEVtMZ9ONsbpZIxndGBnIFebeGP2ifh54g1DSbW2Gs20WrSeVa3d1ZeXbmT/nmXycNnjFdBpdhrWlfBL+z/EUtvJq0GkSJdNbqFj3hDnAr56+FWh/EDx18JPAPhWPwva2egWl9Dfya0blCpjik3hQmd4c4x0x70l8TQX0R7jb/HjwBN42uvCJn1CLUbSWSOdpLXEMexQxYvnhcHg+xp3hT47eBfEWuRaVanVLRrnf9huLy08qC92jJ8l8/NwCR06Vyvhn4Ya7deHPitomp2n9mP4lvZRYXTOrF4jEiq3ykkDIPB5rCi8JfErxRaeEvDPiLwlb+HtN8KSefLqa3aSC68uJkURKpLAHdk7gKasM7az/AGjfh7cX0Vv5WuwwveNZPdy2OLeKYPs2u+7jJ6fWtbxt8bfBfhPXn0W7GqahcwxrLdnTrTz0tEbo0pyNoP418/eCdK+IHjT4TXngPR/CsDaNqHiK4d9bNygECLdsz7kJ3FsggYB7V6HN4U+IvgHxN4rj8L+FYvFOneJ449lwbqOI2jrH5ZEgcgsvf5c0WXcD0TxZ8ZPBugWukzo9/rR1a3N1ZxaVb/aJHhAyZNuRhR60mrfGbwTp/hHSfEouL28g1dzHY2trbmS5mdThlEeRypzn6V434l+Dvi3Q/Cng2y0zRb7Vr7SdPeCXUNE1MWl5BK+CVG9kVosj1z04o1b4U/E2Tw74K1y+S8vtY0c3C3drpd+LO8MchbYVmDBd4BG47ucdTSBHrV78cvANv4Ij8Vtd3skEt19jWzjt83nnjrF5WfvD0zVD4P8AxUvPHvxK8VaTHbiHRdNgge0Wa2MVyjsq71lBYjIJI4FeaW3wl8baVYaP430nwy517TtbbUZNGvNYNzNdIy4LPK52iT/gWPeu9+Ceg+OF+LfjLxh4r8MDQodYggFtGLiOX7oUYJVid3HPbPQmqSVhPc6fx98YvCPgvXX0bUItWvLuGAXF2LC084WkRJAeU5G0cH1qDxd8bfBnhnUNOsLhNWv59Ssje2a6faed5sfHTkc89K83+PPw/wDG2o/EG91vwr4d1MzXdksMWo6PqqwMSM/LcxyOgdee27iszVX8c+GfjR4GW30S18R+IrPwtNHeWsDpArkNHuKE4UEHHUgdahapDeh7Cnxq8Bv4AXxp9uuBYtP9mW3MP+lGfOPK8vP389s1Dp3xw8E3vhXXPEGNUtV0KITahY3Nr5d3Gh6N5ZPIPPftXlFr8IvHtv4etvGA062bxLH4nfxA+hGcbNrZHlB/u78HrnGe9WfFHgH4ieNrLx74u1Lwuuj6pquhppmnaOt1HJLIVZiWdg2wE7v73araQadD03wX8cvA/irW10m0bU7KaWza8ge/tfJjniUZYocnOByaf4Q+Nng3xP4lg0Kwj1aF7syLZXdzabLa7KZ3COTJ3dD2FcdrPgHxVdeN/hzeR6LHNZ6V4fubPUTNKnlxyvHtCMM5IJyMqDXIfDH4a/EnRvHujxW+jajoOhWk8jX0N1qSXdhsJP8Ax6pvLIx9Sq4pdBa3PV7z4+fD+18RyaPJPqLQxXH2WXU0tc2Mcv8AcMueD+FSa98dfAei+PZPBN7JqX9qo0S/u7UvERIAQwYH7oByT2ryg/D74oWPgHVPg5a+FbS50m9vnlj8RG6QRpEzhiWjzv3jHZa7z4f+ANc0X4u+MtSutMV9Nu9ItbKwu55FKzlIlRgQCWAJHORS6BfWxueHfjd4K1/xRb6FZjVYzdTSQWd9NabbW6kQ4ZY5MnPPHQVxfg79orTYb3VbDxtDPHJb63JYR3FjYsbeCMECMzOW4J9a5bwD8NviZo/xC0gafomoaHpFrqLz3yXGppdaa0RbJNvGXLoxHfYMGtO5+Gvjdvgp440FdBc6pqfiNry0gE8WZYTKrbt27AGATgnPtTaVhrex30PxYXT/ABb4/XWpo5dE8M20FwotbQ+aEeNWPzFsP97sFq54K+OXgnxZ4is9DsV1a0uL6LzbKS9tPJiuh3EbZO4j0ryrx14R8Q6Jonxf1rVdNa20/UNEto7WYyI3mskCK+ACSMEEcgVd8D6B8QfG+s/Da71rwvb6Fo3haFboXy3Sv9tJVdqoqncowvO4DrVJJt9ibux7b8RfH3h7wHpcN9rsszNcSiG2tbaPzJ7h+u1E4ycAn8K5pfjn4FPgbVfFztqcNtpMqQ39pJa7bu3ZyAoaPPfIPWqnxw8K+JrzxL4T8ceFdPj1e+8O3Du2mvKI/tCOpU7WbChhkdSK8b+MHhfxUPh38R/iH4p0qPRLvXWsoYdLWZZTGkboN0jKSuSR2J4qI6lpbHrbftAeEr601WLS7PWxqlnYNeW1tc2BQ3aAdYhu+cDIz0rF0f40a1qvg/4fa0LFdOn8Q6oLO7jnsmKuNjEmI7xgccMc/Ss238K/ETx94r0jWNd8L23h6y0LQ5ra1f7WshvpZUTGNpJCjaPvY61S0XwF4/m8BfCzR73wpNaXHhrWVa/BuoWxCsbr5oIc5BJGB156U0S9z0jW/jx4A0fxJcaLcS6lLHaTiC71GG132dtIf4XlzwRnnin+Mvjp4L8LeJrnw7eQazeX9vaJeMtjZ+cphbowORkDvXmN54E+J+keFvFfwu0vwra6lpfiC+nmi157tFjhjnOW8yMneWXnoCOldT4Z+HfiPRfiZ4kuRYPLpcnhOHTbS7Mqfv5lVgVxnI5I6gCl0GdlrXxk8Gad4Z0TXopL7U4tcH/EutrC3824nwMthMjpg557Guj8A+MNF8beHotc0OSVrZ3aNkmj2SROv3kdexHpXznJ8LPGkHwi8C2cnhG8n1bRnnM39n6ottqFqXZsGNwwQjB5G/vXr/7OWg+MtA8Bva+NWJvpLySaJZGVp1iIGBKykhn4OSCe3NUkrC10PTQaWkHU0tSMKKKKACiiigAooooAKKKKACiiigAooooAKKKKACiiigAooooAKKKKACiiigAooooAKKKKACiiigAooooAKKKKACiiigAooooAKKKKACiiigAooooAKKKKACiiigAooooAKKKKACiiigAooooAKKKKACiiigAooooAKKKKACiiigAooooAKKKKACiiigAooooAKKKKACiiigAooooAKKKKACiiigAooooAaaa3sOakooA4vxx8MfAvjW/hv/Emgpd3cKeWk6XEsD7T/CWiZSw9jkV0ehaTpuhaZBpWj2cNnY2yhYoYhhUArRooWgDR0paWigBKDS0UrANop1FFgEopaKYDW5HpWfrWmWWsaVdaVqURmtLqMxToJGQsp6jKkEfga0qKAMbwp4e0Xwrodvovh/T0sdPgyI4UJOM9SSxJJJ7kk1qrxUlFICtf2sF5ZzWdxGJIZozHIhONykYI4qh4V8PaP4W0G20HQLNbHTbVdsEIdmCj6sST+JrYoosAzHamSoskbRtyrAqR6g9qmopgYfhLwxofhTTW03w/YLY2hmkmMauzfO7FmOWJPJJP41tAU6ila4CUUtFMBKO1LRRbUBhxWLN4W0Gbxdb+K5NPV9at7ZraK6Mj5SJiCV2528lRzjPFbtFK2oDaKdRTAZRwafRQFhvbig9RTqKEA3tSHpT6KAMrxLoumeJNCu9E1q0F5p93GY7iBmZQ6ntlSD+Rqxplla6bp9vp9lEIra3jWKJASQqgYAyeeKu0UkrANPI4rG8YeG9E8W6FNoXiKwW+06YqZYWdkDFTkcqQevvW3RQlYCG2ijggjgiXbHGoRF9ABgCpaWimAlJTqKAG9qUUtFIBPejvS0UwCiiigAooooAKKKKACiiigAooooAKKKKACiiigAooooAKKKKACiiigAoooNABRSYo7UALRSYooAWim04UAFFJ60UrgLRSUDrTAWik70Ci4C0UUUAFFFFABRRRQAUUUUAFFFFABRRRQAUUUUAFFFFABRRRQAUUUUAFFFFABRRRQAUUUUAFFFFABRRRQAUUUUAFFFFABRRRQAUUUUAFFFFABRRRQAUUUUAFFFFABRRRQAUUUUAFFFFABRRRQAUUUUAFFFFABRRRQAUUUUAFFFFABRRRQAUUUUAFFFFABRRRQAUUUUAFFFFABRRRQAUUUUAFFFFABRRRQAUUUUAFFFFABRRRQAUUUUAFFFFABRRRQAUUUUAFFFFABRRRQAUUUUAFFFFABRRRQAUUUUAFFFFABRRRQAUUUUAFFFFABTWJBpxpjmk2AbsjHQ9/ajd1H8u1eR6ZeeKfFEus+JLXxhJosemaxJZW+nukf2V443CnzsjeWYHghhzXO+PvG2uWer6nrGka94huVsL2GFYLSwT+ylXKh0lkILM+SejLiiwHvxPT5sVXtr61uZpobe6gmlhbbKkcgZoz6MB0/GvD/EvijxTa+JL3UdU17XdF06OaP7DcWVklzpaxlVP+k8b1OSRw44xVQw6zHrXxM8SaR4mvdNTTpormOC0SPZcsqMf3m5WJUjI+Ug89aEKWh77e3dvZWkl3eXENtbxKWklmcIigdSWPAFSRSiSNJEdXRhlWQ5DDsQa888fa1eT/AAA1HXo2WG8l0H7VwgYKzQ7j8rAgjJ71x8V94v1i78UyQ+MNQ0y20Swtp7WC1iiAZ2RiVfchyvyjgYPPWqS0C+p7NqOuaPps6W+o6tYWc0is6Rz3CRsyqMsQCeQACSe2KuQTRzwLPBLHLE6hkdG3KwI4II6ivmLXRdeI9Zu/E1/qV4Zbn4ePfG2xGYVZ0UMi5UsqksW4Ocjrjiu38Hy694oktvD9j4kvvDtno2iWcifY1j8yeV06vvVh5YAGMAHOeaEvdQ2e0AnPXjtS7sCvnG7+JnjCPQZ7hr5hqGq6SU0yNEUILuKREdkyD94SZwc/drS0vxl451vR2Olahm+0vR1t75W2gSX/AJvlvzj7+MlR3OOKVgPewzc9KdzXlfwf1y7udcvNI1LxB4gnuFt0lOn+ILBYLuNudzoyBVePjj5c8dTXqg+9RYBRS0UUAFFFFABRRRQAUUUUAFFFFABRRRQAUUUUAFFFFABRRRQAUUUUAFFFFABRRRQAUUUUAFFFFABRRRQAUUUUAFFFFABRRRQAUUUUAFFFFABRRRQAUUUUAFFFFABRRRQAUUUUAFFFFABRRRQAUUUUAFFFFABRRRQAUUUUAFFFFABRRRQAUUUUAFFFFABRRRQAUUUUAFFFFABRRRQAUUUUAFFFFABRRRQAUUUUAFFFFABRRRQAUUUUAFFFFABRRRQAUUUUAFFFFABRRRQAUUUUAFFFFABRRRQAUUUUAFGaRqxdU8VeGdK1m10bU/EWk2OqXePs1ncXkaTTZJA2oTlskEcCgDbzSZHrTevPP0rFTxZ4VfxI3htPEmjtrg66cLyP7SON3+rzu6c9OnNIDdopF6UtCAKKKKYAaYwOacKKQHE6l8M/DOoa6+qyrqEaTzLcXFjFdMlpcSjkPJEOGbPOaq6x8JvC+qTag1xJq0dtfyGWayhv2S3Ev/PVYxwHzzn1r0CihMDgLr4UeGbi7eV7jWVt5yrXdkmoOLa7ZQBumj6OSAMk9cCtf/hB9BFvr1usVwsOujF6olI6AgbP7owT0rqKKaFuYOpeFdJv/BT+D50n/sp7L7EyrIQ/lBdv3uucd6r2fgnQ7X+1vJjuP+JtAkF2TMeURSF2+hwxrpqO1Azio/hr4ZS3+zrBdBP7FGic3Bz9lwBj/f4HzU3Vvhn4fvks/KuNW02W1tFshPp960Es0Cj5Y5GX76jnr6mu3pPSl2A5S7+H/he5bw8W00RL4fk8zT44n2rGcEYI7jnpUMHw18JwWGvWMent5WvXRu70GQ8y9Qyn+EggEY6HmuxpaL3A5bwh4H0rw5ey38N1qmo30kYi+1aldtcyrGM4RWbovJ4rqADk0oopgLRSdqWgAooooAKKKKACiiigAooooAKKKKACiiigAooooAKKKKACiiigAooooAKKKKACiiigAooooAKKKKACiiigAooooAKKKKACiiigAooooAKKKKACiiigAooooAKKKKACiiigAooooAKKKKACiiigAooooAKKKKACiiigAooooAKKKKACiiigAooooAKKKKACiiigAooooAKKKKACiiigAooooADSUppKTAG+tc94q8aeFvC09vBr+u2enS3GfJSZjlunoOnNdA3HNeHfFm81Y+OdV09Gu9Kin0sRW0tno32uTU2KtuiMu3EQU46kZz7UrjSPUdf8ZeFvD9taXOs67Z2cN5j7O7vkSZ6Yx1FYHh74o+Hb7wtL4k1a6ttHsVvntI5JZ9wlK4wy4Gec9MV518P7r/hF5PDHiLxBp+pNph8ODSsLYSyvbXKP8yNGqlhkAjdjBz1xWb8OoJvD0mgeLNS0XU7fRLS/1FXg+xvJJbGby/LkMagtg4PKg4q7avUiT0R6ZYfFfTb9rqe2ishYwaqLBbuW+2LKpR3MiDYckBPu/rTfB/xc0nxR9j/s9bMNcapPYOj3hDqIydrqNnzlhg7eMA9a820u0ub7Upr/AE/QdQtLO68bR3USPaOhMRim/e7ccKcjr0zzRbWGq3UekaNZ2moW+oW/iXUy7tayKsQkLsj78bSCGByDjtU7GiSPctO8ceEtQ8QyeH7PxBYz6pESHtlfLAjqM4wTzVaP4ieB31dNGj8Uaeb+SZ4FhEh3GRThlzjAIIxivLLL/iYeFPC3gXTdFv7XxHpOoJLcF7J0jtAhbfJ5pGxs7hwrEnPtUT6Lcj4OeJUXSbkXkvi9pgptm8x1F+pDgYyRt5B9KbVlcmOu569qnjrwjpOvxaBqPiCxtdUlKhLZ3O8k9B0wM+9GkeKhqPjrXPC4sTH/AGVBby/aPNyJfND8bccY29cnOa8I+KE2v39p4x0sJqFlcyuJE0yy0TzBeosSfv3udvJ4I25J+XgV6b8Olmk+KvifUPs9wltcaZpvlSyQuiuQsmQCwHI7iqUdBLY9QHTvSimgfLThU6DWwtFFFABRRRQAUUUUAFFFFABRTS3OK5fxx4403ww9vYiC41TWrv8A49NKs8NcTe/JARe25iF96AOqorzP/hYXjv8A6Ir4o/8ABhp//wAfpf8AhYXjr/oivij/AMGGn/8Ax+gD0uivNP8AhYXjr/oivij/AMGGn/8Ax+j/AIWF46/6Ir4o/wDBhp//AMfoA9Jb7wrxBNM0fU/DHxWu9Uiiurn+1J45ZJQGaALbw7VU9UAzng9TmulPxB8df9EV8Uf+DDT/AP4/XG69balretvql58EvHCeeVa8tLfXrSK0viO9xCtxsl4wDuByAB2pNXTQHqdzf3dv8Nbi7Rj9vi0iSVVB+cOIiQfzrzX4ay+JdAg8DX+oyaBf6dr9um9YtPMV7BNJD5jO0xdvNJcnd8q4z+FaKa74iXxFNr4+Bvik301r9jkJ1OxKGLI+Xb5+OwrF8PW+qaJ4gXWrb4K+O7ieIu1pFea/aTwWRfO4wRvcFYsgkfKBxxTv0BJ2PfO1KK80/wCFgeOh/wA0V8Uf+DCw/wDj9A+IXjr/AKIr4o/8GGn/APx+gD0yivNP+FheOv8Aoivij/wYaf8A/H6P+FheOv8Aoivij/wYaf8A/H6APS6K80/4WF46/wCiK+KP/Bhp/wD8fo/4WF46/wCiK+KP/Bhp/wD8foA9LPSmH7tebf8ACwvHX/RFfFH/AIMNP/8Aj9XdE8aeMNQ1W3s734UeINLt5XCyXc99ZMkQ9SEmLH8AaT2A3PFXjLwt4WeFPEOuWenPN/q1mY5b8BTdf8aeFdB0211LWNesrOzugDbyu+RICMjbjrXnusW/iyw+Pc7aTZeH7+DXNMEUn2qeUPbRQsSxbapxv8zAHQ7TW6fDeh6JqK2Xg2Kxk8T6dpzxWNpqd1L5McDupY8A+gHA744zR9lMHudXqHi7w3p/hyPxDe61ZwaVKA0d0X+Rs9MdzVzRdY0zWNJi1XSr6G7spV3JPG2UI714H8MGjbxF4Isb0HFtfapvBOYfteXY+X2wMjHf8a3w11D4e+KyaL/qEvXMIjJwJCB5uPwx0qtLXBfFZ9D0zQPGfhXxBqNzp2i69Z315akiaKJzlMHB+v4UujeNPCus6zPo2l67Z3eoW+fNt43+ZSOv1/CvHvirttvBngOTwmAt5/Z1wtt9nPzG3+wSkjjtnB+uK0NVS2h8I/DCXQ0hF8bmIRFOpUgef05POc0JXY3FpXPUIPGnhSfxO3hmLXrJ9YTIa0D/ADjHUdMZ/GuiH0r56iWP/hnnw3PbiP8Atr+04XRs/vPtZc+Zz13bd2a+hBnJzSkrMm45aWkFLQMKKKKACiiigAooooAKKKKACiiigAooooAKKKKACiiigAooooAKKKKACiiigAooooAKKKKACiiigAooooAKKKKACiiigAooooAKKKKACiiigAooooAKKKKACiiigAooooAKKKKACiiigAooooAKKKKACiiigAooooAKKKKACiiigAooooAKKKKACiiigAooooAKKKKACiiigAooJxRkUAFFGaKACiiigAPSm7sU40096QCE/gO9Ju968Q+Jup+JLXxbqt5NqfiW30exRTb3OhOkkNmwXJa7iYqXHfAPSoNKm1vxRc+NNUX4gavDb6QRLp4tJRFE3ys2XQ9VO0fLn8aSdxtWPd847/jTQc87ufavEvCGra/8SriUXviLVfDi6fpdrOiWEohaaWWFXMr5zuQFvu8fWqXh7XPE3jrW/C9jdeItT0mC60y6e7OnSeU07xSFVdSQduQKq1nYXS572f8AeJpTx3z+NfOlrr/jXV9Ns7RtQ8QahZWFze211/YlwianL5UgSOVt2Ay4Jz6kit3w9rt/4z1DQ/C1v4w1dLI2MtzcahAotb2Z0ldBCTlgGTb82M5wTxmqsC1Pbc8DJoB+vXvXgF54i8WXUWmeG7fxJdwSw+LDo7anGMyXEATdlvVueT9KTUb7xJoevTzax4j8Wrp9jdx29tqtnIlzYrGrBSLuMlWMjdCR0JzUIdnex7tY6lYX1xdQWV7Bcy2kvlXKRyBmhfAO1gOhwQcH1og1LT7jULjTob23lvLZVae3WQF4w2dpZe2cHH0r59ng1NB8VfFml+J9UsH0q9F1bQWkvlwzOLWJsyrj51IxxxS+M/FPib+3dY+w69caa0v9kKrRkYj81Zt+PrgfkKpqwRV02fRhbGBSq2a818LNqnh/4qy+E313UtasJ9K+3B7+bzZYJBJsxuwPlPUDFelJQ1YlDqKKKQwoooNACMwX6+lIWAGazvFGtab4d0G81zWLgW9jZxNLM+M/KB0A7n2rgdKi+InjiKPVrzUj4M0aZSbfT4It99Ih+68kmQImx/AA31oA9QDZ6CjdzXm3/CF+NNBtQ/hnx/qWoTxncYNeP2lZh/d3jBTPrg49KxIvGXjLx7q03gvR9Nk8K3tjGP7fvpmDtb7idq2w/jLAZ3naBkdeaAOk8Z+OLptdk8H+BrePVPEu3NzI3Ntpqno87D+L0TIJx7GtH4feBrLw00+qXVzJq3iG+AN/qk/LyNj7qD/lnGOyjA7nJya0/B3hfSPCejrpejWoiiyWkkY5kmc9Xdv4mPrW2vvQAoXFLRRQAUUUUAI3Sm5B6U49a8H1Twzpfii38e+Kta3T63peoSQ6TeiQrLpiRwxsixEfdIZmbOOrVMnZOXRAj3YYoyBWboc0mpeG7SaZnV57cbyp+YEr1B9a8h8HWOi6L8YrVNJ8MXnhBLlLiGaS/ULJrkq7mJUKzBgB+83kqT6VS3JvpzHuIpR1poz3pRQnfUodRRRQAUUUUAIaQinGkOM0Acf4l+Gvg7xFrZ1rVdNuJNQaMRNPFqFxAdgzgfu3UdzRqHw18GX+n2dhdaVM8VmpSB1vp0lVT1BlVw7D2ZjV7xZ438K+FpIY9f1mGykm/wBWhVnYj1woJA9zWlPrWkwaJ/bUuoW66d5Yk+0lvk2noc/jSAyrzwL4UuvDsHh6XSIxptu2+GOOV43jbOdwkVg4JPU5ye9X9C8P6RoekLpOlWaW9kAQY8ly+epZmJLE+pJqLX/FPh/QtGi1jVtUhtbGXb5crBjv3cjAAJPUdqsaBr2j67pKatpGoQ3dk4OJkyAMdc55H40MRl+HPAPhPw9qM2oaRpCwXEqlWLTySqqnqEV2IQeygCjQ/APhPRNafWdM0hYb193zmeR1TPXYjMVTPfaBUnh3xx4T8Q6lc6do2t213dW2fNjUMMYOCQSAGHuM0mh+OPCeta3Po2la3b3WoQZ8yFQwPHXBIAbHsTTQyO28AeErfxGfEMOjquolzJv8+Qxhz1YRbtgPuFzXTiuct/HXhK48TN4ah1y2fVVJU24DdR1AbG0n2zmukpagApaBRTAKKKKACiiigAooooAKKKKACiiigAooooAKKKKACiiigAooooAKKKKACiiigAooooAKKKKACiiigAooooAKKKKACiiigAooooAKKKKACiiigAooooAKKKKACiiigAooooAKKKKACiiigAooooAKKKKACiiigAooooAKKKKACiiigAooooAKKKKACiiigAooooAKKKKACiig9KAENUda1Sw0bSrnVNTuUtrO2QvLK/RQP556Y9auOwVSzHAHJJryiHzvit4vFxuI8C6JP+6APGrXanqf+mKc/wC8SDkY5ALkfxs8IOqvHpPjJ0YBlZfDF8QQehH7qnf8Ls8K/wDQG8af+Evff/Gq9KHQAcD2p1AHmf8Awuzwr/0BvGn/AIS19/8AGqP+F2eFf+gN40/8Ja+/+NV6ZRQB5n/wuzwr/wBAbxp/4S19/wDGqT/hdfhTr/Y/jTP/AGK99/8AGq9NooA8E8Q+I/hXrmsS6peeH/H8dxMoW4FrouqQR3IHaVEQLJ6fMDXKaJqHgW48W+JdS1zw348gtbm7RrOO10bUoYpYlzgPHGgDDpwwr6mpGpbA9TwnxH4p+FuvTwS3Xh3x3bPBEIFax0LUrXdEP+WbeVGNyf7JyPar1r4++G9rqtlqdr4Z8Yw3Fjata2xj8NX4VIj1G3ysc+uM13fxd8SzeEvh5quu280EU8EQEbzfdDMcDjueeneuU+GF/quoahaajoPjz/hMtGlt2GqLcyxb7WfaCgi2IuBkkEHJGBzTWoM5S61b4RzxKqeHPiBaSLPNOJ7PR9Ugn3SndIPMRA20nHy5x04qzfeJPhTdaJZaZ/wjfju1SxLG3mtNB1KC5QtncfOSMPk5OeecnNdR4A8U+L7/AMfeLrPxRa2+nRadbwSW9lBcCdYwUY7i4AyTjpXMfDvxVJd6rZ33iHxX46tpLm8nEMdzawx6ZNiVtkSP5e4/KFH3s5oTBqxYg8YfC+C00m1j8MeNEj0m6F5alfDmo7vOAI3ufLy5553ZzVO/8QfCi81qTVpfDnj9ZZZVnmt4tE1OO2mkHIZ4VQRuc88g881ZTxN4qXwfB8VW8RXLWkl582jbU+yi23lcA7d/mZHXdj2qzfa54p1TSvEXjyw8SXdlbaLfzQW2losZt54oJCshlyu4sQCRhhg+tNpoCOTxp8MW0/XrA+GvGpttfJbUEHh3UQJMoIzj938nyqB8uOlcf8UNa8Eavpm3Q/C3jV7q6ubRb0nQL9d1vCHC4zHwRvPI5r6Q0O+/tLR7HUQCi3VvHMF9AyhsfrWhSlqEXoeI+FPHHw58LtcS6bofj157jAkuLvQtSuZmUdF8ySMtt9s4roR8avCij/kD+NP/AAl77/41XptFAkjzP/hdnhX/AKA3jT/wlr7/AONUf8Ls8K/9Abxp/wCEtff/ABqvTKKBnmf/AAuzwr/0BvGn/hLX3/xqk/4XX4VP/MF8af8AhL33/wAar02igDwzxL460T4geO/BXhK2sNchtZtQkvrldR0u4slc2yrIigyqokGeqjPHWu3+OGpX+lfDbUbvTLprWVSil0fbJsLAMI/9vHTHPpTvjDpOqXOk6f4g0GAXGr6DdrexQbctcRDHmwr/ALTqNoqLUl0X4reBba50bVREVmS6t5NoYwTpnCyJ3xkgqaTBbnM/BfVYbjx5rOmaJfa9JoUVlFKIddec3QnJXLKLj95swSM9M9KtfE7VLPwZ8W/CviiYXCwajaXVhqKWlo9zPOqBWhxHGrOwRncnAON3Nb/hzwvq1n4om8YeMNc0691BLL7HE1natawRRbt7FgzuS2R1zj2rlfDPifRPHvx1jv7a+T7J4fsJU0gnj7c8xKzyx5++gEarkdw1U2JK1zof+Fx+Df8Anz8Wn/uVNR/+MUf8Lk8G/wDPn4t/8JTUf/jFeiL0paQzzr/hcng3/nz8W/8AhKaj/wDGKP8Ahcng3/nz8W/+EpqP/wAYr0WigDzr/hcng3/nz8W/+EpqP/xij/hcfg3/AJ8/Fv8A4Smo/wDxivRaKAPOj8Y/B2f+PTxb/wCEpqP/AMYrz3XtY8H6hquotYa54+0rSdZlEutabb+EL0revtCsfNMHmREoqL8hHTPWvoZqiaRQQrSqrHoCcH8qTA8iHxA8Irr8+pR3njyOCSx+yLZr4Z1EQxdP3ijyfv8AvWBoXiTw9B4lstb8SeJvH/iI6YH/ALMhn8G3kC2xdShYmO3BkO04+fPr15r34E46/maA2ScMCR1GelNb6CtpY8+/4XH4Pz/x6eLf/CV1H/4zR/wuPwd/z5+Lf/CV1H/4zXoYpR1oGed/8Lk8G/8APn4t/wDCU1H/AOMUf8Lk8G/8+fi3/wAJTUf/AIxXotFAHnX/AAuTwb/z5+Lf/CU1H/4xR/wuTwb/AM+fi3/wlNR/+MV6LRQB50fjJ4O/59PFv/hKaj/8YqbT/ix4Uv7+2sYLbxQJriVYozL4av40DMcDczQhVGT1JAHU139Nbp1xSewHjesW/i6x+PszaLH4du4Nb01Y51ujMXtoYWJydo4L+YQB0O2pfjP4G8O2/wAIZ7O1hvYLbStr2sEV7KsasZF+8obDgdg2QPSuv8R/DfwX4k1o61rGii41BohE063M0bbBnA+RwMcmtRPC+gp4Y/4RkaeraSVCm2eR2BAIOCxJY8gHrSewPVnmvjg6hNrXw0tNANsNdSFp7f7exFqUEA3hsfMWwDjbyDWb4e/tS1+HHxJsZFT+347+aW8a1z9nLuFz5XcDaDkHn1r1rxF4T8OeINKg0vVtLjurW3AEK72RowBgbWUhhwMdaseHvD2jeH9K/snSLCO3tDktGCzbiepYsSW/E1alZCSPEvirsTwZ4D/4RNUF4NNuPs32fr9n+wyZxjtnH4471pasIV8IfC86H5P2/wC0xeQY/vbcDz+nbOd3616Z4c8C+E/D2pT6ho2jQ2t1OCsj73fgnJChmIUewApNE8C+E9D1ubWtK0WG3v5d26UO7Yz12qzFVz7AUluU3c8fQwD9njw20AX+2f7ThKf89Ptm8+Z77tu7NfQw6muZtvAfhK38SN4jh0SFdULF/ODvgMerBM7QfcDNdKv1zQ3cmw8UUCigYUUUUAFFFFABRRRQAUUUUAFFFFABRRRQAUUUUAFFFFABRRRQAUUUUAFFFFABRRRQAUUUUAFFFFABRRRQAUUUUAFFFFABRRRQAUUUUAFFFFABRRRQAUUUUAFFFFABRRRQAUUUUAFFFITigBaKY8qRxmRyERRlixwAPU1xsnxT8EebLHa6wuoiJzHI9jG1wisOqlkBGaAO1orC8L+L/DfidZf7B1i0vpICBPDHIDJCT2dOqn61thgRxQA6ikLVT1TVdN0u3Fxqd9bWMJcIJLiURqWJwFye5PSgC7RXNr4+8DtbxXC+MNAMM0phikGoRbXkHVQd3J9qu614n8OaG9umta9pmmtcnEAu7pIjL/u7iM/hQBr0Vj634n8O6KsDavrmm6f9o/1H2q6SLzv93cRn8K57wX8RbPxPcWa29j9niuop5A0t3HuAiZVPyZ3EHdnI4HfrQtXYDuaKx9G8VeGtavZ7HR9f0vULq3z58NrdpK8XOPmCkkc+tN1rxDDpes6bp8scZW9EhMr3KR+WEAydrHLde3TvQBtUVg2HjTwjf3TWtj4n0W6uEh89oob6N2EeM7yAc7cc56VkeC/iZ4X8S+GbvxAupWVlZ2dzJBcPNdx7Y9rEBmYHADAAjPYigOlztaKyYPE3h2fSY9Wh1zTZNOkbbHdpdIYmPoHzjNV7zxp4Qs4LW4u/FGi28N4xW2klvo1Wcg4IQk/NzxxQBvUVj634p8N6GIDrWvaXpouP9Qbu6SIS/wC7uIz+FZFp8QvD918Q5PBUN5bNfLai4VhcoQ+f4AM5Jxz+FAXOvopFOaUnFABRXOeOPGmi+Drawm1ddQlbULr7Jaw2NlLdTSy7GfCpGpY/KjHp2rnv+FveH/8AoXfHf/hJ3/8A8aoA9EpG6dM155/wt7w//wBC747/APCUvv8A41XO/ET40xWnhS7l0Dw34zS724a6uPDF5HFZx/xzuWjAIRctj2oA1PHuoXvjnxBJ8OPDl7Lb2kW0+I9RgbBghP8Ay7ow6SuM5x90EHvXomj6fZaTplrpem20drZ20YjhhjXCogHAFYXwv8PaP4f8G2UGjSNcRXai8mvHz5l3JIAxlcnkk5GAegAHauqVcUAGKWiigAooooAKKKKACkalpCKAMXxnb6xeeFdRtNBazTUpoGjga6JESsRjLYBPf0rmfhtp3jrRLSw0XVtJ8MW+mWsJUy2V/NLMzHnIRolHJJ/irv8AbSbDzzxQgZxmmeFtSt/iD4n8QtdQR2+rWkENuYyTJE0aFSxBAHU5GCawrnwn458QSaZpPiq70V9I029ju/tVtK5ursxPujDIUCp0GSGNeobT7YoKdu1APU8kj+HnikaZF4Je60o+D4bzzxP5rm8eLO7ySm3bjJ+9uz7VLqPgPxZGNZ8O6PdaSvhrWrx7q4lnkcXNv5j7pURApVgxJGSwxnpXqwjx0PegJ70XYFbTbWGwsLayh/1VvCkKZ/uqMD+VXKYI+c5/SnjpQxJWQUUUUDCiiigAoNFFACFRXDeIvhh4d1LWpNdsJtR8P6rKQZ7vSLk2z3GOnm7fvjk9fWu6NIRQB57L8LNP1K4WTxH4h8Q67bjH+hXd832V/wDej6MfrWz4x8D6H4k0ODS5IWsJLLDafd2Z8qaxcfdaJh93FdRtoK++KAPNfDHjDXPDWpR+FviVJAtxI/l6drka7La/HYP/AM8pfUHg9ia9JDfnWf4j0PS/EOjXGka1ZQ3tlOu14pBkexHow6gjkHpXnltf678LZotP1o3mt+D2dY7TUQDLc2G4gKk2Ms6Z/j7D7x4oA9VU0tcYPib4IB/5DkOe3ynn6U7/AIWd4I/6DsH5GgDsaK47/hZ3gj/oOwfkaP8AhZ3gj/oOwfkaAOvb0rwjUfDOkeJ7P4geKNbiF1rWnahJDpl8f9dpiRwxsiwv1QhmZ+O7V6Ofib4I/wCg7D+Rrz/X/wDhAdS1fUJrX4gX+l6Xq8gl1jS7VU8q+faFZi7KZIyVVVPlsv3fXNKSugPW9Dkk1LwzayTvIkk9sN7oxDgleoPY+9cZ8OdJtNG+JHiy0tDM5KWzSzTyGSWZvKQb3Y8s2O9Qr4r8ER+Ip9Yg8ZXEPmWX2SO1BzBD0xIqkY3cVznhe70TRvFsviC5+Mmrao1xj7VbT2VokcwUYUEpCGGAB0I6Umm3oKN0tT3BenpThXG/8LM8Ef8AQdg/I0o+Jvgj/oOwfkaoZ2VFcd/ws7wR/wBB2D8jR/ws7wR/0HYPyNAHY0Vx3/CzvBH/AEHYPyNH/CzvBH/Qdg/I0AdjTTjFcefid4I/6DsP5Gp7D4g+EdQvIrG01iGWeZgkaAH5jSYEnirxv4W8Kzw2+uasttNKNyRpDJK2PUiNWKj3OBWjPr+jwaB/b8mowDSzGJBc7sptPQ8c85ry/WbTxbZfH6V9Ck8O3EWt6asd3HdRyu9vDCxILbTwX8xgO3y1P8afBHhq3+Elxb21pcQ2+lbZLSKK8lVI2Mi5yobDDngNkDtQ9rgega/4t8P6DpUGqarqS29rc7fIYRu7SA8jaigseCO1WPD/AIg0bX9HGraTfR3NlzmTBXbjqGDAFSPQgVxWt3ek6bbeEtT/ALJudZ8SJZBNJs4SQWLRDexz8qjHVj0rOuPDOvaL8LvGd9dNEutay8l9LBbZ8qAttBRfXABye9NWEtUdr4d8d+E/EOpXGnaPrMVzcwBi6mORAQDglSygOPdSRRofjzwlrety6Npesxz30Wd0flSIGx12syhXx/sk15H8VdsvgrwGvhTZ9s/s64NsLcci3+wSg4x2zj8cd60dWa3fwn8L/wCwmi+3faYfI2D5goA8/p75zQkU1ZHpVv488J3PiRvDkOsxNqisUMXluFLjqokK7CfYHNdOvSvnmLyv+Gd/DcUW3+2RqcKqMfvfte87/fdt3Z9q+hhQ0ShRS0DpRQMKKKKACiiigAooooAKKKKACiiigAooooAKKKKACiiigAooooAKKKKACiiigAooooAKKKKACiiigAoyKKQ9aADI9aWvOLzxJ4s13x9qug+DxpcWn6LHHHfXV2HJN04D+UgAIIEbISfUkVdFr8VMD/iZeGun92T/AOIoA7qiuF+y/FT/AKCfhr/viT/4ij7L8VP+gn4a/wC+JP8A4igDuqK4X7L8VP8AoJ+Gv++JP/iKPsvxU/6Cfhr/AL4k/wDiKAO6orhfsvxU/wCgn4a/74k/+Io+y/FT/oJ+Gv8AviT/AOIoA7qiuF+y/FT/AKCfhr/viT/4ij7L8VP+gn4a/wC+JP8A4igDuqK4X7L8VP8AoJ+Gv++JP/iKPsvxU/6Cfhr/AL4k/wDiKAO6orhfsvxU/wCgn4a/74k/+Io+y/FT/oJ+Gv8AviT/AOIoA7qiuF+y/FT/AKCfhr/viT/4ij7L8VP+gn4a/wC+JP8A4igDuqK4X7L8VP8AoJ+Gv++JP/iKPsvxU/6Cfhr/AL4k/wDiKAO6orhfsvxU/wCgn4a/74k/+Io+y/FT/oJ+Gv8AviT/AOIoA7qmtmuH+y/FT/oJ+Gv++JP/AIig2vxUyP8AiZ+Gv++JP/iKAMPX7dviZ47vvDE0xHhLQSqapHDKVa+u2Ab7O+OiKpRjg878cYrU1jxj4U8I3kmh2Ph++uxYQq92NKsFkSzjI4aU5GBgE9zwazfgKt5Z33jvTdaEA1dfEb3Fw0JOyZXt4Asig9FO0r9VNZ/jLxLp0nibWvC2gal4d0G4mCrreqX93FG+GUgLGhOXfBYZIwPWlfVIOh0Hi3wfpXjDSbPxT4TuYdO16GP7VpGqWw2hmIyqygffjb7rA84JwRW58M/E0nivwfaavcWjWd580N5bNwYpkOGH9R7EVc8Fafpuk+FdM03R7lLmxtrdY4Z0cOJQB97cODnrXlvwqt/Gl1H4o1jwxqGjLo2p+Ibm7s/tIclkKRqSCFIxlD+RpsXQ9r3cV5n+0LZpfeHdBtZoTPDL4isFkj2k5UzLnOO1av2X4pY/5Cfhr/viT/4ik+y/FI/8xPw0D/uSH8fuUlvdjPPtV0PTv+En+KrLpMICabaeTiDgEiTJUYxngZx6CuVkk1Kxu5Jdf17SdLg1PQ7KOx/tLRXvWuF+zIHSIiRdrbs8Ede9e1m1+KeAP7T8Nk/7knP/AI5QLX4pdf7R8NA+uyT/AOJprQXmea6ALHwZrcM3xCuGu7K68PxW+n3N3ZEAuJJS0QTLbW2snfpjmud+GKzWUmkTW+j3MyxeHdV2WrqVYr5sGEJ+le2/ZfikMf8AEy8Ne/yyf/EU1bT4o/e/tLw1/wB8Sf8AxFClaVwaPIfAOqRz/EfwHdJqmmy2ixTQSRafpb2sdpIYCFgkcsxkcEgZOMnmvQPjFHI3jvwkQjuFgv8AOFJ/gj6+laerXXxA0m2+06p4k8H2MBO3zLp2iUn0yygVZgi+Jk0Kzw6x4YkjdQyvGrsrD1BC80PW3kNaXZ5r4b0m2sfAvwbmtdOSGeS7TznWLDsrW0hYMeuCccGufiF1b6DpbW15Y6XaaT4kvzq73WnNPFbM7kwtLECu5eVIOcCvXn1Dx0urDSZPFPgtNRYZW0Mx84j2Tbu/Sr/2X4pZz/aXhv8A74k6f98027j5tLHjeo6Wb7wVqd42pW+s6ZqevWZQ2elPZ2zEb95jUyOSDkZPHStLx5bzaD8QvEMN/rGiaHpd7axQ6ZHfaI96J4/KAaOHbIgRt3buec16l9l+KWR/xMvDXv8AJJ/8RSi1+KQGBqXhocf3JP8A4ip6sR4/qlsvhmTSpNU8RR2Go/2KsKy61o7TWl8nmSMIkQPmJwGAPJ4K10vwtmhg+JmlPqGhw6BcXvhqNbaz8s4DKVyqkjIwPU5ruha/FIHjUvDWO3ySfl9yg2vxSx/yE/DX/fEn/wARVcwrHcp0ofp61w4tfin/AA6l4a/74k/+IoNr8VMf8hLw1/3xJ/8AEUhlP4r5/wCE0+GHXP8Awk0nP/cPu69CkkWNGkkcKgGSSeAK8c8Yw+Mo/iD8ND4iu9JmtT4ik2C0Dht/2C6xnKjjGf0r0nx5a3d94J1uz08n7XPYyxw4ODvKED9aTbSAw9F+Jmh6trFrY29prEdteSNFZajLabbS7cdo5M5PfGQOhq/8W8/8Km8X8nP9hXv/AKIevG/A0yaZZ+Bf7A8Uahqmsz3a2+p6TNeNJHDFht58gnEG07cHA617L8XP+STeMP8AsBX3/oh6rohFz4df8iB4c/7BVr/6KWt6sH4df8k+8Of9gq1/9FLW9SGFFFFABRRRQAUUUUAFFFFABRRRQAUUUUAFFFFABRRRQAUUUUAFFFFABRRRQAUUUUAFFFFAAaY8ayJtdQynqCMin0UAVRY2eR/oVvjt+6X/AAp32Gy/587f/v0v+FWKKAK/2Gy/587f/v0v+FH2Gy/587f/AL9L/hViigCsbGy/587f/v2v+FN+x2PX7Hbf9+1/wqy/NeP63rnj3U7jxTr2g63babp3hu7NvDpstkkqakUjSRmeUgvGDv2/L02570m0k2wPWPsVj/z523/fpf8ACj7FZZ/487b/AL9r/hVOK/a68OHUrRfne1MsYAzg7cjj615l8IfFWoaz4i+y6v8AEK8vbxomdtGu/Dn9n7GBORHKyL5u3/ZJ4GTxR1sK91c9ZFjZf8+dv/37X/ClFjZf8+dv/wB+1/wqcdPelFMZB9hsv+fO3/79L/hR9hsv+fO3/wC/S/4VYooAr/YbL/nzt/8Av0v+FH2Gy/587f8A79L/AIVYooArmxssf8edv/36X/ChbO1UhktYVYdCIwCKnNKaAOQ8S/DbwT4k1Y6trnh22vL5kEbTs7htozgfKRxyfzrTi8LaDF4b/wCEcTTIf7J27TancVIznHJz1APWtug9aAOW8R+AfCHiT7Idc0G3vGs4vKtizMpiTGNoKkcVc8LeFNA8L2E1joOlxWNvM26SNWZgx99xNbtA60g2Ob8PeB/Cnh/ULjUNG0K1sru5z5siZJOTk4ycAZ9MUaJ4H8KaLrdxrelaHa2mo3GfMnTOTnrgE4H4V0ho4oA5q38DeE7fxM3iaHQbVNXckm5AOcnqcZwD74rpB9KU0ooYAOlFFFMAooooAKKKKACiiigAooooAKKKKACiiigAooooAKKKKACiiigAooooAKKKKACiiigAooooAKKKKAA9K574g+IovCvg/UddlZC0EeIUY4EkzMEjX8XZR+NdAc4rzTxTu8X/ABY0vwwq79L8PqNU1IhsB5yNsELDHKkOz/VBQBu/Cfw/N4e8GW0V+uNVu2a91Fict58pLspPfbu2D2UV1y/rRgHmlAwKACiiigAooooAKKKKACiiigAooooAKKKKACiiigAooooAKKKKACmt606gjNAHnvj7w54htvEMHjjwQYn1iGIQX+mzOFi1OAEkJu/gkXLbW6c8g1jjxh4G1K6uG8R/D+/stTiIW4F94f3lm/2JCmJB7ivWsU1kVuqgn3FAHkt/rHiXxxpUnhvwJoV34a0iWNoJdYv7Q23lJyCIITgtnsw4Gc1c+GHiH/hHZLX4c+JtLh0LUrVdmnvD/wAeuox8/NEx6PnlkySMg969P2j6D0rF8Y+GNH8VaO+l6zaiaEncjg7ZIn7OjdQR60AbK9BmnV5bo3iTXfAeqxeHfHlx9t0qaTy9K8Q4wHz0iuR/A46b8kNjJxmvT0kDKGVlZWGVYHIIoAfRRRQAnekfocU7vSMBjFJgeY63aWuu/HO00nW7WG80620I3NvbXCh4jK0rIzFTwTtqb4JyzQ+Fdcso2drXTdVuYLLLbsRBVZQPbJauk8Y+DdN8TSWtxPd6jp17a5EN7p1x5M6KRgruweDk8Umn+C9H0600i10+S9tYNKkaWNIp8CZm6mXj5804/DYbPBfDa6tH4Jh8ba/oehXdm+sh7l9sg1MO04UMswbAQMw+THTivp2FhJGJB91gCM+hrif+FXeGzrTX/nan9la6+2Npf2r/AEEz5z5nlY+9nnr1ruAMUX0ExaKKKACiiigApH6UtBGaAPOfitn/AITT4Y9P+Rmkz/4L7uvRcCsXxh4R8NeMNPh0/wAT6NaatawyiaKO5TcEkAI3D3wxH41y3/Cj/hJ/0IOi/wDfo/40AdrbaPpNrfS39rpdjBdy/wCsnjt0WR/95gMmsT4u/wDJKPF4B/5gV7/6IesX/hR/wl/6ELRv+/R/xrivir8E/BGl2Vr4o8PeBtLuRpbl77TCreXd2x/1nyg8uoJYeu3HegD1r4c/8iB4d5/5hVr/AOiVrfrI8JahpOqeG9Pv9BaNtMkgUWwQYCoBgLjttxjHbFawPNAC0UUUAFFFFACNwKoa3qlro+k3eq3zNHa2kTTTMq7iEUEnjvwKvt0rm/iXZ3epfD/X9PsYHnu7nT5ooY0xl2KEBRn1oGjN8MfEzwx4g1K3sLNtQt2uoTPaS3lk8EVygGWMbtw+B1x0pdH+JfhnVtXh022bUEW5cx2l5NZulpdOP4YpT8rngng9jXH634P1vUrb4e2MdjNbpZ6ZPb30i4H2VmgRRk565B6VBZ6V4o1fRPC/gm68LXmmNol3HLd6m5T7Myxhh+4YEsSdw6qvGaI6toUtNj1Dxb4l07wvpyXupNcyebIIoYbaEzTTOf4UReWP0rFX4meGG8PSa15l8gjuhZtZNaOLwXBAIi8n724gjjGeapfGeHxJNa6S2iw6xLZJdE6iNHdVvvL2nb5TMQB82M89M15r4f8ACfivSdSu9cXw1rMxsddTU4re4mSSa7gdFVgGzhpV2ZwcDnrRHW4bHdaL8WrC713xML6NrHR9Hitivn27x3fmSDmN4yc53YAAANUr/wCL7Sa1rFrY2r6fa6doL6jIdU0+aOeKUM2N0WQxTaAeME561zup+HPF/iXxD4m8TJ4Vu9NDS2N1ZWl26K915IIZWCkgNgnAyRnHNO8Y6d4u8Zav4n1eDwTqumRXPhWSwto7ryxNLPuc7SFYgdeOacNdytOaxvxfFy7l1PxTZNZvaxaPp1vdwXkumTeUxfO4v833T8u0Agn5uTiumvvib4f014obr7fdyrBHLeS2NjJLDaBgDulYZ8oc5+btXAax4Y8Tj/hMrKPw/qE39r+HrKO1mjCbPNhLbozlshvnGOMcHmrmnab4n8KWWv6QnhLUNY/t+3T7NcW5QpA7RbGSfcwKhS38IbgUdSX0O2134neGNK1MaWf7S1C7azS9WPTrJ7ktAxIDjZ1HBJ9BS6l8TfC9nY6ddQSajqi39ubmFNOs3uZBCMZkZUGVUZGSa5r4eeD9Z8P+OXa8tZJrWLwxBZi6GCjzCWVmRT143AdOmK4vRvDfjmx0DRtI1DSfE6WS6a8KQaPPHEyTselyxPMZH93NLbQdluerN45+2eLPClno5trnStchmla4IO8bEZgBzgHK4II9a7lPxrw74beGPElje+A/t+hXloNJW9ivGdlIjLCQKcg8qcjB68jgV7hHim7IhN3H0UUUigooooAKKKKACiiigAopCea5Dxn46ttD1G20PTbGbWtfuz+6sLYjKr1LyN0RQMnJ59qAOworhf8AhJPH3fwJB+Go/wD2FL/wknj3/oRIf/Bj/wDYUAdzRXDf8JJ49/6ESH/wY/8A2FH/AAknj3/oRIf/AAY//YUAdu3UV5HrPh/x1p8/ibQNB0m0v9N8SXbXEepzXixjTN8aRsrRfelA2bvlIzux2rpD4k8e/wDQiQ/+DH/7Ck/4SPx5/wBCHD/4Mf8A7Ck/wBbl+KPxVpt3NYafYafLpVtpw+ySPIRLJcDHyNzwpGecccVz1jYeL/F3jHQNb8T+F4fDUOgPLNCg1GO7e4eSIxkAoBtAB79a0v8AhIvHn/Qhw/8Agx/+woPiPx5/0IcP/gx/+wpolKyO5H0xSjrXDDxJ49/6ESH/AMGP/wBhR/wknj7/AKESH/wY/wD2FBR3VFcN/wAJJ49/6ESH/wAGP/2FH/CSePf+hEh/8GP/ANhQB3NFcN/wknj3/oRIf/Bj/wDYUf8ACSePf+hEh/8ABj/9hQB3Jpp6Vw58SePf+hEh/wDBl/8AYVY03XvGc9/DDe+DY7W2dwJJhfbig9cbeaAJPFfjzRPDmorp9xHqd9eCLzpINOsnuXij7O4QHavB5Poag1X4keGbGx027gkvdVGpRGa1h0y1e6lkiA5fYmSFHGT71w/iGPVdO+PrtpXjPSNPXVNOU6lDdWSOYYomPljJkXJcu/Pbb0rob+TwnZ6g2meGbzSPDmt/YGNnqj2ySwCEupdVy6hucZGfftU3SVx9bG5dfELwzF4bsteiuLm7gvpDFbQWtu0txK4OGQRL825TnI7VpeHfFGka9oT6zY3DpbRFlnFwhjeBl5ZZFPKsPQ14Z8NZorDWvBt5qOyOxt7zU7b7c3EM87Fz5oJwFDFsD8s966KCG51bw58UrrRCXt7u8cWrxj5ZGUDzGX1BGOaqyE/isd34a+I3hvXr/wCx2rX9uWjaa3lvbR4IrqNerxO3Ei45yOMc07QPiN4b1vXF0m0a/ill3i1mubR4oLop97yZDxJj2ryn4lzweJfCfgnT/CMyT36WFxIEg5eGL7DIpVgPu8kLg9zWlf3tlq/hr4baVoU8DalFcwuYo+XhWMATFwOV5B69aErjkrK56FbfEjw1ceIRoySXwLTm3jvGtHFnJMOsazfdLYB4z2rsVOfWvneG4tpPgL4e8NQSJ/wkK6hDbtbf8tluFfLkr1Hyg/NX0SO9NpJkpi0tAopDCiiigAooooAKKKKACiiigAooooAKKKKACiiigAooooAKKKKACiiigAooooAKKKKACiiigAoopr54xQBm+JtasvD/AIev9b1CVYbSyhaWV2IAAHufwrlvgtouoWHhaXWtcjK63r9w2pXytgtAZDuWDI6iMHaKofE1W8VeNNB8AQgPZrINU1o5yBAh/dwsO4lO/wD74r0rBxwMDtQA4dKKBRQAUUUUAFFFFABRRRQAUUUUAFFFFABRRRQAUUUUAFFFFABRRRQAUUUUAFFFFABSFcntS0UAU9U02y1TTp9P1K1hvLS4QpLDKoZHHoRXmMI134S3DI0l1rngIksCd013pAPUHq0kPp1ZenQCvWWpjRh0ZHVWVhghhkEehFAEWmahZanYQ3+nXUV3azqGiliYMrA+hFWN3NeW6j4Y1j4e6nc+IfAdq97pFw/mal4e3HAP8Utsf4XPdeQeMAV2/g7xLo/izRE1bRLoTwMWR1Iw8MinDRuv8LAggj1FAG5QaReF5paAExRilooASlFFFABRRRQAUUUUAFFFFABRRRQAGmng06msD+FAHlVtu+GXj5LNYlj8FeIp/wByVGF02/Y8qfSOUkY/2txPWvVRjPrWT4t8P6b4m8P3uhaxB59leRmORejD0YHsR2Irk/hRrmpw3d74F8Uu513RwPJuW4XUbXok6/7XZh2JHrQB6JRQKKACiiigAPSo8YqSmd+lDAQhu3P4Up4//VXzi+LHxK/ijUln1a2OsiJNc07VSlxb5fH2d7Ugqy8YOMHHeq1pY6VN4M8X+KZdWuv+Ei07XpksX+2uGg/eJtjCZwQwJ6g1Kelx21Ppcde9IM+h/KvnWNf7a8FeKfGnia8ntfGOlvJ9lVbll+xugzEixghWDEL1BzmrUOjR+LPEXi278SPetPa6NaTxRJdSRrBMUYlwFI54Ht7VSV1clM+gPvD5fzAoHXjqK+aJm1DxRpWjatf+V4kaDw7BcXNj/ajWE9oxQE3EZHEjHGcEYroNAXRvHviOOy8SXeoto9pocM+mw3d00LtzteZmTbuYYI9OM4pLVDeh7sqnsTj6UMdqliDgDOfQV84eE47vxj4o8JWGvalqMlkNMvmUpOyG6jjePy3fGM9T0x0o08rpWvReItTjn1GK51d4Y9d07Vj5uWYqsMlqwI2jODjB4zVWDqe++Gtc0zxHpKaro9w9xZu8kYkMbJlkYqwwwB+8pGam0nU7XVBc/ZVuB9mnaCTzbd4vnXrjcBuHP3hkH1r5x8M6NaaP8PND8YWMlzFrMninyPOFw+0RPeOrRhM7cED0zyeaIFh1XxtaaXrGp3K2F14s1GKaP7UyLKuEIjyDkD2FNK9xtWsfTR46nt6U9Oc15r8H1Nj4h8XaDp0skmgadexJYF5TJ5ZaMNJGGOSQGJ6k16TH06YqSeo+iiigYUUUUAITigMD0zWT4w8Qab4X8P3euatKY7S2Qs20ZZz2VR3Y9AK4ey0Hxp4xCav4m8Q33hmxc+ZBpGlsit5Z6CeR1bcfZQuKGB6du9jSbuehrzi9+H+swSLqHhP4ha3a3sSkLBePHc2cx7eagUMf+AsK57T9f8efEDV7rwLfWq+EptNRf7cuoJQ8twjZC/ZsjhGAPzHOOR25AOi8UeNNU1rWZvCfw5EV1qUbGPUNVYBrXTfUE9HlB/gGcdxW/wCAPBem+E7KTyZJb7U7o77/AFK5O6e7c9SzHovoo4AwAMCtLwv4e0nwxokGjaHYx2dlAoConJY92Ynlj6kkk1qqCKADb8wO48CnUUUAFFFBoARsAc1kxeJPDsmuv4fj1/Sn1hAS2nreRm5UAA5Medw4IPTvWhfPJHayvEMyKhKDHU44rwjQtI0j/hTnh3XIYIZ9U/tsTrfEZnkl+1SDBkGGPTbgnGABik3uxNnvE88NvBJcXEscMMalpJJGCqijqSTwBWf4f8ReH/ENvJceH9c0vV4Ym2ySWN3HOqHGcEoSAcVNqlrYahp0trqMcc1sQDKjtgYHPzflXBeANNsb74j6r4u0C0hsdD+wLpsYhg8tLyVJNzTKBgEDlM4z8vWhasdz0sUo60iUo60dQFooopgFFFFACGk7UppD0pdQMHWvB/hLW7w3mseF9D1K5wFM13p8UzkDtuZScU688I+E7vTbfTbrwzos9hbf6i2lsImiiP8AsoVwPwFZvizx9o/h3VP7Ley1bU75YRPNBplmbh4Ij0eQA/KpwefY1au/G3hu28HR+LJNSj/sqSNZI5V5LbiAAB3OT0o0VgZo3eh6Ld6Ouj3Wj6fcaaoCizktkaEAdAEIx+lWbCxstPs0sbCzgtLWJdscEEYREX0CrwKxPEfjHSdC0uwvp4r66fUdv2O0tIDLcTZAbCoOTgHJ9Kk8M+LNH1/RLjWLSSWGG1d47qO5j8qS2dQCySKfusOOKBdi7pPh/QdJvbi80vRNMsLm5Ja4ltrVI3mJOcsygFj9aTTvD+g6dqc+padoemWd7cn9/cwWqRyyf7zAZb8a5/w38R/DuvagLSFNRsRJE09tPfWphiu415LwsT84wM59KXw98RvD+ua1HpdvDqcBuN/2O4urUxQXmzhvJcnD4pvcZ0Efh/QItYfWodE01NVcbXvVtEE7D3kA3frWmvSuKtfiX4duNfTSVXUVjkuDaxag1qRZSzDrGsucFuDxXar/AJ9qAHClpBS0AFFFFABRRRQAUUUUAFFFFABRRRQAUUUUAFFFFABRRRQAUUUUAFFFFABRRRQAUUUUAFFFFABVXVLy103TrjUL6ZYbW2iaWaRjgKijJJ+gFWHrzn4wyXGuXmi/Dyxf5tan8zUWBGYrKM7pAwPVZNpi/wCBUAO+CdleXdlqfjjVonj1HxHdGeONx81var8sUWe44Z/+2lejDpUFtDDbQR20CBIYUEaKBwqgYAH0FT0AFFFFABRRRQAUUUUAFFFFABRRRQAUUUUAFFFFABRRRQAUUUUAFFFFABRRRQAUUUUAFFFFABRRRQA39K4DxZ4JvLTW5fGPgWWHT9ffBu7Z+LbU1AxslA6Njo+CRgV6DSGgDkfh9440/wAWQ3Ft5E+ma1Yt5eoaXdgCe3b1xnDIeoYEj6HIrrU/KuP8e+CbfX7mLWtLum0fxJaJ/ompwgbh6JIOkif7LZxk461U8DeObi71V/CfjCyXRvFEI+WPP7i/Qf8ALWBjwwPUrkle9AHe0UzPIFLmgB1FR8+vPrmgZ6f1oAkopimnUALRSCigBaKbSH60APoqP5gQe1OpXAdQaSgUwEeuK+Kfhe+1e1s9d8PTG28SaNIZ7GQHHnL/ABwP6o47HjcFPau3ooA8wg+J+veRH5vwc8epJtG9UjsyoOOQD9oGR74FSD4o61/0R/4gf9+rP/5Ir0uigDzT/haOtf8ARH/iB/36sv8A5Io/4WjrX/RH/iB/36sv/kivS6KAPNP+Foa1/wBEf+IH/fqy/wDkikPxQ1rr/wAKf+IB/wC2Vn/8kV6ZRQB4o2taW3iH/hIz+z54s/tgNuF79isfODY67vtGc1zPw/D6Nc32p658CPE97q8mqz3lteLbWTyRRuRtG4zggjHavpGigDxfUfEGn6nr0Gu6h+z/AOLbrVIMeVeS2di0qY6YY3GeKujxxILm8uh8D/G3n3qBLqT7NZbplXOAx+0cjk8e9et0UAeH6lqWi6pb2VvqP7O3ii6hsEEdoktjYMIFHQKPtHA4qzr/AIhsfEFtbW2ufAHxdqMVp/x7x3FnYuIsDA25uOK9nooQHksfjaRL22v0+B3jVbq2haCCUW1jujjOMop+0cA4HHtWdFrelx+IX8Qx/s++K01eQkterZWIlJPUlvtGea9rooA8dHiyFdMi0xfgP4x+xQT/AGmK3+yWPlpKGLbwPtHDbiTn1Ncn4ukk1zxJol0vwK8UnS7e4nuNQtpbWyxcPIB823z8M2RySRX0dRQB5JonjibQ9Oj03R/gf42sLOP7kNvb2KIv0AuKvj4oa1/0R/4gf9+rL/5Ir0yigDzT/haOtf8ARH/iB/36sv8A5Io/4WjrX/RH/iB/36sv/kivS6KAPNP+Fo61/wBEf+IH/fqy/wDkikPxR1r/AKI/8QP+/Vn/APJFemUGgDw/X/Fd54y+Ingfw3q3gXxDoVhJfS3ztqywBJZLZFki2+XI/Ibk5x7ZrsPjnHqEvgUrarM9qLqM6jHD/rHtud6qO/8ADwO2as/F3RdY1DQ7TVPDaiTXNGukvrSFiB9pCnLwZPC7wNue1MsNU8P/ABT8HyRWGpXNrKrDz443MV3YTqeVdDyrA9mHPpSYzivhHqmhj4uano/gmxksvDDaQlz5ItngjE4kVSyo4BHGQeOTzWr8Vb668O/FbwZr2maTeatPc297aXNhY+X9puYwqMhXzGVSqFmJyw+9xXU6FoGn+DodR1/XfEM9/dSqDeatqbRxbIlHCnaFRFGB0A9a4Hwv4v0Xxn8dbXUrppLK3stPkj8Mm6ieIagZDieWJmwrjCoABkjGehFUSdV/wsbxB/0R/wAd/nYf/JNH/CxvEH/RH/Hn52H/AMlV6HSikM87/wCFjeIP+iP+PPzsP/kqj/hY3iD/AKI/48/Ow/8AkqvRaKAPOv8AhY3iD/oj/jz87D/5Ko/4WN4g/wCiP+PPzsP/AJKr0WigDzlviL4gP/NH/Hf52H/yTXFWdvHa+IotWj+EfxNaGGf7Vb6Y97ZmwgnzkSpB9p2q4OWBHIJJ717xIcew9a82074pG91C3uY/CuoHwvd3v2G21xZkZJJd2wfuR+8Vd4YbyMDGaAeiucvqzHU9M8Q6fN8IviVDF4gkEl80F5ZI5IOfkYXPyj6UzwXLqfhW6jms/AXxlvYoohDHbahrFrcQIoGAAjXOBgV7PrN7Jp+l3F5DZzXska5S3hHzyN0Cj0+vQda53wR4uv8AW9RvtI13w5ceHdXtUWU2kt1Hcb4mxhw8fy9eMdeKI+QmkZY+IviAD/kj/jv87D/5Jpf+FjeIP+iP+O/zsP8A5Jr0JacOtAzzv/hY3iD/AKI/48/Ow/8Akqj/AIWN4g/6I/48/Ow/+Sq9FooA86/4WN4g/wCiP+PPzsP/AJKo/wCFjeIP+iP+PPzsP/kqvRaKAPOv+FjeIP8Aoj/jz87D/wCSqm07x7rl1f29rJ8KfGtpHNKsbXE32LZECcF223BOB1OATgcA139JQB4f4o+1aX8fi+nePdL0hdS08NqcN1awkRRxE+UAXcZLlpOe22tf4zaB4OvvhHe3lppWk3MNkqyWUsUaMsTGVcshHAzntXoWreFfDGrXP2rVvDmj39wQF825so5Xx6ZYE1ai0nS4dNGlw6bZR2AGBapAoiA9NmMfpSkrqwdTyD4htNJqHw5ittUh8PzpbmWPWp1DxwfuRmMq2FbcBj5iOtU/C1nf3Pw2+IemW9yNVvWvZZDq0IGy/ZgpJUDgYC4wCRz1r2vUdJ0vUrEWOo6bZXloMYguIFkjGOnykYqTTrCx02zSz0+ytrO2QYSGCJY0UeygYFUnYXY8A+I9zb+L/C3g3S/CM6XGoR2E8jxwEF7eP7FIu1wPuEsQuD3NaN7f2eu+Hfh1oug3cMmqwXMLyxRkF7dYgBLvA5TkHrjNez6bomi6bdT3Wm6Pp9lcXBzPLb2yRvKeuWKgE/jRY6HotjfzX9jo+n2t5P8A664htkSST/eYDJ/GkVJtqx4JFdWk/wADvD/hC3mT/hJEv4bdrMEefHMj7ncr1AwD83TmvokD5u9Uo9D0WPVm1ePR9PTUnGGu1tkEzD0L43frWhinJ3dyUrCLxS0UUhhRRRQAUUUUAFFFFABRRRQAUUUUAFFFFABRRRQAUUUUAFFFFABRRmjNABRRmk3UALRRmjNABRRmkzQAy4kjhieaVgkcalnY9AAMk15x8Io5vEWt678RL2PaupTNZ6WjLgxWULbAc9xIymQezCrHxs1S8bR7Dwlosm3VPEl0LJH2hvIgwWllYH+Hauz6uK7XQ9NstH0mz0rT4VgtLOBIII1GAqKoUD8hQBdCjiloooAKKKKACiiigAooooAKKKKACiiigAooooAKKKKACiiigAooooAKKKKACiiigAooooAKKKKACiiigAooooATaK5/xv4S0fxbpYsdTjdZEbzLa6iO2a3kHR0bsa6GkIyaAPMvD/i7WvCuuQeEPiGA4lOzS/ECrtgvR2jlH/LOYDryQ3XjOB6UT0PUH9RVTXdH03XNJuNK1ezhvbK4XbLDKuQwrzO0utd+E8xs9du7vW/BBI+z6k+6S50sE/cm6s8Y4w4yRyDgAUmBmal4v1iz1TxKst9fzx2/iC0tLWKO4WLYr5ymdp+UnGePxrmpvHXxSFsu2xtGj/4S9LMSnV8M6+aoFuV8rhCOC2cjPQ12938PdQ1eXU9SsNW0yW21TWbTU7eRXZ1aKPkjIGCTnjHFQ33w18VC2vIbG80VvL8RRa1p5maUbtrqzRy4XgcEDbmiO6uQr2DTfiDqOk6t4pt7wvqd42vCw0qyknWONGKZ2eYR8qDB+bB7cV2PgLxlN4gvtS0nU9Nh03VtOZPPhhuxcxMrDKskgC5GCM8DBri/EPwjvNUu9U1C5OiX1xNrI1K0tb2JpbZxtwYpgVPHuAeldR8MPBbeGTf3l1pXhnTbq8YD7PodoIoY0HYvtVnJIycjincuxjeJvitq2l6l4nhsvB4vbHw0Va+umv8AysxlA2UXYdzc/dyPrVmx+KU0F9JD4n8PHRopNNbU7KRLvzjLCpVSHXavlvl1+XLfWm6z8PtUvLT4gwR31ireJlxaFt2Iv3ar+849Qemab4r+GM3iPVLJr28txYRaDNpk68lzIzxOrAYwVzHyD60uhStcLH4rSQXNv/wlGiW2kWV7ay3VlPDqK3LMkcZkKyIFXy22DOMnnjNc/wCJfH/jK61DwdMdDk0PS9U1VBHNBfCVriHB+SVSg8vPBGCat+HfhCBJ9n1vQPA9hbJZy2vnaRp4Fzc74ym92ZF2HBzhSefanTeAfiBfzeG7HUdW8P8A9l+H7xZomhEvn3KAEDeCu1WAxwDg96rSwofFqXPDfjrWz4B0K90rRn1e6vld2k1PVFhSNV/vTeXyTxgBK7L4deLIPGXhiLWobZrYmSSGWEtv2OjFWAbjcMqcHAyK82Hwl16DS/DUDnw1rX9lW8kM1lqqyPabmYETxjacyKAQMgdTzXb/AAf8J6p4N8MzaNqVxYzqLuWaB7UMo2OxfBBAAwSQAOMAULZknb0tNUcU6pQwooopgFFFFABRRRQAUUUUAFFFFABRRRQAUUUUAFFFFABRRRQAUUUUAFFFFABRRRQAhXNcn4m+HXhTX9UTV7qwa31RAQt7auYpQD15HB/EGutooA4MfCjwlNd291q0d7rTWr74F1C5Mixt6hRgH8c1ueLvCuh+JtFGlalZAxRkNbtCNklu4+60ZH3SO1dAaaVoA8t0fxVr3gbV4fDXxBkN5ps8mzS/EaLhJPSK5H8EmP4s4bB4Feoo4ZVZSGVhkEHIIqvqunWWqadPp2o2sN3aTrtlhlUMrD0INeZRx6/8KZ3CC/1/wOzFkjRWnvNKz/CBy0sWegGSo4AwKAPV1JNLXmI+OHgfd/qfE/8A4Td9/wDGqX/hePgj/n38Uf8AhNX3/wAaoA9NorzL/hePgj/n38Uf+E1ff/GqP+F4+CP+eHij/wAJq+/+NUAej3sZmtpYg20uhUN6ZHWvBNC1yyuPB2jfDcpIvi2DVMXOmLGS9tGJ3YzMeAE2MrE5P3uhrsz8cPBH/PDxR/4Td9/8apB8bvBA48jxRj0/4Rq+/wDjNJq9wstzobzxho8lh4hjkfUbSLR/3F5cJDtKbuN8Z5zjrnH4VwvwSvNOn8d6x/wi+tXvinRZLGOS61y+/eTtdhgohMuFBAjCnaEGOua2f+F3+B8/8e/ij/wm77/4zR/wu/wR/wA8PFH/AITd9/8AGacXYSXc9NHtSivMh8cPA4/5d/FH/hNX3/xml/4Xh4I/59/FH/hN33/xqgZ6bRXmX/C8fBH/AD7+KP8Awmr7/wCNUf8AC8fBH/Pv4o/8Jq+/+NUAem0V5l/wvHwR/wA+/ij/AMJq+/8AjVH/AAvHwR/z7+KP/Cavv/jVAHptJXmf/C8PA/8Azw8UD/uW77/41V3Q/i54R1rVrfS7KHxCLi4fZGZ9Cu4kz7u8YVfxIpMDvctnpSBiT0+nvXiPjvxFZ3fxdvPDPiLX/E+k2K2UX9lLpKXcXmzkt5hZ4Vy+0eX6qM1qfEp/iN4f+ES/ZtX0uW/tkVb7UC0iTMm9QGjwuN5B5zjvQ3pcD1vJPAoDV554kstR1XRfD8154jl0jw7FZrNqtxHetbXEjeWNmJQQVG7k885rB8IeJNW0r4ZeK9YF3e6lp2n3Eg0W7vizzTQfKAzM3zOATwx600C2PYSTwcHFBJ69q8H8Q6jrHw10zQfEo13VNXk1W1m/tCK9u3miMwtnmV4kYkRjcoGFwMVbhn1XwrbeEfFkviDV9Rk1yeOPUbW4uXlgPnYKmKMnEe3P8IGaErg1ZHtxbH+NKDXgVtqGt2/gPSfis3iDVZb68u45Liya6kNobeR9vlLDnapGQdwGeK98FNqwkx1FFFIYUUUUAFFFFABRRRQAUUUUAFFFFABRRRQAUUUUAFFFFABSMcdaWsTx5II/BuryG9lsQLSTNzEm54uPvADqRSY0bIIPQj86AV4+YfnXy/pSWehWt5aDTNOS6vdEuGj1PQ9SaWO7wFO+5iKjY/ocnqRTlhsNH8GeDNZ+G8kc/i2704m7aKUvJcgW2WEw9iOM45AoaEldn08SPUUgxnqPzr580+20LT7XwbrPhOZZfFGo36pqLpJumuI2z53njqACAOQKxrXSdP0/4cweM7ZGXXovE/lxX5kO9I2uQhjB/u7SRim1oC1Z9O5HqKMj1/WvmrUVs7HxZc+JLm3sdfI1kIt/b37W+r2reYAIhEVIeP8AEZFJt0uT4f3Xi2abb8R0vgqSGQ/axJvAEIXrs2k9sdaW4PRn0vmmt+XvXj/w00Wz1H4t+M9b1GN5dQ068t1twZCUgZ4PmKr64JH0NdZ8YddvtI8JGz0WZY9c1iVdP01iM7JZOBIR3Vc5NU1YSZlfD4v4t+IWv+NpV3WNi7aPo4KkfKrZnlB6EOwjwf8AZNelJn0xWV4N0Gy8MeF9O0DT0CW1jAsKAew5P51r0hhRRRQAUUUUAFFFFABRRRQAUUUUAFFFFABRRRQAUUUUAFFFFABRRRQAUUUUAFFFFABRRRQAUUUUAFFFFABRRRQAUUUUAB6VDcQR3EMkE8aSxSDDo6hlYHqCDwamooA8pudE1v4Y3kup+Ere41TwrNIZL7RAS8tln70lr3Iz1jOf9nAFegeF9f0nxLocGs6LexXlnMDtdD0IOGVh2YEEEdiDWm3GT146V5x4j8E6loOt3HjL4e+XDqM2H1HR3fba6lgdf9iXHG7BzgCgDb+LutS+HvAmoatDNdwvDsw9qUEgy6jgurL37iuZvfitd282sm38H3l3p+hSrHqN59sRNiEZLquMvgckCl1rUrf4ufDHVNJ8Pt9h1cOkd1Yaj+6ls5FcMVkAz6HBGQfWh/AGtt4b8e6d5tj53iFibMmRtq/u9vznbxz6ZoS0dxXdyhbfEjVbT4j+JH1W1dfCtjo1vfQuJ42Kq+4hggG4l/u7c8bc966Cw+IV9HeyWXiPwpcaJO9jLfWIN4k4uUjGWUlR8jcjg8/lXNax8LNa1O51G0ml0/8As7U/D1rp80vmMXhngDYITbh0JbnJB9qPC3wuntrq6u5vCPg/QJ10+a2t2013meSR1wHLsq+WB6ANnPXinZIDY0n4qzaj4bsdWTwjfRTaq6x6TaSXCh7xioZsnHyKvPzHggZpLr4sCxs5LW/8NzW3iNb1LMaU94m0u4+VvPxt2nB5x2rP1v4WXWpfDzwhpl3aaTqmoeHEXNpdOwtbo+XsZS4GQO4O089qpwfC7U7XQblrHwx4Ls57q4Q3OjoHNrPEoOEacruJ5JB2cZ6Unbcp7Fn4gePPGlro2jz2Phe70q9fWI7W5iluo9kiHPCOVw6nH3h0r12BnkhRpI/KkKgsm7O09xnvivFrf4X+JLXwsbezTSrSddYi1G10dbuRrO2RMhkSUpu53Z+51GK9rg8wxI0yqspUF1VsgHuAe496SW5F3ckBoFAoHWmULRRRQAUUUUAFFFFABRRRQAUUUUAFFFFABRRRQAUUUUAFFFFABRRRQAUUUUAFFFFABRRRQAUUUUAIaD+NLRQA0bs9TTqKKACiiigAooooAKKKKACiiigAooooAKKKKAENJk+9OpDSA888V+F/HF14+t/E2g61oEcVraNb21vqFjNL5Rf77ApIvXC/lWr4i8O634i+HtzoOrX9gNSuUCvcW8DrCCGB4QsW7etddRQwPNvHPgXxHrC+HotN1PRjaaVEFms9StJZYLiQKFDsqOucYBAJIre03Q9bv/C97oni+XRZ1uIzCg0q1kgjSPHAw7tyPbiuqFFAI8w0/wCGur372Fp4y1uz1XStJtpLfT4be2aKQh4jFvmYsQzbGPQAZ7VLovw91xb7SbfXtds77RNDcvp0EVsyTMf4TMxYhtoxjaF6c5r0r8aMUwPLrT4aaxGLTQJ9ctJPCFleC6gtBbsLk4ztjaTdtKAnOAoPHWvUV9cYzQKWldvcQoopB1NLTGFFFFABRRRQAUUUUAFFFFABRRRQAUUUUAFFFFABRRRQAUjqrIVZQwI5BHFLSGgDlNW8E6Gvh7WLHw/ouj6RdajbPC09vZpEWJHVigBIpfAHg3SPCuiafDb6TpMOpw2UNvdXlraJG87IgUktgMQSM811J6ZrgPiT4m8T6b4r8N+HfDEOmGfWGmV5L1WIiCRs27AIz06d6EwOssfDvh6x1ObVLHQdLtb+fPnXMNpGksmeu5wMn8TUjaLo5svsR0mwNr5vneT9nTZ5md2/bjG7POeua8h8QfFbW9E8SGC51bwxOkV/HaTaTBG7Xe1hzKZN+1Oc/KVP1rol8UeONc1fVbjwrDox0rSb77E9tcxu092yttk2uGAjxzjKtmkCO2fw34bk1oa3J4f0ltUBBF61nGZwf+umN3605/Dvh9tZGttoemHVR0vTaJ54/wC2mN3614vr/wAcJLe+1S8tdc8MWltpUpjfR7pXa9u9oG/Y4YKhzkAFWyR717jpl5HfWFveQ/6ueJZFz7jOKOgr6hb2NnbXE9xbWlvBNcsGneOMK0rAYBYjlj9a890Jm8YfF/UNcYq2keFkOn2Xyn5rt1DTyAnggI0agjupro/ih4hk8N+C72+tOb+Xba6euM7riUiOM47gMwJ9gawk8G6hovwOuPCei4fVZLGTdI0/k7rmTLu285wNzHHXgCiTshpHY6X4j8P6tezWWla9pd/dQf66G2u45ZI/95VJI/GrovLb7d9i+0xfafL83yd48zZnG7b1xnjNeTfB7SV8SaPofiG98LReG5tMUfZJrG9WT7aCpVvMAQHbnB5JOe9Q6Fpc+g/HfxVJDqup6rczeHPtCPeyK7RnzeI02qAFHGBVJB3PU4Nf0OfWX0aHXNNl1JBmSyS6QzqPUpncPyom1/Q49Zj0abW9Oj1OQZSze6RZ3HXIjzuP5V4clpY2fwY8K+I7OOP+221ZJRdAjzppWlkBUt1IOAMewqQWVjd/CDxN4hvI421pddlf7WSPOjlW5UKit1UDO3HoaS1uJ6Htuo+IND0++g0/UNc06zvbn/UW890kcsv+6rEFvwpdX1/RNGaFdY1rTtOM52wi7ukiMh9F3EZ7dK8Y060tNd8IfEnVvEUUUmqIMGSXBktQtpGy7D1Tn5uO5qx8OreHxNrPiKfxTbRXVxDodokaXCBvKjYS5Zc9Cdo5HPApR10B6anuKMGG4NkHGDnin1w/wMuLi5+F2itcSNLti8uOR2yXjU4Qk9+AK7inawwooooAKKKKACiiigAooooAKKKKACiiigAooooAKKKKACiiigAooooAKKKKACiiigAooooAKKKKACiiigAwPSmN+Xv6U+kxQBw/jvwQdUv4/Enhu8Gj+KLdQI71V+S4UdIp1H3054znbk46ml8A+Ov7avrjw74gsToniiz/AOPixc5SZe0sDdJEI54JI6HBrt8cVzXjrwdpfiyyiF00trfWzeZZahbHbPav2ZT39CDkEGgDoe/OPeuN8Z+Jdeg8S2XhXwpZ6fc6vcW0l3JJfs4ghiQqPm2fNuJYY/Gszwl4y1fR9ai8HfESKK21Nzt07VYxttdTXsBn7ko43Jk9j3wHeMo9R8P/ABJsvGdro2oaxYvp0tjdQ2EPmzoxZGRgndflIJ7ZFLqB0Pw98SyeKNBe6ubYWt9bTyW15AD8qSoxU7T12nGR7EVg+LPiN/ZXxG8P+D9PsVvHvrgR385zttQ33RkcFjg8duM9arfD2LWNB0rzL3Rb4XviLUp7hljiLiwDElDN6cYyPXiuO1fwD8SdM1nw79l1rR9UxrZu57tdGl3oxx+8mPnfMMADjb0pq3UXQ97HUcd81JUUW/au4gtjkgYBqUdKNBoKKKKACiiigAooooAKKKKACiiigAooooAKKKKACiiigAooooAKKKKACiiigAooooAKKKKACiiigAooooAKKQnFIWI/h/KgB1FNBNOoAKKKKAEbPavKtd8eeMjqGv3/AIb0bSbnQfDdx5F+t3LIl1dsqK7/AGcj5ANrqAX7g16o/bjNeL6p/wAJFoP/AAl/heHwtq2pz6/evcaTd2kGbSNZIkQC4l6RkMjE8Hgg1Mr293cNT2Cyuo7yxhuomxHKgkU57EVxGieOdS1X4lSaHDY2w0I27m3uyzedNKjFXwOmwMpX1yPSpNUtfEFzpt14H0u3k0/GlqIdblTzIN+VDRlAQTkbujCuT0Hwp8StL+Iugm41Tw5NpNlp/kM9pos0SLGCfkBadsOR3P5Gk7uasT9m/U9np3pTR3pRVFC0UUUwCiiigANIaD9KTJ64pMBe1IelcP4k8canbeJrnw/4Z8MHXr2ytkub7fei2SJGJCgEq25jtb5eOlUP+FnT6nFpMHhTwzNq+p39q929pPc/ZRbRoQrb3KsN25gMY5zRYGejilNecR/FGO+0TSJdF0Ka+1rVJ5reHTHuBFseEkS7pNpAVdp5xzWx4c8cWmoeHdT1TU7N9KuNIkeHUbVpPMMMigEgMANwORg4GaLNoR11FecaT8TpfPtJPE3hx9A0/UreS4066a7E3nIkZkIdQo8ttilsZPSpND+JF1d6npq6t4ZfStK1dmXTL5rwSGYjpvjCgx7u3JzTHY9DxRXm1r8UpJ7i21B/DkkXha7u/sltrH2sEu/OGMO3IQ4OG3V6T60NWBCiloFFABRRRQAUUUUAFFFFABRRRQAUUUUAFFFFABRRRQAUUUUAFIaWigBCOtc5rfhWPVPGOg+JGvGifRzMVhEYIl8xChye2M5rpKKAPJr74O3U2nXWjweMbi20h737db2q2KFoZs5+aTdmRfY1qX3w1vn1O8fTfF13pumalcLc6jZRWykzSg5YpJnMYY9QBzmvRaKAPPD8OL+0vLqHQvFt1pOh3kgluNPjtVZ92AG8uYndHnHYdzXexR+XGqZJCgAEnJqY9KwvHXiC28L+E9R1y6batrESgxnc54UY78kcUCscfdL/AMJl8aIbcMH0nwennSqCcPfyoQqkYwyrG7HrwwFd7relw6xpF1plzJMkN1E0UjQyGNwCOzDkH3rnPhD4duvD3gy3XUmDavfyPqGptyf9JmO91GedqliAOwArshSauM4jwr8NdM8N3Fo+n694pkgs/wDU2lzrEstuBjGPLPGOelb8fhvTY/Fc3idVk/tKa0Fm7eYdnlhtw+XpnPetmimBxdh8M/DVlr6avCL7EUxuIbJrpjZwyn/lokP3Vb3FF98NfDd54hfWJVvgJJxcTWKXbLZyzDkSPD91mzzn1rtKKAON8RfDfw7rusvqd59viafb9rgtrpooLwL0E0Y4k4AHPYVJ4o+Hug+IL2K8mfULGdIRbu+n3bW5miHSOTb95R6H1NddRQBV0ywtdNsbexsYY4LW3jEcMaDARAMAD8KtUUUAFFFFABRRRQAUUUUAFFFFABRRRQAUUUUAFFFFABRRRQAUUUUAFFFFABRRRQAUUUUAFFFFABRRRQAUUUUAFFFFABTWUkdadRQBkeKPDuleJtGn0fW7OK7tJh8yuOVPZlPYjsa8/wBP1rXvhrfLpPjK7m1XwxK4TT9eKlpLYnpFcjrgdBJznvivV6rX1pb31pLZ3lvHc20qlZIpEDK6nsQeooAfFJHPCs0MqSROoZHUhlYEcEHoQaevPQ/WvKmsNb+FM0txpKXeteB2YvNYDMlxpQPJMX8TxZ52cle2AAK9I8P6vpmvaTb6to99b31jcJuingcMrDvyOOOmOxzSsBdCkNnNPoopgFFFFABRRRQAUUUUAFFFFABRRRQAUUUUAFFFFABRRRQAUUUUAFFFFABRRRQAUUUUAFFFFAATSFgKRvzrD8T+LvDHhoxLr2vafp0sxAhjnnVXkPoqk5P4UAbu4Ubh71yOl/EjwPqmrRaTbeJ9MGoT/wCptZJwksv+4pOW/CtzxDrGm6BpM+qaxeRWdnAMvLIwA9gPUn0pXAvXE0MMLzTSJFEgLO7sAqgdSSegrzGXxFr/AMRr37H4Gu30vw5BPtu9eMfzXO0/NHbKcEgkYMnHcjPGYbex1z4s/wCk69aXuieCt+6301i0Vzqag8PP0aOM8EJwT0bNeoWVpb2NnDZ2dtFb20KhIoYkCpGoGAABwBTA44eAtQySPHniXP8A19N/jS/8IHqX/Q+eJP8AwJP+Nduue9OoA4b/AIQLUv8AofPEn/gSf8aP+EC1L/ofPEn/AIEn/Gu5ooA4VvAepf8AQ+eJf/Ak/wCNIfAeo/8AQ+eJP/Ak/wCNdy1eO6vqfjnV5PFniDR/E0mk2vh27a3stNS2ilhvtkaSFp2ZTINxcrhGXhQaTdlcFudT/wAIJqOP+R78Sf8AgSf8aP8AhBNRx/yPfiTH/Xyf8a6rTrttR0aG8h2q88AddwO0EjjI9M15l4I1/Un+JbaPZePz41tTDI2pxpFb+TpUis2FV4UB3bht2OSwHJ9ae7sTdKNzox4D1H/ofPEn/gSf8aUeA9S/6HzxJ/4En/Gu3X3pwpFHD/8ACB6l/wBD54k/8CT/AI0f8IHqX/Q+eJP/AAJP+NdzRTA4b/hA9S/6HzxJ/wCBJ/xo/wCED1L/AKHzxJ/4En/Gu5ooA4Y+AtS/6HzxJ/4En/Gp9M8G39nfw3UnjPX7pYn3NFLOSjj0IzXZHpTT900AeCfEVvDmmfHaDUL3XPFmkK9hnUZbJroxTEH9zGvlIwwD5hI6fMK6zxd440W8sFttSbXtP8O6lbFrfWNPiuI5i4Iym1E8xCeeSOa9O5yO3401S3/180gPnvwhDqHhaDwp4o1SyvY9BsZ72AOYGadIJS3lyyRqCxLFsk4J7kV0mkaJqHijwn491K2guLZPEExbT0mUxvJGgBV8Hld3PBwa9h5+9npRg+p49adxX1ufP/ifz/ifpPh/wzo1nfW95pdpO2pGe3eIW0n2Z4hHuYAMS7DlSRirsd03jC08HeELGzv7fUNFnil1QyW7xraiDAxvYBXLY42k+9e5845OaCCePyoXcbd0fPtr9puvh1o/woWyv08Q2d3FDcA27iOOKN9xm83GwqcAAA556V9CL3+ppp3Yx+We9OXpRJ3YrDqKOaKBhRRRQAUUUUAFFFFABRRRQAUUUUAFFFFABRRRQAUUUUAFFFFABRRRQAUUUGgBG6fjXmfi4/8ACX/FTSPCMTk6boSrq2qhW+9KcrbxMMYKt+9JH+ytd54j1ey0HQr7WtRl8u0sYHnmbHRVGT+PFcj8EdJ1C08MTa9riFdb8QXDaheruJEW77ka56KoHA/2jQB3o6+9OoAHpRQAUUUUAFFFFABRRRQAUUUUAFFFFABRRRQAUUUUAFFFFABRRRQAUUUUAFFFFABRRRQAUUUUAFFFFABRRRQAUUUUAFFFFABRRRQAUUUUAFFFFABRRRQAUd6KKAGPtOQec9vWvM9Y8I6t4O1q68WfDyHfFct5mp+Hy22G7Yf8tIf+ecvrwQcDp39PNNbA9jQBgeBvFujeMNJ/tHSJj+7dorm3lXZNbyDhkdexBroa4Txd4B/tDXT4i8L61N4X8ROoSe+t4ElW6QDAEsTfK+OxPI7Vm/8ACHfFj/osjf8AhO2v+FAHptFeZf8ACG/Fj/osjf8AhO2v+FH/AAhvxY/6LG3/AITtr/hQB6bRXmX/AAhvxY/6LG3/AITtr/hR/wAIb8WP+ixt/wCE7a/4UAem0V5l/wAIb8WP+ixt/wCE7a/4Uf8ACG/Fj/osbf8AhO2v+FAHptFeZf8ACG/Fj/osbf8AhO2v+FH/AAhvxY/6LG3/AITtr/hQB6bRXmX/AAhvxY/6LG3/AITtr/hR/wAIb8WP+ixt/wCE7a/4UAem0V5l/wAIb8WP+ixt/wCE7a/4Uf8ACG/Fj/osbf8AhO2v+FAHptFeZf8ACG/Fj/osbf8AhO2v+FH/AAhvxY/6LG3/AITtr/hQB6bRXmX/AAhvxY/6LG3/AITtr/hR/wAIb8WP+ixt/wCE7a/4UAem0V5l/wAIb8WP+ixt/wCE7a/4Uf8ACG/Fj/osbf8AhO2v+FAHptFeZf8ACG/Fj/osbf8AhO2v+FH/AAhvxY/6LG3/AITtr/hQB6bRXmX/AAhvxY/6LG3/AITtr/hR/wAIb8WP+ixt/wCE7a/4UAem0V5l/wAIb8WP+ixt/wCE7a/4Uf8ACG/Fj/osbf8AhO2v+FAHptBrzL/hDfix/wBFjb/wnbX/AAo/4Q74rg8/GNv/AAnbX/CgDd+KviS88O6DCNIgW41nUrmOw02NhlVmkO0SOP7i5BPtXN6Jp/g/wLq2l6frd3/bXi3XJxE95Ooknlk2lixBPyIMEDHrWFq+i+MdB+KHgTVPFvjr+39N+13FuI306K0WOaWNVi5j++S3AB/CtX4r6RpEHxK8BaxFptlFqc+trFLdrComkTynwpbqR7UfaQdGaPxO1fwOjy6Brnhm61vbD592LCyWT7HF/wA9JGBUoO/Ga5HwR4fth8SrTS/Emu3viTSPsa33hP7XIGjCAkuGGPnkj+XBPYgY4yddtW03wr4++IDeJLuC0GowQ3Fl57BftEawBCkefvNu42jn2rlrTR9amuPhRoljqdxomvx2mqXH25bVJzbQOVIVo3+X5wQBnkbTimloLsfRS9PT29KB1rzn/hDviaf+ax3X/hO2f+FH/CG/E7/osl1/4Ttn/hSGej0V5x/whvxN/wCiyXX/AITtn/hR/wAIb8Tf+iyXX/hO2f8AhQB6PRXnH/CG/E3/AKLJdf8AhO2f+FH/AAhvxN/6LJdf+E7Z/wCFAHoreteT6x4V8cWtz4k0Xw/Dpdxo/iW6NxJf3V0ySaaXRI2CwBT5wAQMPnTJYjtWn/wh3xNz/wAljuv/AAnbP/Cj/hDviZ/0WO5/8J2z/wAKTQXOis7TxFZaq9nbHTxocNgEtc5877QP73bZXI6V4e8Zax480XWvEGhaHoFvojTyB9PvTcPqDyRmP518tBGBndyX5496t/8ACHfEz/osdz/4Ttn/AIUv/CG/Ez/osdz/AOE7Z/4U09bitoeiDvThXnP/AAhvxM/6LHc/+E7Z/wCFH/CG/Ez/AKLHc/8AhO2f+FAHo9Fecf8ACG/E3/osl1/4Ttn/AIUf8Ib8Tf8Aosl1/wCE7Z/4UDPR6K84/wCEN+Jv/RZLr/wnbP8Awo/4Q34m/wDRY7r/AMJ2z/woA9HpDxXnP/CG/E3/AKLHdf8AhO2f+FTad4U+IkGoW0938WLm8to5Vaa3Og2iecgPKbgMrkcZHIpMCXxH401iPxTdeHfCvhuLWr2wtUub03F99mSNHLBQp2NuY7G4wO3NUNf+Lvh/RfAdn4mvYbiKa9AWDT5EKytJkBkPGAAT1PpXH/EOPw/Y/HO31K+uvGWnx/YS1/Np4vniuGB/cxjyFIAX5yV6fNXcfEu8HiT4Papd6Pb3k6XESeVG1tJHK48xf+WbAN+YoewPcueKPGlzpsGgW+l6RHqGs66M2tpJc+THwgdt0m1sYB/unOKd4Y8dQ6l4c1jUtVsf7LudFnkt9QgEvmrG6AE7HwNwORg4FcV8TrFprbwM+tQatF4ftIQ95caZHJ9rt5vKATHlDzVGcA7B65qPwT4bvNQ+GHjDRtLivE0q+uJH0iS+RkupgcEtJvw5JKgAvyaaEuh0Ol/Ey7jkspfFHh1NC03U7aS5065F55zOiRmTEi7F8tvLUnGW6YzUmh/EbULjUdMfWPDa6Xo+ssyaZfC7815CPu+ZHsHl7uMctXEeJ4L34maR4f8ADOm6ZqVldaVazHUmubaSFIJTavEI1dgBJ87DlSRjnNXIprnxfbeD/CMGmapaXuiTxS6pJNayRRweTgAK7ALJuxkbSevNHUqVlsdNafE+6klt9Vl8OrH4Tu7v7Jb6t9szIWOdrtDs4Q4xu3HnHFemD1xivn61ivrn4eaP8JxpeorrdndxQ3EhtpBAkMb7vOExGwg4AwGJ56V9AjrTkQOFFIKWkUFFFFABRRRQAUUUUAFFFFABRRRQAUUUUAFFFFABRRRQAUUUUAFFFFABSE80pNVtSu7ewsbi9u5PLt7eJpZWP8KqCSfyFAHnfxPkbxN418P/AA9tpcwu41TWdhBK20TZjRh3WR0KH2r0pVVQqKoVVGAPQV558F7W71K01Tx1qysl74huTLBExyILRPkhVf8AZZVEmPVzXooBoAWiiigAooooAKKKKACiiigAooooAKKKKACiiigAooooAKKKKACiiigAooooAKKKKACiiigAooooAKKKKACiiigAooooAKKKKACiiigAooooAKKKKACiiigAooooAKCM9aKKAE2jOaXFFFABRRRQAUUUUAFFFFABRRRQAUUUUAFFFFABRRRQAUUUUAFFFFABRRRQAUUUUAFFFFABQaKKAOf+IHhi08W+GbjRrmWS3disltdRY8y2mU5jlTPG5TgiuK0vxpf6G9vpPxN8Pyw3tqSYdatrUy2U4UY83fz5LEfwk5616owJPFNMe4EMFI9CM0dQPLtb+JPgjWILeTQ9Ek8bX25hZxWdiJ1SRf70pBEQyMFj0Nc9pzeOPBfi+4+IHjfTbe/stWto7e6/s/c76GiMxVNuSJI/nJZgAQc5OMAe4JDGn3ERP91QKcyblIYA5GCCM5FICtpl9Zalp8Goadcw3dnOgkhmifcjqehBHWrS4NeYan4Y1rwDqs/iHwKj3mjzEyal4dLfLnqZbbsj9cp0b1GMHs/BPirQ/F2ipq2h3YmhJKyxsNssDg4ZJFPKsDkEflkUwN3aKNopFYN606gBNoo2ilooAY3B6V5VrnjbxxNdeItU8N2WiHRPDdwbe5gvY5DcX7Kiu5hkDhIxhwAWVuQa9WfpXjerW3izRH8XeGbHwvqGq/8ACR3rXGm6hAUW0tlkiRMXDlg6kMjE7UbgipltpuNbnrFpefbNLjvbVQ/mw+ZGueCSMgZrhtD8R+MrP4gW3h3xTL4euY9QtnuLeLTIJUmtFUnmUvIwdTjbuUL81b+mzavp1/8A2FHojSadaaeGhvjMAJZRx5W3qPrXnvg7R7iT4kWGoeHPAGp+CbWOS4n8QS3Qijj1JnRgqqEdzJiQ78tt4568VS+IjXl8z2cdKcBTV6U4UDQbRRtFLRQMTaKNopaKAEwKTApT0pKAsAGO5/OjbznmuR8U+PtP0PWG0e30fWdbv4oBcXEGmQJI0ERJAZ97qADg9Mng06/+InhOy8FQ+LptSQabOitDyBJISQNoUnlsnkUugHWAfnSY965jxF4403RrTS5PsOo6heaqu6ysLONWuJRtDHhmCjAOTk1N4Z8ZaPr2i3mqRi4shYu8d7b3aBJbZ1GSrgEjOPQmgR0OPcn8aU1xHh74m6Hq19Hby2Oq6VFcQtcWV1fwrHDeRKNxeIhicbQW+YA47U7w/wDErR9Y1m308abq9jFelxYXt3AqW96VPzeWwYn/AL6Ap2GdqRxQBgVw1p8UNBuNZjslsdVSxmuTaQas8KCylmGfkV927PB6qB713INIVxRS0CimhhRRRQAUUUUAFFFFABRRRQAUUUUAFFFFABRRRQAUUUUAFFFFABRRRQAjV5v8ZrmfWLjR/h5p87x3Ouzh714yN0NlEd0jkH+FmCRn/rpXokzKiM7ttVQWJPQAd685+FEbeI/EOufEWdneG+c2OkKRxHZxnG9D6SkK/wCFAHolnbw2dtFaW0YjghRY40XoiqMAD2wKnpqkdO/pTqACiiigAooooAKKKKACiiigAooooAKKKKACiiigAooooAKKKKACiiigAooooAKKKKACiiigAooooAKKKKACiiigAooooAKKKKACiiigAooooAKKKKACiiigAooooAKKKKACiiigAooooAKKKKACiiigAooooAKKKKACiiigAooooAKKKKACiiigAooooAKKKKACiiigAooooAKKKKACiiigBpHtmuB8VeA7pdfk8YeB7qDR/EbjFysgP2TUFHQTov8AF/tgbuAM16BRQB5gsnx5HP2X4dZ/66XlO8349/8APr8Of+/l5XptFAHmXm/Hv/n1+HP/AH8vKPN+Pf8Az6/Dn/v5eV6bRQB5l5vx672vw6/7+XlIJPjxz/ovw6H/AAO8r049KTFJgeZeZ8eM/wDHr8OvY77ygyfHgjH2X4ddf+el5xXpooPWjYDzLzfj12tfh1/38vKXzfj3/wA+vw5/7+XlemdqBQB5n5vx7/59fhz/AN/Lyjzfj3/z6/Dn/v5eV6bRTA8y8349/wDPr8Of+/l5R5vx7/59fhz/AN/LyvTaKAPMTL8esf8AHr8Of+/l5V7Q5PjGdVtxrtt4GGnbv9INm915oX/Z3cZ+td+3SkbvS6geE+Mri10f4/B4fibb+Hvt2nhtUhuBaqojjJ8lFMo53FpMnqOK6L4wWPhHVfg9f6lp1jol7bW6LJZXEMMbpGxkXLRsBgE56jrXot3pGl3k3nXmm2dxJjBaW3R2P4kVKtpapaC0jtYFtwMeUsY2D/gPSlbQHueY+LfFumeGNP8ACsSDRIvEF5YqtldapcpBBbJ5Q3MzsQcHnheTUFpotndfCjxX/YXiWx8S6vqhe4vryxnjkVpjg7FCHAAAOB716ld6bp14FF5p1pchBhPNgV9o9sjinWFjZWMTxWdnb2sbHkQxKgP5DrVCWmh4F49vLXx94d8J6H4PuI7rU7SxnkuYoGBezH2OSPZIB/qyWYLtODzWhLqmn+J9F8AeG9BvIpdXsbmGS8giYGWzWEASeYBymcHGcZ7V7bbWFlazSTWtnbwSSHMjxRKpf6kDmiGws7e4kuLaytoppPvyxxKrN9SBk0J63KbuuU+f4L61uPg5oXw/t5oz4pivobeWwBHnxPG+5pGTqFwD8x45619Egcn61WWwslvDeJZ2q3LcGYRLvP8AwLrVpePWhu+pKVhwpaTvS0DCiiigAooooAKKKKACiiigAooooAKKKKACiiigAooooAKKKKACig0zd7UAcD8a9Tvv7DtfCmjTyQ6x4in+xW8kYBaCLjzZsEj5UBGf94V2Xh/S7DRNDstG0y3W3sbKFYLeIDhEUYUfkK4LwMq+LviRq/jiRjLp+nA6To2cFTjmeZD6OSi/9s69KTpQA6iiigAooooAKKKKACiiigAooooAKKKKACiiigAooooAKKKKACiiigAooooAKKKKACiiigAooooAKKKKACiiigAooooAKKKKACiiigAooooAKKKKACiiigAooooAKKKKACiiigAooooAKKKKACiiigAooooAKKKKACiiigBKKMn0zXK+L/H2geGL5bLUBqE9x5XnOllYyXJij/vvsB2r7nikG51NLmuS1j4heGtNh06QzXd8dShE9smn2r3TtFjPmFYwSF9zxXO+Evi3p994VGtavDJvuNQltbK2061knmnVMciNctkZ59KeuyCx6fRXkel/F1tRa8uI0tYbOLWxp8O61maWVNkjFdgOVl+TuMdRjJFL4M+LU3iBNNM9qmmvc6xc2JW5sJ0EiRk7djHgPgDdngHI7UDset0Vxmm/EvwrqGtR6Xb3F2pmlMNvdy2ciWlxIP4Y5iNjn2BNVU+LXg19RazWfUMJeNYy3J0+X7PFOH2bHlxtUluBk89qLNCWp3tH41xmt/Evwto+ty6VeTXpeCRY7m4ispJLa2ZgCBLKo2R8EH5iOCKk8PeKbvUviN4h8NyW9utppltazQSpnfIZQ5O7nGBtGMetFmB1/alFITSigAooooAKKKKACiiigAooooAKKKQnFAC0Um7nFLkeooAKKMj1FGR6igBG6VHK6pGWZgijksxwAPepCeDjmvP/AI83E8Pw9lgikeKO7uobW4kRtpWJ2w5z2470rgldnZabqmn6mjSabqFpeoh2sbedZAp9CVJqDUfEGh6bci31HXNMs5sbhHcXUcbEeuCc1wNnpun+GvjbpGm+HrO3sLPUNEne7trZAkbNG8QRyo43YYjPfNX/AIzQaHb6J9ok8P6Rf65fyx6fYS3VjHM6ySEKG+ZSdq53EegoYdTurC+s7+3FzY3kF3AcgSQyh1z9QcVZQ5GawvAnhrT/AAl4Xs9C06GKGGBPm2KFDOeWOB7/ANK3VwB1FO1hIdRRkeooyPUUDCijI9RRketAAelJQT9DSE/jQAED0pSKTdxz19KN3BpAG3jpxS4pN3FAbihLQAxRj15pAaUmgApRTd1LnmhgKOtLQKKYBRRRQAUUUUAFFFFABRRRQAUUUUAFFFFABRRRQAUUUUAFFFBoADXFfGDXbrR/B8trpLONa1aRdO07Yu5kllOzzMZGQgbefZa7Q9K8z06MeMfjHc6u26XSvCiG1sgyja17Iv72VT3wjFPqKAOy8E+HrPwv4T07w/YxqkFnCEwvdicu34sSfxrbFA6UUAFFFFABRRRQAUUUUAFFFFABRRRQAUUUUAFFFFABRRRQAUUUUAFFFFABRRRQAUUUUAFFFFABRRRQAUUUUAFFFFABRRRQAUUUUAFFFFABRRRQAUUUUAFFFFABRRRQAUUUUAFFFFABRRRQAUUUUAFFFFABRRRQAUUUUABpO1KaSkA09a8Z+KWn+LL7xjqNstr4ll0y408RWB0V0jiklKsHF0zZO3kYAHrXs+KaQfcH2oGnY8K8Ead4j8HP4e8QT+E9ZvwuhDSLqzgjVp4JUfIYKWA8s465zg9Ko+CvD/ijw1LpHi678J6hI1re34n0u1VXnWOcR7ZEUkA42nPIr6DA9cmk2nOepp3d7kvVHz/ZeHfFV/qL6nJ4WvbD7V4vj1AQuF3Jb+XL87YPHLKD7mmQ+EfE94mm6K+iana/ZvEOoyzXZVfKEU+5klVs5I+Ydhgg19CMG5x19cdabhs4x/8AroK5jxO30vxNqnhvw94Bk8L6hp82lXiTXWpuF+ybIy3zQuDlmO4cbR3psvhTxAfhF4g0saJcm/ufFD3UcO0b5IftyuJBz02DP0r3ABs+tG1sdqG7iTsrHzn8SdA8ca1B4n0ubS/FNzcTYawisnjTTZIxGoy+fmaXIIx7DmvR/AGl6pF8SfEWr3Wm3VpaXmnaekLzKF3MiyB14J5GRn612Wj63pesXeo2mnXP2ibTZ/s14uxl8uTaG25I54YHjPWp7XUrO41e60uNpTdWqI8wMLqoD524cja3Q9Ccd6pPQLF0U4Un504VIkFFFFAwooooAKKKKACgmikJoANwziuX8c+N9J8Km1tZUnvtVvn2WWnWq755z3IHZQOST6Vk+NfHNxDrK+EfBlmuseJpAd/P+j6eneSd+g9kGWPpgGrvgPwRb+HprjWNQuH1bxJeri91SYZcjOfLj/uRjsowO/WgCqvjTxHgH/hXutDPbcvFO/4TTxH/ANE91n/vpK7cA5p/PtQBwv8AwmniP/onus/99JR/wmviP/onutf99JXdc+1HPtQBwv8AwmniP/onus/99JWf4g13U9e0e50jVPhrrE9ncxmOVC68g+noa9JprukcbSSMEVRlmY4AHvSA8X0KxvtKW+f/AIRLxrf3l3b/AGY317exyXEUXZI2CgKO/Q9BV2d9QuJ/D0134G8U3MmgEm0Mlyh8ximzdLx8xxz255r0/SNX0jWInl0jVLHUI422u1rcLKFPoSpODTdY1rR9HSOTV9W0/TkkO1GurlIgx9AWIzTYkcr/AMJp4j/6J7rX/fSUv/CaeI/+ie6z/wB9JXaxyRzRrLE6SRuAyspyCPUGpBmgZw3/AAmniP8A6J7rP/fSUf8ACaeI/wDonus/99JXdc+1HPtQBwv/AAmniP8A6J7rP/fSUf8ACaeIv+ie61/30ld1z7Uc+1AHCnxp4ix/yT3Wv++kqxpnivXbzUIbWfwRqtpFIwV55GXag9TXYnOKYemMUAYPxB8SW/hLwfqXiCdVcWcJdULAb26Ac1h+HP8AhYZ0u7N34i8N61cTRA20ttZmBLSQkAhgJH80AEnqv3cd8it+0Jod14i+GOoaRYeE/wDhJby4IW3gzCvkP/z1zKwAx6g55rK0S/13QfDWq2/g/wCBt14fuEh863tvPsIobmUsBj91KeQCWy2B8pGcmj7I3sjV8G694m0/xvqnhPxjq2laqbXTY9TTUbSzNosaM7IY3Qu4yNpbO7oeneqvhrx1rd34n1mS+ht49Dj077bp0KxlZyg3fM7Z/ixwMcY6nNYuh6F4n8SeHtS0DWPDviLwzf6oVuL/AFq7ksrpJnGMw+Usr5jwAu0rgjryTU+n/Dzx0vje8n1TxrNqOmy6V9lLtpdrCsh5AjwnKgZByB7VLvzrsS/hutyx4a8V+Ooz4c8ReILnSX0PxFhhYR2jRT6arxmRN0u9hMRgKRtTrntiodO8ZePLi0svGssukp4cvNT+x/2O1qwuIYvNMXnG434J+Utt2DggZ70vhvSPGWoQeF/CmteG5bCz8PKq3uqvcxGK/wDLiMYMCIxcFmw3zquBnvxUGk6H42TSLD4e3Xh2QWdrqRnn143MQtprfzml2oit5u/a23lAMg5OKFfX8AfNddie98YeOrqPWPFejy6TDoGj6i1l/ZdzasZr5UcK0ouA2Iwd2QNjfdxnnNetWsyXFtFcR8pIgdT7EZryC40Xxvp9nrngqx8OyXtrq2qSXdtrX2mKO2tYXdW2SLuEpZQpHyqQSRzjNevWMC2tpFbJkrEgQE9wBimr3fYHcnFLSClpjCiiigAooooAKKKKACiiigAooooAKKKKACiiigAooooAKa/anUjUAcv8TvETeGPBV/qcCPLdlBDZxRruZ5nO1MDvgncfYGl+Gfhs+FPBGn6TK2+8Cme/lBJ8y5kJeZhnsXZse1czqcZ8Z/GazscB9G8JJ9snUjIe/kBWLB/2E83I9WFem4B7UAC9KWiigAooooAKKKKACiiigAooooAKKKKACiiigAooooAKKKKACiiigAooooAKKKKACiiigAooooAKKKKACiiigAooooAKKKKACiiigAooooAKKKKACiiigAooooAKKKKACiiigAooooAKKKKACiiigAopDVLWNUsdI0y51TUrpLWztYzJNLIcKqigC9RXA2vxY8L3VvFc28erPFKgdG+wuNykZB5FSf8AC0/Df/Pvq/8A4AvQB3VFcL/wtPw3/wA++r/+AL0f8LT8N/8APvq//gC9AHdU09a4b/hafhv/AJ99X/8AAJ6D8UvDX/Pvq/8A4BPSA86+J0NzN4w8QatOs2t2Gmxpv+waubO60gBQSwjyVlPOeVPXFUtFtdE8T3PjvV9S1zU3k08JPp5e9kia3JViG2KQCSQOCCPaux8Qa38Ldf1SHU9Z8KzX99DgRTTaYxdQDkc1zGkDwLJ4x17XvEnh/wDtE3V4txp7tYOzwqM8HjjqPWlG63Bsf4PV/Hl5KnxAvLu3ew0W1uLSNLp7cfPCrPc/IRuIYkYOQPSqfhVLzxz4g8I23ia71CS3l0i7aWOO4eEXASQrG7bCDnA7YrtPEviH4ZeJGtzr3hm41Jrb/UefpjNs+lXv+E28ER39vqQ0W+W7t4TBBMNOYNHH3QHsPaqlqB5Vpq6xr1tY6P8AaBr0OmXN/Cmiy6o9lNLFHIqpIJgwLFAcYOevNb3hm7sPGWqeHPDOoXWsr4fWzndYbu8KSz3McsimJpY9pYIFGMEZAGc10Oq6j8KdR08WWoeD5J7QTvcBJNKbb5rn5m+p71Y1XXvhnqegQaLqHha4udLt8CC2k0xjGmPQVVwRwtxJf6lDo/hsaxqA0mLxkdOtrqK4IklthHnZv/iGSRk5pNSsE0XWL7VZft+q6VpuoR28Wp6frTJc6YqyBRC0DFhL/dJIyRk16Eniv4fJaabbr4euxBpsgkskGmttgcdGT0PPWqt5q/wvv/ECeIbzwnNPqqEMt22lsXBXoc+oqOg3a5weo6PZ3ln8WPFn2i+S/wBNuvtGnvHcvEInFrEwkKqQGJ4yGBHHSqvj3VL6bV9aa41i7s45f7F82SOcpsDrNux6Z4r1B/F/w+e31OBtBu2h1Vi1+n9nNi5JUKd47naAPwrlPiXeeD/EOlx2+k6NJDcSXVu128ti6iaCIMAhIBzgMcD3NOb2HF2izpvCFnb+HPjBdeHvDs9zJo8ukC6uYZbl51hn8wAEM5JBZecZ75r1ROQDz+NeXeGfFnw68NW8kGgeH7vTYpW3OsGnMoY+prYHxS8Nf8++r/8AgC9NkLY7uiuF/wCFp+G/+ffV/wDwBej/AIWn4b/599X/APAF6QzuqK4X/hafhv8A599X/wDAF6Q/FLw3/wA++r/+AT0AdV4k1jTfD+i3es6xdR2lhaRGWaZzgKoGTXn9l/wsbx1btffb28D6NNzaJBEsmoOn8MjlwUTI/hK5HrWT4x8YaR4z8a+C/CUEN6LW7v5Lu4WeAxh/syrIqnPUE9RWn8RdZ8ZWHxM8G2NubOz8OXeprFI8VwxuJ28tzsdNuAnA/iOaFvYCc+EfiJodu1xoPxGu9cuFIb7Nr9vE0TjuoaFYypPQEkgZ6VkReOPGHjy9fwj4f0ubwvqNoANfvbwBjZAk4W3HSRmAyH5C8ZBrQ+OGteNNIfQ20ZrO10ibVbSG8uVuWF0d06DYqbdu0g4J3dM8VX+J+raX4H+LnhjxdfXMdjZajaXVhqkoid3lEYVoBtQFjhnk5xxmnYOh3ngvwto3hPSVsNHgIDHdPO5LzXDd2dzyxrfWvOB8cPhf/wBDK/8A4LLr/wCN0o+OHwvH/Myv/wCC26/+N0gPR6K84/4Xj8L/APoZX/8ABbdf/G6P+F4/C/8A6GV//Bbdf/G6APR6K84/4Xj8L/8AoZX/APBbdf8Axuj/AIXj8L/+hlf/AMFt1/8AG6APRmrz/wCPU00fw9khjd0huruG3umRtpWF2w5z24qH/heHwvP/ADMj/wDgtuv/AI3Wfrvxa+EOt6Rc6TqWvG4s7qMxyxtpt1yD/wBsqTAlhsbHQfjjo9joNrBZ217odw15BbqERikkQRyo4z8xGfen/ESPwxp/iz+1NWsp/Eur3dl9lsdDSET/AC7iS4XB2AnILnoM1y2g+LvgvpEN9t8aa5eXV5B9ma8vIruW4ji7IjmLKgf0FUr3X/g7c6lFqUPxI8XWN2loloZbRryMyRoBjd+55PGSe5pgz1P4P6FqnhzwFYaTrD5u497tGH3iEMxIjDd8CuxTpXk3h74t/C/RtLj08eNdT1AR/wDLe/tbuaZs+rGLmtMfHD4Yf9DI/wD4Lbr/AONUCR6PRXnH/C8fhf8A9DK//gtuv/jdH/C8fhf/ANDK/wD4Lbr/AON0DPR6K84/4Xj8L/8AoZX/APBbdf8Axuj/AIXj8L/+hlk/8Ft1/wDG6APRz0pK85/4Xj8L/wDoZZP/AAW3X/xqptO+Mnw51DUbbT7PxE8lzcyrDCh0+5G52OAMmMAcnucUgPQKK5Lx14l1bSbvTdG8PabZ6lrupGRreC7uWghEce3zHaRUcjG5cDac5rN8TeM/E2h+Fo7658I7tRVQbpVuh9jiPmqjAS43nO4svycgc7aTdldhZnfmkxXJ+MfGKaHpFg8MMEup6mNtjb3Fx5MTMFDMXkwdqKDknBOOgPSsa78deIdN8J2V1qGj6Jc65quoLYaZa6bqbT2srsCVLzGNSq4VskKccetMLXPRMUteaSfErUtJ0LWj4o8Px2muaZNBAtrZXRnguXuGVYdkjKrbdzqGJUbecZxTk+I2raFa63/wn/h+DS7nTNP/ALSX+zLs3cU8PzDYrMqHzQVOV24wRyc8G/oFmelUlcH4V8XeKZvEdto/i7w1Z6SdQtWubCWyvjcqQpXKS7kQo/zAgDcOG5GOe8HIoF1BelOpBS0xhRRRQAUUUUAFFFFABRRRQAUUUUAFFFFABRRRQAUUUUAIzYrF8beIbTwv4V1HX70O0NlA0uxFLM5A4UAdSfQVstjqa818bIPF3xN0XwftMmnaRs1jU+eC4Y/Z09/mRiR6YoA1/g74fvPD/g6JtYYPrmpSPf6o4YkNcS8tjP8ACOw7V2tNA96cKACiiigAooooAKKKKACiiigAoozRmgAoozSZoAWijNGaACijNJmgBaKTcKNwxmgBaKTIoyKLgLRRmkzQAtFFFABRRRQAUUUUAFFFFABRRRQAUUUUAFFFFABRRRQAUUZozQAUUZozQAUUhYCkDrj+lADqKTcPejcKAFopNwo3D3oAWijNGaACikLDOKAwoAWiiigAoopCRkD1oATOTivK7rHxT8XyaeYy/gnQ5wbhj9zVLtTwg/vRxnk9mJU84q/8Stavda1mP4beGLySDUr2IS6newn5tOtCSCwPQSNhgue4rtPDmi6f4f0a00fSbdYLK1jEcSD0HcnuT60AaSqAABwB0FLRRQAUUUUAFJSmkxQAhHPUikbI5ySfrTsHvQRmla4jj/jDq2p6L8OtX1DR/tZvkhxGbaBppFycEqoBOQOc9B1NcN8PrW61ayj174e+JNcMMtm8V7Frxu3WW4IGySLzuAFbfnZ8vT0r1Lxfpupat4av9N0vUU028uYWijumi8wRZGCduRnj3rjNI8H/ABEs/DjaA/jHQY7RbN7eF7XRZI5Ec9HJM7A85JAAzmhdRnKrJP4b8X6ZB4d8R6rruqW8M0viVZL6W5tlRYmbJDMUifzAuFXBwTx1qD7VqmjeDdF+Jv8AberT6lfanCt5byXcj27wTTbPLWEnYpVCMEAHIrtPA3gnxd4dgg0ubWfC8ujBTHcw22iyxTzqQQcytO3zc9SDUNh8MtSjmsdLvvEMN34W0+9+22un/ZCs28P5iK8u/DIrcgBR060O9xnGR32rL8OLf4tf21qx1WW7E0lt9rkNsYC5XyfIzsHruxn3q3dS6nrXh3xT8QTrmr21/pOo3EdhBBdyJBHDbyFdrQg7HLqvJYE8100fwuv18vQ28QQnwfFefa100WhE+c5EZm34Meecbc+9Sat8NdVnu9SsNO8RQ2fhrVrr7VfWJtC8xctucRy7wFVj1BU9aptX0BndeHb59S0LT9QcYa6tYpmA7FkBx+taGD/eNRWdrHa20VtAoSKFBGi+igYA/IVNikyY3CgUYOKWgYUUUUAFBoooA4T4w6VqcunaZ4l0G1W51bw/drdxxYy80HHnxJ/tOgwPeq91BZ/EZvCfijw/qds1npeoi6nRgS+QjKYyB91wW6GvQmBPSuF1v4X6Lealdato+oap4Z1S6x593pEyxtIR/eV1ZO/YA0dQLnxP8Nz+JtFs7aG8t7QWeoW97JJNnbsikV2GR04U89K4nw14o0L4gfHSO8sb+NrXw3ZTR6a2cfbZJvlnkj/vooRBkZGQa2V+ENvfN5fivxp4r8UWWQ32K/uo1hJByCRFGjHketbvjD4faB4g0K206OE6VNYkNp15Y4ims3X7rIcY/Agg96Lgdbu2juaUHPp+Fec+G/GWp6HrFv4R+IRhgv53Menasi7bbUQOg5+5LgElcnoea9FHAz/KgB1FJuGaWgAooooAQ00nPrStXD/GzU77TvAsi6fPJbT3lzFZieP70YkbBYe4pMNzt+eppMkng/jXlnh/S7XwP8WdO8PaD50el6tpM1xPbvK0gE0TxgSAsSQSHbPan/tEr4lHgp7jRtagsLOOWL7XELZmmnBcDasgYBB68HvRJ2sI9SXkdf1pRVTSM/2Xa56mBP8A0EVbFN7gndXFooooGFFFFACHp3pp6YyaeelMJGDQB4N8abXw43xj0G81i08cyQw6dcLdzaNHqRjTcU8oKbbgEkPuC9cLu4xW58Q/GWizfC6O207S/Ftx9rAjtYzoV7JN+6kXPmAx7l4GQXxu7Zr10H3o/E/nUzjzx5WVzXszxfxi2l69Z+CfGF7omqajoGlGeHUNPuNEmeZ/MiEQJtWTewDf7JGOelZOmaTdadpsPirRfDd7YeHbTxONQi05bV0mSy8sq0kVsBvTLbcRBQepxXvwJ9aPzq7k9EeH+IbfVvFlrrni7RdF1BbaO7sZLSK8tWt57mKGSNp2ETgSAgK20MMsQMZzUnitdR+JEPiHUfDOj6lFHHov2WzOp2j2TXF1ucmPZKFcKAV+fG3nAPBr2ykJ5qElFWsHKr3PMtC1r/hNfHWkXmnaRrFrZ6TaSfa57/T5LXbMxQLGolVWcEBzuXKjaMnkV6cPag5NAppJbC6jhS0gpaEMKKKKYBRRRQAUUUUAFFFFABRRRQAUUUUAFFFI3SgDN1fxDoGjzJDq+uaZp8rruRLq7SJmXOMgMRkVRPjjwX/0OHh//wAGUP8A8VXE6noOh65+0fexa3ounaosXg+1Ma3lqkwQm8uMkBwcGutb4f8AgJR/yJHhr8NJgz/6BQAzWfiL4G0vSrvU5/FmhSRWkDzuseoRM7BVLEKA2SeOB3rlfgbqugHTJdWvvEWiTeIfE12b2eGPUY5HG4BYo0XOf9WqHb2YtXS2fg74bXUs0dr4T8JzSW7hJRFptuTG3o3y8GuQ+LvhPwrpI8GX2k+GdFsLoeMdLUTW1hFFIAZufmVQaSA9fHWnU0dTTqYBRRRQAUUUUAFFFFABQelFZvieZ7fw5qM0d4lk6WsrLcOMiEhT85Ht1/CgDQINB96+YjcXfh/TJZNS/tyxvtS064NvqdrrX2u01JuCH2EsYSM8bdvU5raj+0eGNH8E+IfDOqahqer6xA/22Ka+edLtRbSSb9jMVXDqv3QBzijoCWuh9BjigV4HZ79P8M+FfHWn6zqF14j1XVIIbpHvHeK4EkoSWLyidibASPlUEYzWLPBd2/gDXPHC6xq7azp+vvHZs19L5Uce5BsMe7Yw+Y/eBoaBI+l6K+ePEMt5b+KNT8S6jJqmpWFtqaRrquk6v5bacPMC+S9oSVf+6SUJ70kly+pfD7xB8SLjW9Qi8T6fcS/Y1F26JFs/1UJgBCEsMHlSfmpbsHofRNJ1rx7wRa3WvfGLxDfapqGpAaZFZTQWK3LrCkrpJuJUHn6Hj24FS/GKaPVPFlh4dis9U1OWOye8ltLbVf7OijTJXznlBVmx/dDds05KwLU9abqOKz9B1jTNctZbnSbpbmGKeS3dgpG2RDh1OQOhri/gJqN9rfwjsJ9UuJLmVhNEXLksVV2AG4cnjvXj2hQ3Wj+GLbRtDstRuYNa8WXtvdxR6s0Dzxx7ykayyN+7JwCSCGbHWhq0rMOh9Td+lFfPEN9q+leH9c8P6hb6paWkup21tYafBrsdzdo77N1s1xkmMNkncxyA3BrHutR1jT/CHxM0SN77SEsILOS2t/7Va7ltHkdg+J9xYn5Rxnj8aLMWh9QUleAXPhK2HxEu/Dp1jXjpz+HH1OWP+05wXulZVEm7fuX7xO0EL7V6d8GdQu9U+Guj3l/cNcXLI6NIx+ZtkjICffCim0LmOypaReppaRQUUUUAFFFFABRRRQAUUUUAFFFFABRSGuT+JPi4+FdPtUsdPk1TW9Sn+zabYocGaQ/xMf4UXgsx6ZHrQB1veg9K8xh+G+sa9aSSePvGGq389wqmSy0yc2drARztjaPEuPdmJpmo+DfF3hlf7Q8B+J725EAGdE1ZxNBcKvULKw8xXI4BL4z1oA9PoFc74D8U2Xi7QV1S0V4JkkaC7tJD+8tZl+/G47EZH51w/wAQtNPiD4z6Bod5qGpW+myaTNJPBa3ckAlYOduShBHboc0mxnrdIenevmnw0l7p3hjwr4sTWtWuNVl8SDTWMt5I6Nbecy+UYydp4H3iN3PWq0GoeNNS06TxpBpF9Fq41HamoT+JIorVMOB9nNsWC9CRgruzjmmDVj6Q17V9P0PTJNS1W5FtaRFQ8rKSBuOB0BPUgUmmatY6lcXVvZzNJJasEmBhdQCRkckANweozXzn4mtYtZ+Eup+MNa1a8tvELa0beaI3z+VGFutiweVu2fdAwdue+a1b/VZmvfEejSzaxdPe67bW9rZWl55DTDyVzEJT/qlOeSCD70W1sI+hj+AqlaapZXeo3en27u1xZlROhiZQpIBGGIw3BHQmvMP2fbzUDqni7RLlZYLbTLyFbe1lvzeG33oxZfNJJbkdycVy/wASL3U/7R8eW9vqt9a41jTI4nimZTGrCLdt546ngdaT0HHU9213VdP0LSbjVdWuRbWVuA0szKSEBIHQAnqRVyJhIiyxnKMoK8dQe9fNHxZ0S20uHxN4bgu9Tl0xtGgv/Jn1CaQicShdwZmJwQxyudvTjitXxFFql94u/wCEVtdD1bUtJ0rSIZbSKDxF9hZSyqTMzsweTaTjkkeop9LiPoaivnnTF17xLrXgHSPEGrXcImsL5rr7BqGRcLGfkDPGcHA4JHOQeaxrK+8X6hYN4uh0m/h1VdTES6jP4kjit41EgUwNbFsfdJHK7icc0WswT0ufTjKSc8+2KoaLrOm6wLv+zLpZ/sdy1rckKRslUAleQMnDDpxzXg2rS3dv4jvvEurvql5ZJq6RDWNJ1naLL5wv2d7UsVb+6Ttz3Brrv2ctJ0+wbxjc2QuD5uvSx7pbiSTKiONhwxIB+c89T0PQYEr3FJ2PUNV1TS9Ht1uNW1Kz0+Fm2LJdTrEpb0yxAzwazP8AhOPBf/Q4eH//AAZQ/wDxVcl8a7Gx1PxP8NLHUrO2vrWXxM4kguIlkjcCwuzyrAg8gH6it+78D/Dqzs5ru78H+FYLeFDJJLJpduqooGSSduAAKQy8fHHgv/ocPD//AIMof/iq5r4jfFjwv4f8OtNpWu6JqWrXLrbWFsmow4eZ+AXO7Cov3mJ7A4ycCqenSfALUr6Kx09fhxdXMzbIoYYrN3dvQADk1N8U/Avgi2+F/iy4t/B3h2GaPRLxo3TTIVZSIHIIIXIOaYG98MPCy+G9Daa6uhqOs6k/2rUr7OTPKwHCn+4owq+wz3rrFzmsP4d/8iB4c/7BVr/6KWt6gAooooAKKKKACiiigAooooAKKKKACiiigAooooAKKKKACiiigAooooAKKKKACiiigAprZ9qdRQBk+J/D+k+JtGuNH1yxivLKcDfHIM8g5BHoQcEHtivP4tX134Y3MOm+JnvNb8JSyCK01dVaW4sSThY7hRlmXJwHGe2cCvVqZKqyIUdQykcqRkGgDkV+JXgjGf7bGO/+jTf/ABFO/wCFleCP+g0P/AWb/wCIro/7O0//AJ8LT/vyvH6Uv9nad/z4Wn/fpf8ACgDm/wDhZXgj/oND/wABZv8A4ij/AIWV4I/6DQ/8BZv/AIiuk/s7Tv8AnwtP+/S/4Uf2dp3/AD4Wn/fpf8KAOaPxK8EY/wCQ2P8AwFm/+IrI8X+K/h34m8O3Wi6hrbCG4XbvS3mDI3ZgdnUV3f8AZ2n/APPhaf8Afpf8KP7O0/8A58bX/v0v+FAHkGh6h4bs7+61fVPiJNqmtvZtZ2l8dJeIWkRIPCAYY5CnPfFafibXvBniHwP/AMI3qPjGV5WSIS3osJQ8jIQS23bgZI/WvTP7N0//AKB9p/35X/Cj+zdP/wCgfa/9+V/wpMRy1p8RfBEFtFCNc3eWirk2s3OBjP3Km/4WV4J/6DQ/8BZv/iK6T+ztP/6B9r/36X/Cj+ztP/6B9r/36X/CgLHN/wDCyvBH/QaH/gLN/wDEUf8ACyvBH/QaH/gLN/8AEV0n9nad/wA+Fp/36X/Cj+ztO/58LT/v0v8AhTGc3/wsrwR/0Gh/4Czf/EUf8LK8Ef8AQaH/AICzf/EV0n9nad/z4Wn/AH6X/Cj+ztO/58LT/v0v+FAHNn4leCMf8hsf+As3/wARUlj4+8J395FZ2WreZczOFjX7PKNx9MlcVvnTtOx/x4Wn/flf8KFsbFHDx2VsrDoViUEe+cUmBznjzxFrGm3umaJ4asLG+1zUzI8CX0zxW6xxbfMZnRWPG9cAA1neKPF3izQfCkd5P4VhfUkUG6dbr/QkPmohAf8A1h3Biy/J25xXDfGrTfD9x8YNCvtY8N+ONRt4NOnS7n0e31BogWK+Uoa3IAOQ+7HX5d2Ritr4geLLG4+GKWWl+GfGsv2pRHbwf2DdvMgikXPmBl3LkDILfe681NS6j7u5VkmjqPGfi7U9POg6X4f022vdd13cbWO7laO2iVE3u0jqCwG3OMKcmsWX4kazb6ALa48P26+LG1YaNHaJck2r3BUsJPMxvEOAfmKhsj7tUtU1W4kuPBvjq10HxA+mack9vqFs2kzC+TdHsRlt9u9hv64HTmsy7s9cnEPj6PQtSS3TxGt81k9s32xrERspcQgb/MyR+7I3VfYiN7bHQy/EfWNG0TWk8UaFbRa/ps9vBHDp85lt7prhlWIozBXCguu8lRjnGacPiFrfh211seP9Cs7W50zThqcZ0i5a4iniyw8sb1RvNBU5GNuCME1zmv2Wt+LLXXPFuk6FqVvFHd2Mlnb39q1vcXEULxtOfKYBwQFbaCMscY61J4pt9Y+JEHiHUNA0LVbBI9G+y2I1e0azae63OSuyQBwgBX5vu5JA6GpjdxvJajs7+R1nhTxV4uPiS10fxjoGl2B1K2a5sZtOvHmVQpXMcwdVIchgRt3DhskcZ78GvMtB1S48Y+ONIvLfQdb02z0i1k+1TanYPaEzNsCpGsgBcYDksvAwM9RXpooV7a6A9xc0tAoqgCiiigAooooAKKKKACiiigAooooAKKKKACiig9KAPOrX/k5XUR/1J1p/6WXFd1qVr9tsZ7MXNxbeahUS277ZE91PODXCWzf8ZK6j/wBidaf+ltxXoeOp6eopPYDyj9nzTY9Jbxdp0d1dXSw61IPNupPMmfryzYGT+FWP2irw6f4c8L3y2d1em38WaXILa1QNNNib7qKSAWPYEiu60Lw/pmh3GoTadC8bahcNc3BaQtukPUjPT6CuP+Of/Hl4N/7HLSf/AEdQugkO/wCFpXX/AESz4jf+CyH/AOPUf8LSuv8AolnxG/8ABZD/APHq9DDfMRjgU+mM85/4Wldf9Es+I3/gsh/+PUf8LSuv+iWfEb/wWQ//AB6vRqKAPOf+FpXX/RLPiN/4LIf/AI9R/wALSuv+iWfEb/wWQ/8Ax6vRqKAPOf8AhaV1/wBEs+I3/gsh/wDj1H/C0rr/AKJZ8Rv/AAWQ/wDx6vRqKAPOf+FpXX/RLPiN/wCCyH/49TZPifPJG0cnwp+IrowwynS4CCP+/wBXpFFAHz3q76HDoWtx+Gfgf42sNU1G1khE39mRAZb3884H0FW/h3qOkeE7G0mtvgj44ttXFqkV1cQ6XE25gBuwTP0JHoK94K57mgKAKAPGNP1nw3p/iGTxDZ/A7xzBqkhJa4XSYdxJ6nHn4H5VNJ4k0SXSLnR5Pgn47bT7mc3E9udJh2SSEgliPP68D8q9grN8UXkmneHtQvoFYzQ27vGFjaQ7scfKoJPPoKTYHk97qfhe98RL4guvgX45l1RWDC5OlRZyOhI8/BP4U+91nw3eeI4/EVz8DvHMuqxlSty2kw7sjocefgkfSsz4R3F34ntNM1vw/wCKdffxDAM6/a6sLoWjtgh40Rx5aMrkfc5GMVNrEOsaFquj+X4s1PUvHN1qSm50+G9kktBatIc7oM7I1CY+YgHOcU9g3Ogs/HVtZ6pe6pa/CD4gQ3l9s+1TLpUO6XZkLk+fzjJ/OqXiTxDofiW5tbjXfgp48v5rQ7oJJdLhyh68ET1l3E+tar4Z8RfEKPxBqdtqGm6lJHY2sV1ItqkMbqux4QdjkhjkkHtUouNU8cQeLPEq65qmlto0KNpVvaXUkUSOIBLulRSBLluzZ4ofcEbPh/xlY6BbSWujfB3x/YQSymZ44dKhClyAC2PP9hWbPqnhia21K2l+Bnjl4dUmE96n9lQ4mk/vH9/weTyMVU8MXmp/E7+1dSudc1jSv7JtY47WKwupLdfPCktI4UgOCcfK2Rwa9M+FWuXPiT4faJrd9j7XdWiPNtGAXxyR+NO11dC6nn6av4ZXw03htfgZ45GkM25rX+yodpb1z5+c++aghvfCMNvNbx/AbxusU8C28q/2TDh41OQp/f8AIBr3GikO55O3jSxbVW1Vvg34/N69sbRp/wCyodxhJBKf6/pwKm0jx/DpGnxafpnwh+IVraxZ8uKPS4Qq5JJx++9STXqVFAHnP/C0rr/olnxG/wDBZD/8eo/4Wldf9Es+I3/gsh/+PV6NRQB5z/wtK6/6JZ8Rv/BZD/8AHqP+FpXX/RLPiN/4LIf/AI9Xo1FAHnP/AAtK6/6JZ8Rv/BZD/wDHqP8AhaV1/wBEs+I3/gsh/wDj1ejUUAec/wDC0rr/AKJZ8Rv/AAWQ/wDx6j/haV1/0Sz4jf8Agsh/+PV6NRQB5z/wtK6/6JZ8Rv8AwWQ//HqP+FpXX/RLPiN/4LIf/j1ejUUAec/8LSuv+iWfEb/wWQ//AB6j/haV1/0Sz4jf+CyH/wCPV6NRQB5x/wALRus/8ks+I3/gsh/+PVh+Cdc/4TL486heX/h3VtHfQ9EhNjDqsCxTA3EkglYKrMNpEKDOc8GvY8c15t8TYNS8O+KdM+IWlWkt7bWkL2utWsK7pJLZiCsqjqxjIbgcnefSgC38UPDdprb219rEV5rGl2ELM+g2ke6S6kJwH++udoJ4/HPaqX7PF09x4HnheSZRbX80SWc5zNZJuysL+4BB+hFXb/S7PxrJY+LPBvjCTTrtIDAt3aRpcK0bEMUeN+AwIHUZGKdbf8I38K/DF3d6zrUks1xK1zczyjdcXkxAHyRryTgABVB6ULYGceviWbwh8c/GdlaeG/EGuWl5Y6feNBo9sk32eZvPDu+512l8D1zt7YrXl8dWs2sw6zL8H/iC+owRGGK4Olw70QnJUHz+lO+A13Hr0niLxdfhIdc1O6VbqycbZ7GCPd5MMi9cgM5z0OfavUs0AePJ4k0OPTbbTk+CXjsWlrdC8giGkw7Y5gxbeP3/AFySarnWPDTeJf8AhJD8DPHR1bdu+0/2VDuz648/Gfwr2oUUAeH6nfeEdS1iXV7/AOA3je4vpf8AWTPpMOW9yPPxmp9S1jw3qVteW178DfHM8V9Ks1yraTD+8dRhWJ8/qBxXtNNPSk3YDx/w94l0bw/dS3Gi/BXx5YzSxLE7xaVCCyL0B/f84xS3viTRbya8luvgp47me9mjnuWbSocyyR42Mf3/AFG0Y+lVNS/tbxM3jTxGuu6tYS+HpZItNt7a6eKAGEEsZEUhZNxX+IHANdN4m8a3lh8CX8aQgJftpSTKduVWVk649N3anugMfUvFWk6jcXE1/wDBfx5cy3Ft9lld9JhJeHrsP7/pWdqeoeFdT0+wsL/4FeObi3sFCWqNpUX7pR2B8/OPrTvhjdzWvjPTIb648X2EmpWTyiLWbwXEGoN8hLxje3kkZ+5hcg9OK9qHanYR5QnjLTkv7G/T4M+PlubCJobSQaTADCjDDKv77gHFZ7ax4abxKfEjfAzxydWLbjcnSodxPrjz8Z/CvaqKQzxS41TwvceJB4jm+Bfjl9VDh/tJ0qHduHQ48/GfwrQ0vxhpularqGqad8GvH9re6iyteTR6XCDMR0J/f9ea9bpH6UAeI+J/GE/iL4h/DW0k8G+KtDWPxDJJ5+q2ccUTn7BdDapWRju5zjHQHmvapFV0KsqlSOQwyD9a8++K/wDyOnww/wCxmk/9N93XonPvSYHmmj21n4q+KN7di1t10zww/wBnt1SJRvvD/rGOB/AAuP8AfNdH8XP+STeMP+wFe/8Aoh60vDvh7S/D8F1DpcLxLdXL3U2+QuXkfG45P0FZvxc/5JP4wHH/ACAr3/0Q9MXUufDr/kn/AIc/7BVr/wCilrerB+HX/JP/AA5/2CrX/wBFLW9QMKKKKACiiigAqPcR3qSqOrzNb6Xd3EbbZI4HZGxnBCnH15pNpLUC3k46n2oDEjPXHWvCdK8beOtP0Dwz4v1rXYb6z1XUDZzabHZRoqKZSiuHA3buOnSrtv4w8ZW/hPS/iRdazDNo+oTx7tEWzQCGGRtqlZQN5cHHXjrVWdriue07uOv40m45xn2rkfitrdxoXhkT2mrQ6VNNOkQuGtmuHVSw3eXEoYyPjOBg+9eb6V8S/Ei6NrFh9tlvr+LU7awsdRvNP+yvifOHeHaANu09RzUsfY9085fNEXmJ5mM7dwzj1xSNPGjBHmRGOcBmAJx1r588Raj4l8EfFO91LVtXTX7uHw4wtLhrVIGzJcwJ8yINuAWB98c1Y8S2vimw+JHhafxDr0OtrJpd/NGWso4vLc27EphRhk9zzTaajzAup7z9qgIBW4iwRu++On+HvUiSeYgdGVlYZBU5BHqPWvmTQ31eXVINXbVIUj/4Q9pWsl06EQlfMYeXgDgd+K7DwXrvi/xTpbWnh/WrfQINB0q0LothE63UrwCTaQw/dp1Hy0WuSpaI9sywIHb1pST/APqrxPSvGXjPxp4k0jTdG1qLQLe60Zrq4cWaTuJkmljJQOOVPl9+3So/+Fha5e+C9EkuPES6RfzTzQXM1npZvbmcx4GY4AjAKS3JIAHHrSV3sU/ddj2ySZY2UPIibuFDMASfb1qVCSeua+fYfEuo+KtO8B32rOJLq38T3Fq0ph8ppfLEih2TA2k4yRX0EpyTTB6DqKKKACiiigAooooAKKKKACimluaN4/woAdRSZ9jS0AFFFFACE1ieNPEVr4X8OXWtXiPKsAwkSfelc9FHua22/GuJ+M2kahq3geVdNt3ubqzuIrxIFODN5ZyVH1pAHhTxhq154jPh3xPoMOi6nJam8tUhvPtEc0QIDfMUXDAsuRg9etN8Z+NrzStfh8O6Bpdpqmqtb/apUu78WkMUWdozJtb5iRwMfjXO2erL4k+Itv4xtNN1aLR9C0eaKVp7GWKWSaRkbYkbqGbARs4GOmKxPGGm+H5fiRF4z8WeHL7VfDmq6LHFAjaZLcmGbduxJCqllO3GCRwe4oY0j17wnq1xreg22o3Omz6bPID5ltMQWjYHHUdR6GtdOnrXDfBKw1fT/AFpBq8dxC/mO1vDOxaSGAn5Eb3A/LNdwtN7kodRRRQMKKKKAENNNOP41Be3VvZ2kt3eTR29tCheSWVwiIoGSSTwAPU0npqBLk/5NGcHGea8k+F3ijV/Gl8viCx+IGk3NtOzsfDSpbubeIMVDGRMy5+XIzx81W5rrx14b8eeHYdT8VR67aa7eSW82mjTo4lsVETyeZHIg3sqlAmX67vXFFtkGx6h3FHfNeYav4u1y6+ImjxaLfQp4b+2PY3A8lXN3KFBba56BCccH7ykGsvUfEHj7UP+Ej8VaPrkFhp2hag9rBo72aSR3yR7dzvLgyJu39F6bfekpXv5C67nsffP5Uh6gk/hXkmq69418Sap4iuvDWvx6HYeH4YpIoTZRzjUXaHzSrlgWjXPyZXnBzT/AO3vGPjbXoNI8Pa9H4XS30eC+urqKzjujNPIzqYgso+VV2Zz1O72o0bsN2W56yPelFc78ONavtf8G2GpanHDHfum25WHOwSDg7c84roqd7iHDpRQKKYwooooAKKKKACiiigAooooAKKKKACiiigAoPSiigDhvFvw9bW/F48UWHjDxD4evzp6afJ/Zpt9ssSyNIu4SxPyGduRiqf/AArjxD/0WDx3+Vh/8jV6LRQB4t8SvCXjXw74Ovdc0r4t+MpZLEpPcJPHZMPs6sDMRi3HzCPeQemQODVLxb4N8RSaP4f8Yad448U+MNN069ttZbSboWu65WMh0KGKFTuHpzmvb7yCG5tpra4jEkMqGORCMhlIwQfwNcB8E55rDTdW8E30sk154dvngR5D801vJ+8jceq/OUH+5QB2XhrW9N8RaLbaxpF0lzZ3CBldeue4PoR3FaeRnFeU6/pt18NPENz4u8PW8k/hm/k365pMKZMMhP8Ax9xDsf7698g9q9N029s9RsYNQsZ0uLadA8UqHIdT0IoAtUUCigAooooAKKKKACiiigAooooATBqvqEdxJZzR2sqwzshEcjDIRscEjvVmik0B5j4L8J/Evw9YLpp8S+F5rZppZ5pV0qYTySSEszZMxXJY5+7UHg3wP4/8NXTPDrHhC586dpLq6l0qdruZWYkgyGfHA4HGBjpXqtFOwHl2pfDTWpJNR0fT9ftbXwtqt59svbQ2zNcq5YMyxSbtqqSBwVJ461Nrvw61n7bq0XhfXbTS9J1yNI9St5bZpJFAQRkwsGAQlBjkN616XRQB5nefDnWdMuZv+EK1200u2vrNLW+ju7ZpidgIEkZVl2uQTknI6cV3HhXRLXw74fsdDsQ32WygWGLcckhRjJ961KKForCsFFFFAwooooAKKKKACiiigAooooAKKKKACiiigAooooAKawznjI9PWnUUAcNqnwq8H3mqNqsVjPp96xJaSxupIVbPXKK2zPvip/Dvw18JaJqZ1WHTnu9QLbvtN5cSTsp6ZUOSq9OwFdlRQBwPj3wZfy358W+CpoNO8VQoFLSf6i+jHJimUYz7NwR64rQ+Hvjex8Vw3VrJbyaZrunMItT0uc/vLaT2/vIf4XHDAg966zqK4v4g+Cf7cuYfEGg3Q0fxVZpi11FV++mcmGUD70bdCO3XtigDtcgUAg1xvgDxmuuXN1oesWjaV4ksMLd2Uh+VxjiWJv44z+Y5yK7JaAFNNANOooA831/4f67NqWsJoOv2tjo+vYOp281s0koPRjC4YBdwJzkN1rVu/BUl9oOo+Fb29iPhybT0srSCOLE0ACbSxckgn04rs6KOlgPPfD/gnxG3iHTNV8W69Y6iujQtHp0VnaNDy2AXlLM25sKBxgdeK9BAIxS0UAFFFFABSMM0tFAHK/EDwXH4vi0ljrmqaLd6Te/bbS704xiRZPKeIg+YjqQVkYdKxP8AhXHiH/osHjv/AMkP/kavRaKAPO/+FceIf+iweO//ACQ/+Rq5H4ufD/xxB4KvJNL+JXjLWLfYyanp8i2XmXNmwKzLEVtxiTaSR1zjAwSDXuVIetAGF4AvNHvvBmkXGg3DXGmi0jit2Y5cKihcP/tDGD7g1uhgce9eVaxHcfC/xa+u2ik+C9XlH9qQL/zDbg8C4Uf8824DDttJ5zivUIZI5UWWJldHAYMvIYHofpQBNRQKKACiiigBG6VWvLZbq2ltpGYLNG0bFeoBGDirR6U2kwOL/wCFd6L/AMI7oehG6vja6LfLe27Fl3O6yFwH+XBGT0AHFVbP4X6Pb38H/E21abSLa4+0W+ivIhtIZOcEALvwMnALEe1O1n4maVp+t39hHouu6jHpjrHqF5ZW6SQ2jEA4f5w54IPyqetU5fi5oovdSih8P+Ibq30u6NrqF5DbR+TbEEYZiXDFTnsCeOQKabsDidN438KWniqztY57280+5s7gXFreWjKJYJB/ENwK/mDXPw/CnRFXWftmrazfHV1jN3JcTJnzkztmUhRtcZ7ccDirOtfErR9PvJLex0zWNcSCFbi8m02JHjtImUMGkLOp+6Q2FDHFQar8UtGtdWttL07Sda1y7uLFb+FNOhR98LFgTl3UDG05qdt+o1qR6f8ACnSU1S71TVtc1vXbu8sGsJn1CSM5iLKw4RFAKlRgjHvmmWPwn02HV7XVLzxN4i1OeztpbS2+1zRFYoZEKFAFQZAB4JyfUmrM3xT0GSz0qbStO1bWrnVYXngsbGJDOETAdmDuoG0kAjJPNOn+JuktbWX9m6LrurX15G0v9m2tsouYkVirGRZGUABlI6nOOKp3sJPqRf8ACqdFjWyW31TV7dbbTm01hHJH/pELNnD5Q8g55GKLn4W6X5UEel69rmj4so7G6azkjBvIUUKol3Iedoxldpp2o/Fbwza6bpF7HDqV5/a8jw20FvAGkEq43RsCRhuf0ptj8VNIvL5YoNB8QvZ/aRaTagtsjQQT52mN8OXBDfKSFIz3xzRfqKyNfSPBGiaVr9pq9h58D2mnDT4YQw8sRhmbJ4yWyx5zWKnwo0m1SwbS9c1zS7yyeZo7y2kj84pKVMkZ3IV2kovQA8daxdD+LMlveeII9f0nUbiz03VWtXv7S2QW9pFtUjzSXDHknJANaGpfFDTtA1vVodUbUL2GO+t7O2htrNdyvKkjD5t/zg7OpAxx68JLqF7l7SfhXoem/YxDqWrSx2mpvqUKSyowErghxnbkqSxPXOT17V6AhyM8fhXMeEfGNn4ivLvT20zUtI1KzAaay1CNEmVSOHGxmBByO9dQlMOotFFFAwooooACaTcKR+Oa5zxZ448K+Ff+Q9rdvaOBkx7Wkkweh2IC2PwoA6QMKNwrhvDfxW8A+ILgW+n+IYVm4BW5glt+T0AMiqP1ro/FGv6P4a0SbWtbvorKxhXJlfnPoFAyWJ7AZNAGhdTQW9vJc3EyRQxKXkd2wqqOpJ7CvMpda8R/EjUhZ+EbqXRvCcTkXOuBR516R/BbBhgJ6yEEHkDBpkGj678T7yHUvEsVzo/hCNhJa6MTtnvj2e5I4C/9MxnJwc8V6hawQ2sEdvbxJFDGoSONBhVUdABQBxa/DiPt4t8TY/6+U/8AiKd/wriP/obvE3/gUn/xFdwOppaAOG/4VxH/ANDd4m/8Ck/+Io/4VzH/ANDb4m/8Ck/+IruaKAOFPw5j/wChu8Tf+BSf/EUh+HcY6eLvEw/7eY+P/HK7pqwfHHiK38L+GbvWbmJ5/JGI4U+9K5+6g+ppMDEb4fKzZbxh4nyP+nlMj/xylHw9Ctu/4TDxPnv/AKSnP/jlHhXxZrFx4lPhrxVo1rpOpy2pvLX7JdtPHLECA2WZFIYFlyMHr1pfE/ifxBD4nPh3wr4ft9TvYrX7VcSXt01vAqE4Cq6o2XJ7YA5602CGf8K5hIOPFvib3/0pP/iKX/hXMf8A0N3ib/wKT/4itn4feJoPF3he21uC3kt/MLJJC5yY3U4YZ7jI610C9KOojh/+FcR/9Dd4m/8AApP/AIij/hXEf/Q3eJv/AAKT/wCIruaKBnDf8K4j/wChu8Tf+BSf/EUf8K4j/wChu8Tf+BSf/EV3NFAHC/8ACuI/+ht8Tf8AgUn/AMRUV14CNlazXVvqmta1LEjMmn3d3GIro44jclMAHpyMc139IetJq6A8X+EGmeN/CemadpFx8J9Gs3Xelzqdvq8G/azswJVYwzAZAxntS+FbX4nXGu3V94q8CQreagj2r39t4hiKWFu3aGPy856Ekkkkde1e0Cim9XcHqeM33wg1+11Dw6ulfETxTNZafdmSRJmsx5SnklcQAkk5znPWpbzwx4709de8KaRptpe6Vrl+12usT3iobFX27kaADdJjZ1DDO72r2GiklYGk3dnk2q+G/Gfh/VtftfCukWurad4hhijWWe9WD+zGWHyixXGZQfv4BU8Yp7+G/F3g3XYtW8L6Pb+JFuNJg0+6tXvVsxFLGzsZlZg2Q2/G3qNvXmvVe9LQkk7hZdjn/h9od14e8I2Ol3s8VxeRpm5liUqjyHlioJJA/Gt7BzTqKdgAUUUUAFFFFABRRRQAUUUUAFFFFABRRRQAUUUUAFFFFABRRRQA1jg9DmvNPGWPDHxc8P8AilWSOw1uMaLqDFiB5m4tbe2S8jgnrgCvTD0rl/il4ck8U+BdS0m1l+z3rRmSynGMwzryjj3BoA6SRVkQxyKrqwIZSMgg9iO4ryi4Nz8JNfWZUeXwBqU371UBZtHuHP3v+uDMef7hJPCiu3+G/iSPxZ4J0vXkRoWuoFMsTj5opBwysOxB7Vu39pbX1nNZXkEc9vOhjljcZVlI5BFADonWSNZI3V42AZWU5DA8g1KvSvKdDvbj4XeIbXwprErzeFdSnMeiX75P2OU/8uszHsc5RvqO1eqqeOuR2NADqKQUtABRRRQAUUUUAFFFFABRRRQAUUUUAFFFFABRRRQAUUUUAFFFFABRRRQAUUUUAFFFFABRRRQAUUUUAFFFFABRRRQAUUUUAFIetLRQByHxE8E2viyC3mhvJ9I1uxcSafqltxNAw5wezoeMqcg+lZ/gHxtfXepyeEvGlrFpPii2HCrkW+op/wA9rdj94eq/eXPIFd8QOtc7478JaX4t02O11APDcwSCWzvITtmtpR0ZT/MdCKAN9ev/ANepK868IeMNS0vXIfBXj0wW+syFl06/VdsGqIBnK/3ZAPvLnsSOuK9C3Y69RQA+iiigAoooNABRSUdqAFooFFABRRSGgBaKTNLQBX1G1tr6zmsry3iuLedDHLFKoZHUjBBB6ivNPBtxP8OfEUPgTWbuSTQr12/4Ry9nckp3+xu56sBypPLAN1xXqZFYXjfwzpfi7w5caHq0ZeGTDI44eGRTlXU9mBoA26cK4G28MePYbeOH/hYCS+WgXfJp+WbAxknf1NSf8I34+/6HuH/wW/8A2dAHdUVwv/CN+Pv+h8h/8Fv/ANnR/wAI34+/6HyH/wAFv/2dAHdGmHvXEf8ACN+Pv+h8h/8ABb/9nR/wjfj3/ofIf/Bb/wDZ0AcR468G+LLrxRqd3o3h6eHULmVXsNe07V/sscPygZuYN480gg/wnIwKyvCP/CaXCeO/Dmn+H01KO+1qeGXUxdRxpCxwHLRkhm9tor0z/hG/Hv8A0PkP/gt/+zqjpXgPxVpT3b6b4vtbZrydri5Kaaf3krdWOZOppWG2YWleFfFvgL+1dO8N6INfs9WtoYlnN1HEbSSOBYcyByC6/LuwuT2q54B8Bav4Z8XWsrqs1jb6AtmbnzASZzLK7KFzux845rf/AOEb8e/9D5D/AOC3/wCzo/4Rvx7/AND5D/4Lf/s6cveEtDzlfAPiW18N6Rbah4POsNA1yHjsNVWzvYHdwyOs4dQUwDlc5zjjitTwp4a+IfhLU7bxRcWMvim+nsDZXFmb6NJrdBKzx/vZGCvhSqk5JJBNdl/wjfj3/ofIf/Bb/wDZ0f8ACN+Pf+h8h/8ABb/9nTTaElpY5XQ/AHiKx1bwzqNxDE0y6tdajqSpKNluZVQBVyfmxt7e9Z9/4M8Yf8JfJcaToE+k3z6n5/8AbVlq2yzktzJuYSWu/LOVyCdnU5ruv+Eb8ff9D5D/AOC3/wCzo/4Rvx7/AND5D/4Lf/s6lKwzkr/wR4nm+GvjvRUsYmv9XvpZrJPOQCVWRACTnC8g8GuY+I+ieItD8QRaqmmpM154i082MbTL++KQzhgTn5evfFeqf8I349/6HyH/AMFv/wBnVHVvAfirVmtG1Lxfa3Rs5xcW+/Tj+7lAIDDEnXBP50+lgjo7k/gzSddvfHWo+M/EGknRZJ7NbG3sWuEmdUDBi7MhK5JHGD0rv464f/hG/Hv/AEPcP/gt/wDs6P8AhG/H3/Q+Q/8Agt/+zoEkd1RXC/8ACN+Pv+h8h/8ABb/9nR/wjfj7/ofIf/Bb/wDZ0DO6pDXDf8I34+/6HyH/AMFv/wBnR/wjfj3P/I9w/wDgt/8As6ALXxV8Q6joXh6KHQo4pdc1S4Sx05ZQSiyyHaJGH91c5PtWR4G8P+DfCfiVdGaT+0fGN9A17dX10pluZQpAZt5zsXLjCAgegrnvFGkeIdJ+KHw+1fxJ4ig1PToby6t8/Z/J8uaaJUi/iO7LcDpirFvoGj6J+0paXGl2SW09/ol3LdMHZjK/mQ8nJOOvbAppDRs+MfFPw21S9k8OeJLZdQXzlhkmk015baGQn5Q04UpGwOMfMCD71yfhnwpBpfxittB8Vahd69YQWRu/CgvZhJHEQxMqlSf3kiAoQ7ZIDDBFXLyCLxTbal4R8JWVnpvh59RkOq6pPIMzTebulWFCck7gw3E8HtU3xOtdTn+Jfw+0fwndWdnq9na30i3l3btcxwQeXEuHjVkJ37cA7hypqY6onqevqcjt+dOFedDSPjNj/kefBn/hMz//ACXR/ZHxn/6Hrwb/AOE1P/8AJdMZ6LRXnf8AY/xn/wCh68G/+EzP/wDJdH9j/Gf/AKHrwb/4TM//AMl0AeiUV53/AGP8Z/8AoevBv/hMz/8AyXR/Y/xn/wCh58G/+E1P/wDJdAHobVxXxl0e/wBY8ESx6XAbi7tLiK8jgBwZTGc7B9ao/wBj/Gb/AKHnwb/4TU//AMl0n9j/ABm/6Hjwb/4TU/8A8l0mBlWOpyeI/iHb+MrfR9Zt9L0TR5oXF1YSwTTzSMjbUjdQzYCHkDByMVT+IXjG/v8AVLbSYYfE+iaPcWSXFze2eg3FxcS7ufIBWNvLODyThhzjmuh/sf4zf9Dz4N/8Jqf/AOS6P7I+M/8A0PXg3/wmZ/8A5LpsEzofh2mixeEbOHw9Z3tnp8alY4ry2lgl65JZZAGySTyRXRL3rzz+x/jP/wBD14N/8Jmf/wCS6X+x/jN/0PPg3/wmZ/8A5LoA9Eorzv8Asf4z/wDQ9eDf/CZn/wDkuj+x/jP/AND14N/8Jmf/AOS6APRKK87/ALH+M/8A0PXg3/wmZ/8A5Lo/sf4z/wDQ8+Df/Can/wDkugD0Skboa87/ALI+M/8A0PPg3/wmp/8A5LqfT9L+Laahbvf+M/CU9osqmeKHw9MjvGD8yqxuSFJGQDg464NAHeD2o9ef/rV4P4z1DSvFXxmvPDnibwX4s1fTtLtbf7GLazkEUcsjyb52ZJFyhCIAT3VuOK6j4j6DHZ6h4Wvm1TVLkw6pBHDFNOPLjxE6lgFAyWHXdkE9hUydopjaPTxyf880dOOa8a+LEmq+JfiJJ4Mg8OxeItPtNJj1CXT5dTawSSRpnQM0iqxOAoIAxz1NUNMt9C8dXng3wu2m3Fj4XTS7qebRGnkBE6NGqhpAwYhNz9+d1V1sKXu7nun4c0Hj1rwSGxN/c6L8Ori9upvDo1+7gmgadiZbWOOVorfeMMFRlTHOcLyTTdVsTpKXfw+0u9urbQrjxFaW/kGZm8q1kCebbqx+YK2WPUn5jg0k05JLqJyUU2z33nHNOHSvN/h9oth4R8fax4b0MTQaM9pDdRWbTtIkEhyHK7ssN2QTkkfLxivR16UXTGKvSlpBS0IAooopgFFFFABRRRQAUUUUAFFFFABRRRQAUUUUAFFFFABTW6dvyp1I3agDzX4fqfDPxM8TeEG+S01Bzremqzklt5xcKAeiqzR4A9a9I/zivOvjSraN/Yfj223h9CvFW88tAzS2c3yPH0zjeYmOP7leiRvHJGkkbBkYBlYHIIPQigDP8SaJpfiPQrzRNYtEurG7iMc0Tjgg/wBfSuG8EazqPhHXIfAHiy8e5SQf8SDVJSWN5Ev/ACylY/8ALZR6/ewTXpRXPIrE8ceF9N8XeHZ9F1QOqPh4riJtstvKpysiN1DA/mMg5BIoA3FbPtTq87+G3ifVrbVH8B+NmjTxDaIWtLoHC6pbD7sy/wC2AMOvqCcAGvQ80ALRRRQAUUUUAFFFFABRRRQAUUUUAFFFFABRRRQAUUUUAFFFFABRRRQAUUUUAFFFFABRRRQAUUUUAFFFFABRRRQAUUUUAFFFFABSEZpaKAMPxn4V0bxbocmk61bebCWDxSIdssEg5WSNhyrqcEMOQQK4vwt4l1rwbq1v4P8AiFdfaFncx6Rr2MR3ajpHN/cm/RvXOa9QPSs3xFoemeINKm0vWLOO7tJR8yOOh7Mp6qw7EcigDRBwOB+FAORXlGma7qnwy1K18OeL7ma98NXD+VpniCU5NuxOEguj2J6LIcAnAOSRXqqMuAQQQRkEHgigBxOKbv8A/r1z/wASdeufDfgjVddsoYZriyhEiJNnYxLAc4we9ef+J/i1d6JouqXqWkV7PaXNhCIILGdvK89UZy7A4PDHbjHOByaQ0tLnsAbmndq8RvfjVeN/wk32HQLuE6WsL2/9oadPBuDj5vM3Y2n06ZrvfEPxG8N6DqAsL1r6aZEV7p7OzknjtQ3QzOgIjB7bsUyUdkOlFZeq6/pemeHJ/ENzcZ02C2N08sal8xBd24AdeOa4+L4yeDJXEcQ1qSWSITW8a6VMXuk/vQjbmQDuVzigZ6JTTXJXXxH8Lw6BY6xDPd3sd+SLa3s7V5rmQj7wESgtkd+OKguPiZ4Vj0ez1KOa+uvtsjRQ2lrZyS3RdfvKYVG8Fe/HFAtzsiegAz/SnrXkmgfFWXV52ZWsLa0PiT+yYGe2lLyxbC3Iz8j8Hk8DHSuosfiV4XudfTR0lvlaS4e1iu3spFtJZVzlEmI2M2QRgGnYfkdpSYo3ClpAJjjqaWiigAooooAKKKKACiiigAooooAKKKKACiiigAooooAKKKKACiiigApDS0UAYHjzwxYeLvDdxouoZRXKyQTIPnt5lOUlX/aU4Irz+18VXPhG8jb4l+G5WvbSA28PiWwszcRXERIyMIDKhOAWG3HTmvXmB7U0Kw9MenagDwe71D4M61cXEnhX4aQeKdbkbzTGnh9rcs7N995J0RepyTknGeDVyCLxh4A8Qz+PfFOnwavY6hbR29/HpyFn0aJC20RrgF4gG+bb82c4Br2wKQCOMUhTKFWXOeue9GwWK2k6lp+radDqOmXcV3aTqHjmifKsD71bHPr+deY654Y1zwRqE3iP4e24ubKWTzNS8OlsRyjvJbdo5O+37p5GM4rsvBPivRfFmk/2hpFwX8tjHcQSDbNbyDqkiHlW9jQBu4+v50Y+v50bhS0AJj6/nRj6/nS0UAIePX86zPEut2Hh7RLrWNTlMdrbJucgZJ9gO5PpWm3SuB+OdldXXgGSW1glnNndQ3csUa7meONssMd+KTA0fCHjiHXtUl0m70XVNB1JYRcJa6iIw8sWcb1MbsMcjPORkcU3xZ45g0XWl0Sx0PVtf1TyPtMtrp4j3Qw5xvYyOoxnsCT7VyMPiLRPEfxXsfE2i6nb3ejaNolwt/fQuHijZ3jYRlh/FhWJHbFQ+OPiNokXiGHTtB8QeG9FvL+wSebWtSnRMQNyoiBI3tjBHUDPIpvoPqemeEvEGm+J9Bt9a0qR3tpweGGGVgcFSOxBrWHJ7/nXK/C+y8P6f4Ls7XwzqsGq6eu4i8ilWQTOTlmLLxnJ7V1S9aCRcfX86MfX86WigYmPr+dGPr+dLRQAhH1/Okx65pTRQB5pqfw/8Zv431TxPo/xKOmPfxRW/kHQ4JhHFGWKLuZsk5djk9c+1O8X+AfGniBtM2/Ek2gsPKkwNCgk8y4VSplOW4ByTt6CvSetJ9OaWjVhtnC+IPBOvXtzY6tpPjE6Tr8VqLS71EaZFMLqMEtgxMdq/MSePWq1z8MVtdO0X/hGPEFzo+s6RFLBDqcsC3byRylTKHRzhixRTk9McV6GKO+KOoep5/P8NF/sDT4rXX7qHxBp97JqEGsSQrK32mUMJXMRO3aQ7gJnCgjHSkPw0W48NT2upeILq912W/TU/wC12hVfLu4wBE6Qg7VRdq/JnB5PevQe+KQnBxTFqcv4G8KXuiXV9qeteIJte1i+CJNdNbrAixpnYiRKSq/eOSPvcZ6V1QpOntSjpRcAFLSCloAKKKKACiiigAooooAKKKKACiiigAooooAKKKKACiiigApG6UtFAFDXNOh1bRb3S7hf3d3A8LHHTcMZHvzmuP8AghqFxN4L/sG/3rqPh6d9LnV33uUjJWFyeOXiCN/wKu+PQ9q81uCPC/xzgudxjsPF1qYXUJwb6BMh2PvEgUUAeljpTXpw6UUAcv8AEDwjB4s0lIvtUmnanaOJtP1CEfvLaUcgj1XI5XjI4rN+GfjO51uS68O+I7VNM8V6Vhb203ZWVDws8R/ijbB+hB9q7h/u1xnxH8Hy64bXXdCuF07xPpeWsbxVGXU8tA/rG2BkeoBoA7WiuT+HfjCHxZpsqzWzadrVi/k6npsjDzLaUfzQ9VboRg11a9OKAFooooAKKKKACiiigAooooAKKKKACiiigAooooAKKKKACiiigAooooAKKKKACiiigAooooAKKKKACiiigAooooAKKKKACiiigAooooApatp9lqumXGm6laR3dncRmOaGRcq6ngg15jaTaj8Ip4tO1CW41DwG2RBfSZebSMnhJT/FEM4DdQOMHGT63UF5DDcW0lvcQpNDKpSRJFDKykYIIPUGgDkvira3GvfC3V7fRYzfzXdsPs6wMG83LqflPToK8w1Twj4nOi+NPK0G7Z57nSJ7eNQN1wsAiMgQZ5YbSMHHNdNdQ6v8IbxryxjuNT+Hzn9/ZIDJPo5zzJGOrw+qjJXjAxmvUNIvrHVNPttT026hvLO5jEkE0TBkdCMggigfNpY8N8YaH4m1CfxfHbeGdXcazBaT2rbFwCgwyP8AN8rjHTke9N8SeENfs/FHiBZE8dXcGtyB4Dol5HHa4YEFJ9ykoBnqN3Ga9+PQ9657TvFelz6Y2oahcWulRieSFftV7D8xTqQQxH4ZyO4FJdCbbmD4p8O3kPwMvvC+nWss92miPaw24k8x2fyioQMQN3PAOBn2rMsfD2rR/EDwVff2XKlpYeHp7eeTaNsMpWPCHngkg10XiP4i+FtEj0aV9UsrmDV7oW9vPBdxGPJ/jLbsFR3xW7d69odnqEOnXet6bBeTgGG3lu0WWTPQqpOSPpVX/EOh4Lb+B/E+nf2Vrc9t4rt4reS/glt9ClRLxRLKHRwG+UoQvTIPNafhvwrrfhDW9P8AHMOheJNUWeScXdjPdJc3yB12rJjCKCf4gDx6mva5dX0mK+FhLqtjHeFggge4USFiCQNpOckAkD0FR6frmiahezWOn61pt5dQf66GC6SSSMg4+ZQcrSu2NKx4dYeGfF95dJqLeF7qwebxp/aQhk2/u4PKYB2wemcZ+tVJ9D8bXt9o9zqOi+Lrq+0/WVnvEkeP7Cib8ZtUByRyCckHGTz0r3G48W+GYor9k8QaVNJp8TS3MUd9GXiA67hu+X059aPAnijTfGXhey8QaU4NvdRhwhkVnjPdW2kgMO4pxvZA9WbqZJzyPY9RTxSJTu9IAooooAKKKKACiiigAooooAKKKKACiiigAooooAKKKKACiiigAooooAKKKKACiiigAooooAY33v8APSuF8YeA5rvXYvFXhLUhoXiFCBLJ5e+3vI+6TRgjdx0bOQcHnFd7RQBwgtfij/0E/Dv/AICv/wDFUv2X4pf9BTw7/wCAj/8AxVd1RQBwv2X4pf8AQU8O/wDgI/8A8VR9l+KX/QU8O/8AgI//AMVXdUUAcIbX4pY/5Cnh3/wEf/4qka1+KJBB1Lw4R0INq3T/AL6rvKOKQHn8em/EqJWSO88MqjfeVbIgN9fm5pkukfESXHmXHhZ8AAbrEnj0616HxRijcDgYbH4mwxiOLUPDaKP4Us2A/wDQqeLX4pf9BPw7/wCAr/8AxVd3RQBwv2X4pf8AQU8O/wDgI/8A8VR9l+KX/QU8O/8AgI//AMVXdUUwOF+y/FL/AKCnh3/wEf8A+Ko+y/FL/oKeHf8AwEf/AOKruqKAOF+y/FL/AKCnh3/wFf8A+Kqxplv8RVv4TqOo6E9mHHnLFbMHK+gO7g12JpD0pAeEeMbvTfFXxpvvD/ij4feJNd03TLS3FmI7VTDFJI8m+fPmg7CEUA4zlG44rpfiR4dt7PUvC18b7Urp4tUgjgSe43JDtidSygAfMw+8TnNWdT+H3iqXxrqnifSfiXe6XLfxRweQukWsyxRRliiAupJwXc5PJz7Cl8X/AA/8WeIDpv8Axcy+tBYiKRRHpFq2+dVIMpyv8WSdo4GeKUl7uhTepR8T+HdJ8cfF680fxTbrqWkabo8U1tYSMQizvK4abgg524X8K5fQNOi8Y6h4T8IeJ55dW0S1sbySS3uJS32uSN41ikcjBOwMw/4FXoWueA9UvL211rS/GV1pPiBbJbG81KOxhkN3CGLBTGw2KdzE5UZ5xTL/AOG0Een6KPDOuXeh6ro0Mlva6l5a3UhikIMqusuQ24qpyeRjihL3vIl7aPU4GDTY7690X4d3NxPL4bGv3kMtpJKWE1vHHK8dsTwdiFUwOuFAzTdX02PSRdfD/S7ia08PXPiOzt2tVlJEVtIE822TPKo/Jxkn5jXoE/w1g/4R+xt7XXL2DXLC8k1CDWWRZZRdShhLJ5bfIQwdwExtUNwOBR/wrWCfwzcWOoa5eXutT3yamdYdFV0u48COVYh8ihdq/IBtODkcmhJ8y123DW2jK/w+0LTfCPxB1rw74fhNno8lpDdR2KyFooZeQzKD0LZGeedor0dOlct4I8K3WhXN9qOra9da/rF9sWe8nhSEeWmQiLGnyLjcckDLcZzgV1SU/mAoooopgFFFFABRRRQAUUUUAFFFFABRRRQAUUUUAFFFFABRRRQAUUUUAB6Vw/xr0i51LwFdXmnJI2p6Q6apZrEQHkkt2Enlg4/jC7D7NXcGm7R+H0oAzPCmswa/4c0/WLZgYryBZBjscfMPwOR+FaorzP4PBfDuueJPh67AJplyL7TY8Y22U+dq57kSJLn6ivSk6UAOpDwPWlooA88+I/hTUl1eHx14NKQeJbJAtxDt+TVLYfegcf3scq3UEDqOK6TwR4o0/wAWaDFqthvhyTHcW0oxLbyrw0bjsQfzGDW9t5rzLx5oeqeFvEEnxC8G2pnkOP7f0qMc6hAv8cfYTKM4/vcAkYoA9NU5FLWT4W17S/EmgWmuaNcC5sruMPGwGCPYg8gjuD0rVDZ9KAFooooAKKKKACiiigAooooAKKKKACiiigAooooAKKKKACiiigAooooAKKKKACiiigAooooAKKKKACiiigAooooAKKKKACiiigApCAetLRQAySNGQxsqsjAqysMgg9jXl2qaTqnw01C48QeGLea+8LSZk1HRIhlrY5y01uOw7lORjOMV6oRmm7aAM3w/rWm+INEt9X0m7jurK6TdFKh49wfQg5BHqK+f/DWn2eo3ngy2vrRJ4P8AhKNQLRuuVOFPUd/xr0HxP4a1jwTrd5428AWpu4rk+ZrPh9TtW8x1mh7LMAOnRsAEjFdt4U8QaP4o0eLVNHnWSEnDIV2yRN3R16qwqWtRS2PANUt9LsPFN8bu0s4NJsPGlv8AfhXybdHhQkDIwoLEnA4yareJFun1TxZpWtaz4Xs9RvtQLWcN3pU1xqMkRVPLa1ZZVyvBxtHBzX1AUQg/u1OTnoOa5rxD428H6DrMGl6xq1vbX0wBRGid8AnA3MqkJ/wIirT1QHlEug3F14x8fTC3F54gtdDs0t5ihDeYYDuKDsx5x3561ieCY21DU/Dsdjrvh2a90+0k+222h6RNHeqDHiRLhzKwD5yAWHLZxX0qNhwy4IYfeHf8e9ZtvrWhyeI7jw/b3tudWt4VuJrZB86Rk4BbjuR0pdSm+p88eEJtL+26fo+npoHihDDcRmNLNotT08FSS10Q22QZwMMvpXrf7O8mnt8I9DjsRb74bcRXKxIBsmXh1bH8QOc+9egCNFJZVUN3IUc09EVVwqhR6AYovo0SCU6kAxS0DCiiigAooooAKKKKACiiigAooooAKKKKACiiigAooooAKKKKACiiigAooooAKKKKACiiigAooooAKKKKACiiigBDSGlauN+L2uX2heCpZ9MlEN9dTR2kErDPlvIcBsd8UmB2GT70m589sV5p4eGpeEviXZeF5de1TWbDVdNlug+pXBmlhljZAQrH+E7zx2wKyPivfatL8RoNLji8cvpUGlefIPDc4hbzTIeXZmUEBewJNAWPYwTjmnLXPfD2903UPCGn3Ok6le6jaGLCXF5KZJ2wTnex5LA5B+ldAOtMEOooooAKKKKACmmnHpSHigBCKUgYpN1G6kAYGKBRu/SgtRcAwPSjAo3fTNLmmAAUtJn8aAcjNJgLRQKKYBRRRQAUUUUAFFFFABRRRQAUUUUAFFFFABRRRQAUUUUAFFFFABSUtFAHmnxSz4d8ZeFvHEbSLbpcHS9TCY2mGYjbI5PaMqf++69JTgelYnjnQLXxR4R1Tw/eqWgvrdozj16g/mBWV8H9fuNf8CWc2oSpJq1mWsdT2DAF1CdkoA7DcDQB2QNFIKWgAppBz+NOooA8o8TWl38MNduPGGi20k/hi+l369p8Ss7W7n/l6iUdBk/OB2Oe3HpmmXtnqVhb6hYXEVzaXMaywTRNuSRGGQwPoQannRJI2jkRXRgQysMgg8EEV5UI3+Eet5TP/CB6jcZZeWOk3EjdR/0xZj/wEt6cUAesbhS1FEyyKskbBkcblZTkMCODmpRQAUUUUAFFFFABRRRQAUUUUAFFFFABRRRQAUUUUAFFFFABRRRQAUUUUAFFFFABRRRQAUUUUAFFFFABRRRQAUUUUAFFFFABRRRQAUGiigBm1q898YeE9U0jVbjxp4CWKLWJSG1HT3bFvqaDrkdFl9GGCe5r0WmHqP0oYHOeAvGGkeMdLku9NaSK4tpDDfWU6lJ7SYdY3U8j2PQjBHBrz2wNiLL4sDXPK3/bnMvnd4PKTy+v8O7dj3zXTeO/A93NrCeMPBdzHpfimHAlZh+41GIdYZx/JhyDg8gYqpoEPgf4k3z6hrHh2OLxJpLiG8tLosstu45GQCA6HqCQaFuHQsaLrmoaB8FdNv57W5v9Yt9IhZrWCNpZmkKgA7FyxAJyeOlec/CDU9Ot/jldN5WvSahqmixteS3elXELNcea5OQ6jYijChjgYXHWvd4dH0yLW5Najs0XUJIRbtOCcmMEELjp2HbtTk0jTE119eW0jGpSW62rXPO5ogxIT0xkk007O4rF8DjinCkHTv8AjTqlDCiiimAUUUUAFFFFABRRRQAUUUUAFFFFABRRRQAUUUUAFFFFABRRRQAUUUUAFFFFABRRRQAUUUUABI9az/EGt6T4f01tS1rULawtFZUMs8gRdzHCrz3JOAO9YvxC8baV4Os4WukmvdRu38qw062G6e6kPRVX07k9gDWF4d8Fahrmsw+LviF5NzqMRLafpaHdbacCMZ/6aSY6seOeB3oA1/8AhZngj/oPW/60f8LM8D/9B+2/WukGn6ef+XG1/wC/K/4U7+zdP/58bX/vyv8AhQBzP/CzPA//AEH7b9aP+FmeB/8AoP2361039m6f/wA+Nr/35X/Cj+zdP/58bb/vyv8AhQBzJ+Jngf8A6D1v+tYHjzxT4E8VeGLnSH8TwWsj4eGdQSYpF5Vh9DXoh03T/wDnxtv+/K/4Uf2dp+P+PG2/78r/AIUmB4xpHiC1fXJvE3iDxp4en1uCwey0wWkUotoQxBZ3D/MWJVenvirGo+Mr5LuC+0f4geHfOltEhvbe9imNusoHMsIXkH2bivXv7N0//nxtf+/K/wCFH9naf/z423/flf8ACmCPOvh94m8B+EfC9tosfieC5aMs8kpGN7scscdhzXQD4meB/wDoP23610v9naf/AM+Nt/35X/ClGm6f/wA+Nr/35X/CgDmv+FmeB/8AoP2360f8LM8D/wDQftv1rpv7N0//AJ8bX/vyv+FH9m6f/wA+Nr/35X/CgDmf+FmeB/8AoP2360f8LM8D/wDQftv1rpv7N0//AJ8bX/vyv+FH9m6f/wA+Nr/35X/CgDmT8TPBH/Qet/yNTWHxA8IahexWNnrUEtxMwWNBnLE9q3zp2n/8+Nt/35X/AAoWxso2DR2dsjA8ERKCD+VJgeVeMvG1tqXxLn8HWPxQ07wi2n28TyMklnJLdTyMw8jbMGwVCAkKA3zj2rY+Idr44tdCudft/HP9j/2bZeb9mtbGGWK7lVclXMqMwDMNoCEH5vXFYuo6R46s/inrniTT/hv4c1azure3t7Z59YWGQmIyMZSDA2C3mYxn+Ecns7xlb/FLWfEFhJN4K0a+0S3hjn/s/wD4SDyd13gE+Y3knzEQ5xgLkgH2oeiVhy02L3i/xh4gm8BWKaNImneJrzR11G5Plb/sMfl7mfY4PUhlXcOowaj1DWfFeuXvhXwzpWuvo0+oabLf32qxW8UkymMoFRUkUp8xcknbxtGKTxJ8NtV8R2Wq6z/wkniTw/rOq2hSfTrHUoXtA4TYqbmh3FTgZxjqaitvBfi7wvH4b1nRbiTxNqel2c1nc2mp36w+cspQhhMsZA2GPgbed554ot7/AJCd+hX/AOEm8aXUGleDk1hINZuNXuNPuNajtU8xLeFXdZhGw8syOIwCNu0biQBgU2+8T+M9J0+68KyazHqGtHWbfTbXV5LaNJFgmC5nZABGXQscKF2nAyOtWz4L8WWlnpXiW2jsLjxLaapcalPpwnMUEyzq6/Z/OIONgkzv2/MU6DPCXXgrxZqel3HiC7jsbPxGdYg1aDTo5y8SrDtAtmmwM79pJcKMbsbTjlK91fYTu1ob/gO48Sad4q1Twv4g15tfWGCK6tL6a2jhmIbO9HEaqhAO3BAzyc13a9OtcV4F0zxJNr+p+KPFVjZaXdXUUdtBYWtybkQxpnLNLtXcWJHG0Yx1Oa7VaNeoxRS0lLVAFFFFABRRRQAUUUUAFFFFABRRRQAUUUUAFFFFABRRRQAUUUUAFFFFADMnNecaJnwz8a9W0k7xp/ia1Go22ABHFcRELKg/2n3l/wDgJr0naM5rgPjfYyr4dsvFFkv+neG71NQi5wPLwUmz6jy3c8+goA71M9+afVTSb621PTbXUrNxJbXcKTwuOjI6hlP5EVboAKKKKAA1X1G0tb+xnsr23S4tp42jlicZV0IwQR6EVYoPSgDyjw7dXnwv12Lwtrd29x4SvpNuiajO5Z7Rz/y6ysf4f7rH1IOMCvVP+BYqh4h0fTte0a50nVbVbm1uEKujD9R6EetcF4L1/UvCXiWL4e+Mbp5lkU/2Dq8xH+noP+WLn/nso7dWAJHSgD08dKKapJFOHSgAooooAKKKKACiiigAooooAKKKKACiiigAooooAKKKKACiiigAooooAKKKKACiiigAooooAKKKKACiiigAooooAKKKKACiiigAooooAa/X37Vxvj7wW+tz2+t6HfnR/Elid1texrxKv/PKUfxxn0NdpimsPTigDivh/wCOk8QXF1oetWR0bxPYMVu9Okb74/56wn/lpGeoI5GRkA8V2lcp4/8ABVl4q+yX0cr6frenEyadqUPEkLY+6f7yHup4/EAjK8LeP/ssreH/AIgvZaF4hgB+Z5Alvexg8Swsxwc91ySDmlYD0KlrA/4TTwh/0M+j/wDgYn+NH/CaeEP+hn0f/wADE/xoQG/RWB/wmnhD/oZ9H/8AAxP8aP8AhNPCH/Qz6P8A+Bif40wN+isD/hNPCH/Qz6P/AOBif40f8Jp4Q/6GfR//AAMT/GgDforA/wCE08If9DPo/wD4GJ/jR/wmnhD/AKGfR/8AwMT/ABoA36KwP+E08If9DPo//gYn+NH/AAmnhD/oZ9H/APAxP8aAN+isD/hNPCH/AEM+j/8AgYn+NH/CaeEP+hn0f/wMT/GgDforA/4TTwh/0M+j/wDgYn+NH/CaeEP+hn0f/wADE/xoA36KwP8AhNPCH/Qz6P8A+Bif40f8Jp4Q/wChn0f/AMDE/wAaAN+isD/hNPCH/Qz6P/4GJ/jR/wAJp4Q/6GfR/wDwMT/GgDforA/4TTwh/wBDPo//AIGJ/jR/wmnhD/oZ9H/8DE/xoA36KwP+E08If9DPo/8A4GJ/jR/wmnhD/oZ9H/8AAxP8aAN+isD/AITTwh/0M+j/APgYn+NH/CaeEP8AoZ9H/wDAxP8AGgDforA/4TTwh/0M+j/+Bif40Hxp4R/6GfR//AxP8aANm7mht7eSe4lSKGNSzu5wqqOpJ9K82Hjnxd4rkdvhv4cs59MVwo1bWZnt7efruMSqrSHHHLKAc8GqnxU1/R/F154c8A6VrtvOmvXjfbfsc6uzWsIDyxsR90Op25/Kp9G8ReKF+Ndv4SudJi0bw9FpU8lpDHNHL9o2NGof5RlMA8Lx1oWo0rlm51b4s6FM13f+H9B1/S0ALLpd063uMfMQkirGef8AazUF98WbTWNPtrL4f2Umt+Ib5SEtJUaJLHBwzXJI/dhSOnLHsDWH498ReLPD1++pah4vt9LvptQSHSfDimB0vYPNCbmJUybmBzwwA71a8Qahofw7+Lmm+JNQlstE07xZYyRatcTusUEdxAoaMsxwN7eYV5PO0ULUR13gTwQuiXk2va3enWvE12uLnUZUxsX/AJ5RL/Ag9B1wK7Ra4b/hcHwox83xI8J/+DWH/wCKoHxg+E46fEjwn/4Nof8A4qgDuqK4b/hcXwo/6KR4T/8ABtD/APFUf8Li+FH/AEUjwn/4Nof/AIqgDuaK4b/hcXwo/wCikeE//BtD/wDFUf8AC4vhR/0Ujwn/AODaH/4qgDuGrjPjBrV/ofgqWXTJvJvbueKzhmxnymkON34VCfjD8JyP+SkeE/8AwbQ//FVheOvHvwi8U+GLnR5vid4WgaQBop01aHMUi8qw+bsaTAn8PJfeEfifY+GP7b1bVtO1XTJbrOpXb3EkU0boPlZiSFIc8dBgVN8VrW6W5fWda8TarpHhi0tdqx6NJcLdSXLNwzeUpJTBHHTPWuO0bxp4TOsTeJPEHxg+H9xrkVg1lpptb1Et4VYgszq0hJYlVzgj8Kk1H4haRDfQ6povxq+HovZrNIL+C+vFktTKBzJEqyAqT6Emm0O+p6F8GNT1LWfhvpGoavdC4u5I23SA5ZlDEKW/2sYzXZp0ryP4d+OPhP4Q8MxaSPij4VupfMaaaY6pAoaRjlsANgD0FdIvxg+FOP8AkpHhP/wbQ/8AxVDJR3VFcN/wuL4Uf9FI8J/+DaH/AOKo/wCFxfCj/opHhP8A8G0P/wAVQM7miuG/4XF8KP8AopHhP/wbQ/8AxVH/AAuH4Uf9FI8J/wDg2h/+KoA7mkrhj8YfhT/0Ujwn/wCDaH/4qpbH4rfDO+vYLGy+IHhi5uriRYoYY9TiZ5HY4VVAbJJJAAoA7QUjVwnibXvF914yk8MeC20OG4sbSO8vptWglkQpKzKixiNlw37t8k5HSm+KPFPizS9R0SP+xLC2tLq7hguZpp/ML742ZljCkbSrADLZBHSk3bUHod7/ACorzj4qfEMeGtTi0Oz1nw5o9+1ut1Jea/IUtI4i5QDAZSzMQRgHjqabqXizxfIfDnh/QZvDd5r+q2ct7NqJilbTVijKg7FV95LFxt+b+FqEg2PSTRXlbfEDxRNpmmaPa6ZpieLbzVJtMdn3vZQtCHZpyqtv8tljO1d24FgCTST/ABC8Uadot3puo6bpc/iqPVodKt2tt4s5XmClJyhYusa7sMC2flODzR15R26nqw4pRXFeBNe8Tza7qfhvxfDpLalZxxzx3OmB0gmjfPGx2ZlK45JODkYrtAaBCiigUUwCiiigAooooAKKKKACiiigAooooAKKKKACiiigAooooAKKKKACiiigAqC+t4by1mtLmMSQzxtHIp6FWGCPyNT01xmgDzz4H3E9jp2r+C76SR7vw5fyW6M67fMgf97CVGTlVSRUz/sV6IDXmnjD/imPi/4f8SqrLZa5GNG1B94CI+S1uSP7zO+zI9q9KHFADqKKKACiiigBCuQRWH438L6d4s0CbSNR3KCQ8E8fElvKDlZEPYg1u00jmgDgvh94mv4dUk8D+Lm8vxBaLut7kn5dTgHSZP8AawMMPUE13wNcp8R/Btt4u0uIJctp2s2L+fpepRAebaTDoR6qcAMvRhwc1W+HHi261gXOheILddP8S6bhLu2JAEo7TR/3o29R0Oc9qAO0BpaaCM8U6gAooooAKKKKACiiigAooooAKKKKACiiigAooooAKKKKACiiigAooooAKKKKACiiigAooooAKKKKACiiigAooooAKKKKACiiigApCM0tFADdvvVLU9H0zUyn9o2NvdeXnZ5kYJXPXBq/RQBif8Il4Z/6Adj/AN+hR/wiXhn/AKAdj/36FbdFAGJ/wiXhn/oB2P8A36FH/CJeGf8AoB2P/foVt0UAYn/CJeGf+gHY/wDfoUf8Il4Z/wCgHY/9+hW3RQBif8Il4Z/6Adj/AN+hR/wiXhn/AKAdj/36FbdFAGJ/wiXhn/oB2P8A36FH/CJeGf8AoB2P/foVt0UAYn/CJeGf+gHY/wDfoUf8Il4Z/wCgHY/9+hW3RQBif8Il4Z/6Adj/AN+hR/wiXhn/AKAdj/36FbdFAGJ/wiXhn/oB2P8A36FH/CJeGf8AoB2P/foVt0UAYn/CJeGf+gHY/wDfoUf8Il4Z/wCgHY/9+hW3RQBif8Il4Z/6Adj/AN+hR/wiXhn/AKAdj/36FbdFAGJ/wiXhn/oB2P8A36FH/CJeGf8AoB2P/foVt0UAYn/CJeGf+gHY/wDfoUf8Il4Z/wCgHY/9+hW3RQBif8Il4Z/6Adj/AN+hQfCfhn/oB2P/AH6FbdBoA8p+LOjad4Xl0Hx7pukwovh+8L33krhltJQEnk4HO1BnFbo0WbVPifpPjaxurSXSBo81uHSXLu0jRspUAYIwp5zXaTRLNE0UsayRupVkYAhgeoPtXnNt8Ptf8Kyv/wAK88QpY6axZhomoJ5tojn/AJ5tgvEvX5FwvPShAUfFHhfx/rWn33he7i0TUNNu52aPWLi4YXVtEz7goiCEEqOAd46ZpsQh8SfGPSNHtbhbzT/BemuL5nAZJridQiKf9pBFuP8Av1of2B8WNdtZbPxD4n0TQoXIBfQIneV0/iXdMoKZ5GV5Gah1f4WLo8Vrqvw5vP7D1+yQjfM7PDqK5yUuRyXyScPyy54oQHoh07Tf+gfaf9+V/wAKVdN00j/kH2n/AH5X/CuY8CeOLbxBdTaLqVq+jeJbRM3elzkbsdC8Z6SR5/iXOMjNdiuAPSgCt/Zmm/8AQPtP+/K/4Uf2Zpv/AED7T/vyv+FWgw9aWgCp/Zmm/wDQPtP+/K/4Uf2Zpv8A0D7T/vyv+FW6KAKh0zTcf8g+0/78r/hTG03TQP8AkH2nX/niv+FXW6VyvxR8Q3PhrwfPqFjGkl9I6W9or/d81zhSfbNJgbv9nab/ANA+0Bx/zxX/AAo/s3Ten2C0J/64r/hXD+G9U8S6L4+g8J+JtbTXF1Cwe8tro2scDRsjKrR7UABB3ggnnirPi/8A4TO88RTW2l6zF4Z0W0s/Pk1NreKYyyZ+4RJkKoHOfagDsP7N07/oH2n/AH5X/ClGmab/ANA+0/78r/hXOfCTxDf+J/A1jrGpxIlzJuVmjGElCsQHX2OK65aewJ3Kv9mab/0D7T/vyv8AhR/Zmm/9A+0/78r/AIVbooAqf2Zpv/QPtP8Avyv+FH9mab/0D7T/AL8r/hVuigCmdM03/oH2n/flf8KRdO09GDpY2qspyCIVBB/KrhpD0xQHU+etb0HQ7X42a94h1D4N+JdYiaO2+z3lnaRuHukMhklXMy8ENGM452ngd+p+J/iPVb0+HxY/D3xndiG4h1CbybSE7FKNmNsyj94CQCOme9etUEc+lS0nGzG3dnlPiL7VpnjqHx9/wheva1banoqWEmn29tFJc2rpI8gLozhRndjgnpWToWg+IvA8XhXxBJ4evNRitbK6tr3StKCzT27SujRhA5UFV2Nu5HJGAa9s7UemaezuJ+9ueNDR/E9idH8dNoN5LNFq9zfXWkw7ZLz7NMkiRqoJC+YN6llzgYYAmm6jo/ibV7O48aR6DeWlwmuW2oQ6VcbftclpCF3qUB2rKxDbV3EdOecD2fvS4+lCSTTttsKyas1ocJ4CfVdb8W6r4rv9D1LQ7OSCK1s7bUAqXDbcmR3RSwUZ27TuOeeBXeDpSd8daUUJdhjhRSClpgFFFFABRRRQAUUUUAFFFFABRRRQAUUUUAFFFFABRRRQAUUUUAFFFFABQelFFAHKfFbw7N4o8Calpdmyx6h5fnafKRnyrmP5onx7MAan+G3iGPxV4I0nXoldftMAMiuMMjj5WBHbkdPeujbpXmvw/A8M/EzxN4PfzEtb9hrOmlyNrbztmRB6IRH/AN90Ael0UUUAFFFFABRRRQAx+vb/AArjPiR4Qn1qODW/D1xHp3ijTAWsLtlJV17wyDI3I2PwOPeu2prnBFAHK/DbxhF4u0mR5rOTTNXs38jU9Om+/bTDqP8AaQ4JVu4wa6yvPviN4Z1KPUo/HXg5UTxFYx7Z4CMDUrcDLQN/tcfKT3AHA5rf8CeKdL8Y+HodY0xnQEmOe3kG2W2lH343HYg/nwe9AHRUUUUAFFFFABRRRQAUUUUAFFFFABRRRQAUUUUAFFFFABRRRQAUUUUAFFFFABRRRQAUUUUAFFFFABRRRQAUUUUAFFFFABRRRQAUUUUAFFFFABRRRQAUUUUAFFFFABRRRQAUUUUAFFFFABRRRQAUUUUAFFFFABRRRQAUUUUAFFFFABRRRQAUUUUAFNPX0p1FAHJ+P/BGmeLIbe4eSXT9Ysj5lhqVt8s1u/1/iU91OQfrzWP4V8bX2n67D4N8fRRWOtyAixvVG211MDvGT92TuUyT3r0Q1k+J9B0fxJpjaZrWnw3tsxDeXIucMOQR6HPegDRVlB+8PrkVJvX+8v51ww+FfgoKF/s6Q+n7007/AIVV4L/6B0n/AH9NAHb71/vL+dG9f7y/nXEf8Kq8F/8AQOk/7+mj/hVXgv8A6B0n/f00AdszJj7w/OuX+Jnh+TxP4SuNNs7qKC8V1uLWR+VWZDlc+2aoH4VeC/8AoHSf9/jR/wAKr8F/9A6T/v8AGgDJ0rTPGGpeKT4w1zR7HT73TtNks9P09L5ZlmdyrM7SADaCUAAxxmsvxzpnjnX9asZNR8I2+q6NFaRu+nR68ttGbrq287CXUHgDIBxyK6r/AIVX4L/6B0n/AH+NH/Cq/Bf/AEDZP+/xpMLm/wCFZLx9Dg/tDR7fRJlG37FDcrMkQHQBlAH6Vrqy/wB5fzrif+FV+C/+gdJ/3+NKPhX4L/6B0n/f00/MFodvvX+8v50b1/vL+dcR/wAKq8F/9A6T/v6aP+FVeC/+gdJ/39NAHb71/vL+dG9f7y/nXEf8Kq8F/wDQOk/7+mj/AIVV4L/6B0n/AH9NAHbFlx95fzppZSPvL+dcWfhX4LH/ADDnP/bU1Ppvw58J6bfw31pp7RzwOGjbzCcH6UmBs+J/EWheF9MOqeItWs9KsQ4Qz3UoRAx6DJ79ail8WeGovDkHiSXXtPTR5whivWmAicOQFw3fJIH41558TpvGv/C5PCcOg6Rod9bCyvZYVv8AUJYQ7jytxYLE4BUbdp5zubOMDOz8UNC0/wD4QO51SfR7KHVY0TMkK7vLZ5o2kCsQOCwznAzUzlyRuU1Z2Ow8QeIND8O6MdY1zVbTTtPUrm5uJAkY3dOT61DH4r8MyeF/+EpTXbBtCEfmm/Ew8nZ67umK4vxHHDN8SfhrDeDcqwXbwRt91pBb88dyBgiuS1W2sP8AhNrez2IunSeO0dkQAJJdeS+VYDrxjg+lX2M1JdT2DRvFnhrW/D8viDSNc0++0mIOZLyCYNEoT72WHTGDn6UeFPF3hfxXZT33hvXtO1W2gcxzS2swdUYAHBI6cEV5B8U4bOPXfE0KqsNpc6lo39oeWNoZ/Oh2B8evA5HIPpVj47w2trdeKXt1W2EnhPZfvCApW3Dy4JI5GPmxxURalHmQ768p6l4V8aeE/Fct1F4b8Rabq0loQLhbWcSGInOM46dDXQivPNRtLG2+JXg97K3gjnXTLiNfLAB8jMWR64ztr0NelOLuPrYUUtIDS00AUUUUwCiiigAooooAKKKKACiiigAooooAKKKKACiiigAooooAKKKKACiiigBH6V5t8aw2i/2H8QbcbW0C7xesELM9lLhZVAHOdwiP4V6SwyKpa1psGraPeaZdKrw3MTRMCPUdaALSSCRFkRgysMqexFSDpXAfBDUpp/Bp0C/eVtR8PTvpVx55/eOsRKRyt/voA4+td8OlAC0UUUAFFFFABQQD1GaKKAEPAzXmfjTQtQ8KeI5viH4QtWmaYD+39Mjyft0S/wDLVF/57KO45YAA5wK9MIyMUgXGefr70AZvhvXNP8RaJa6zpFwtxZ3KB43H8iOoI7itMV5N4hsLz4X+IrjxdoNu8/hXUZvM1/TkJJtHP/L1Avp/fXvwRjGD6jpt9aahYW99Y3Edza3EayQzIcrIpGQR+FAFmikBzS0AFFFFABRRRQAUUUUAFFFFABRRRQAUUUUAFFFFABRRRQAUUUUAFFFITgZoAKK5vVfHXhDStei0LUvENha6nKQEtpJMMSelYl18VvDOmeMtY8Oa/eW2kHT2hWKaeb/j4MiBuFA4xnHWhagd+aAa53xF438J+H1tW1rxBY2QuwDB5j/6weoxWhb65pFxqX9mw6lbSXn2f7T5SvljEcfP9ORzSA0s0ZrlNS+I3gbT7WG6vPFGmwwzyPDG7S8M6MVYdOxBH4Vsanren2GgXGuTXMQsYYDOZt3yFMZzkUeYdTTB4oryjTPjb4dvNI8NarOkFrZ6wJPtErXORZMiklW+X5jkY7V2y+NvCjeGD4mXXrE6PnH2wSfJn09c+1CA6E0E8VmeHdf0fxFpianoeoQX9m5wJoWyufSuUn+I6R+I9W0f+zbeM6dqFrZebPe+WJfOUNlRtPIzjb39RR1sHmd7mlzXK2/xE8D3GrQ6TB4n0576dzHFCJOXYHBX65BFWdY8beE9H1qDRdU1+xtNRuMeVbyPhmz0p6gdDRzVLWNW07R9OfUNUvIbS0QjfNK2FXJwMn61k6H468I64bsaT4gsbw2a7rgRv/q19T7UtQOjzSc1yrfEbwKulz6ofFGm/YoCglmEmVUuMr9cirUvjbwnHodtrkmvWC6bdPsguTJhJG9B7+1MEdACaWuOj+KHw+lS1ePxbpbLdSmKE+b99x1Xpx1HWtDXvG3hTQdTttM1jXrGyvbnHkwyyYZsnA+lAkdBk0AmvOr34saFD4v8Q+Gons2utG04XheS62LK2CWQnadoUBSW5+90rcvfH/hTSotOGua5p2nXN/GskULT7s59Djkc9eKGM6qjNc34j8d+D/D0ix634hsbFzCJwssnJjJwHAHbPetrTb+z1KxhvrC4jubWZd0UsbZV19QaWoFuikBzS0wCiiigAooooAKKKKACiiigAooooAKKKKACiiigAooooAKKKKACikLYNQ3N5a2sXm3VxFAn96Rwo/WgCeiqdtqmn3TFbW+tZ2HVY5lY/kDVrf04oAdSYFKORRQAYooooAKKKKAEb2puaca5H4neIdR0HR7KLRYIpdU1S/hsLVpgTFA0hx5rqMFlXqVBGfUUdQOsyaMt7VxXgTV/Ew8Q6n4Z8WXGm3t5Zxx3EF7YwNAkyPnIMTM5UqQBncc56CpPin4m1HQtCeLw+ttNrk8Uj2yTqWjjVFLPI4BBIAB7jJ4zUtpAtTshzSisnwhf3Gp+GNO1C7Mf2ieBXk8tdq7u+BzgfjWsKa2AWiiimAUUUUAFJgUtFAHGeL/hl4U8Va9Drmrx6t9vhhMMUlrrF1ahEPUBYpFAz3OMnAz0FVtT+Evg7UtEtdGvv7ensrYuURtfvdzbmDHe3m7n5AxuJx2xXeUmaGFzkZPhv4Vk8L2/hySDUZLO2k8yCR9TuGuYm77Jy/mr6YDdOOlTr4A8Kr4TPhcac39nl/MJ+0SeeZf+evnbvM8z/b3bveunzQTQmO5zOk+AfCum+HbzQYNOaWzvTm6a5uJJ5pj2ZppGMhK8bSWyuBjGBTfDXgHwr4fs721stPkuEvl8u6fULmS8kljxjyy8zM2zr8mdoyTjk11ANFAXOX8IeAfDPha8mvdJtrtrmVPL828vprp40zkpGZWYxqTjKrgHAz0FdR7UA0UXELiiiigAooooAKKKKACiiigAooooAKKKKACiiigAooooAKKKKACiiigAooooAKKKKACkpaD0oA8zuv8AilfjrBcZji0/xhamBwActfwJlCTjGPJRhz3r0vIAriPjTpM2peBbq7svNGoaQ6anatEuXLQkOyL7uqsn/AsV0nhbVode8N6frUAwl5bpNt7qSOVPuDkfhQBqUUDpRQAUUUUAFFFFABRRRQBG8ayRtG6B0YYZWGQQeoxXk87zfCLxBvbzJPAGpz5dyxP9jXDt6doGY9vulucKM165VTU7Gz1Kxn0+/to7m1uIzHNDIoZHQjBBBoAsQSRyxLLG6yI6hlZTkMD0IPcU+vNNC8P+PvCEc2jeH7vTdV0RHLWA1Et51sh/5ZblI3KDnBPODjtWl9p+KnbTvDP5yf8AxdAHc0Vw32n4qf8AQO8M/nJ/8XR9p+Kn/QO8M/nJ/wDF0AdzRXDfafip/wBA7wz+cn/xdH2n4qf9A7wz+cn/AMXQB3NFcN9p+Kn/AEDvDP5yf/F0fafip/0DvDP5yf8AxdAHc0Vw32n4qf8AQO8M/nJ/8XR9p+Kn/QO8M/nJ/wDF0AdzRXDfafip/wBA7wz+cn/xdH2n4qf9A7wz+cn/AMXQB3NFcN9p+Kn/AEDvDP5yf/F0fafip/0DvDP5yf8AxdAHc0Vw32n4qf8AQO8M/nJ/8XR9p+Kn/QO8M/nJ/wDF0AdzRXDfafip/wBA7wz+cn/xdH2n4qf9A7wz+cn/AMXQB3NFcN9p+Kn/AEDvDP5yf/F0fafip/0DvDP5yf8AxdAHc0jZ28Vw/wBp+Kn/AEDvDP5yf/F0fafip/0DvDP5yf8AxdAHjvxSuNcvn8ZaVtvrGd7tWj0uy0Uyfbo1dSJ2ucc8Z+XJPtW1p2uaXo/jfxjeatoupzRavp1pDZSrpcri4Jtl/c8L8uT13YAPUivRvtPxU/6B/hr/AL6k/wDi6DdfFT/oH+Gvruk/+LojoNu55p8PoZvhxcXUnjiyv7n+0tMSOyljs3udq75G+ykRhtuA69cDnrxUd7o3iTwd4I8Ka9b6Xdy6mkUuly20Cb5Le3uMbQQOoRlX6V6f9q+KajjT/DX03Sf/ABdKbj4pdf7P8NZ/3pP/AIugR5Nd+H9W8DeJHiuteutKtLrSoYIZLfw+NSW4faPOjOAShZ97c4B3da9b+G+iXWjfCmz0mWS7lnS0kC/akVJQG3EAqpIHXoDTRc/FLHGn+Gh/wKT/AOLpDcfFLP8AyD/DX/fUn/xdHSwdbnmvgCza7j+FME2m3ZOlvNDdLNaOoglWJxzuXHXoeh7GsrW9J8QQeKdS1iKe90rS7HxRLNNcLpn2rYGtogsiwkfON2eQCQc16+br4p8/8S/w1/31J/8AF0fafinjP2Dw1/31J/8AF0LTUOtzJ+B2n3Am8Qa4+rahqMOpzxss1zpaWCyMobc6xj5ucjJYA8CuK8T6dqL+P/EEsen3jxv4m0qRHEDbWVUTLAgYKjue1dlc+NvE8GvLoFxqngSLVnwFsXvGE5J6DZvzVfWPiHrmjaodK1bXvh9p9+u0G1uL8xyDd935TJnnIxQ3dg/haOSXRbmP4KaiqaTcJeSeJXnIW2bzCfOOHAxnpjmqGt6brdrq3inQtU1/UrSXWdQaWCyt/Di3gu4mI2ETkYTb1wxXb2r0XWPGfizRJLSPWtT8Dac13/x7i5uzGZv9wF+al17xZ4z8P2sVxr154J0qGZtscl3ctGrH0BL8mh73C9tCv8abWSw+AU1nd+bdPb21tFLvA3ylSoOQDjJx64rn7q6g8XazpmpeG7C+itdJ0C5gvZJLKSDLOibIQHUb8bW6ZHPWrvxJvPEt/wCDWh8Sap4O0nSbwoUvWuzGr4IZdrM+OeK6XTb74ky6dbyWUHhe5tjGvlTJI7K644IIfBoje7Dqjg/DNgnhXRfhr4k1DSbiPR7LSPLvEhsmeS2uXUYlaNQXz95eASN1VrjR7rU9Rh1hNJuhoup+MLa7tLd7dgRGqxK0rJjKAsrHkD1NenLc/FLtp/hr0+9J/wDF0puPinz/AMS/w1/31J/8XQC0TR574i0aY2Hxeli0mUzXckIiZbdt0wB/hwPmH0zUdjPH4csPFmleI9H1C61HxBax/YGSxeUXYMO1Yy6ghNrED5yvTNejfafil0+weGhgcfNJ/wDF0C6+KeD/AMS/w0D2+aTH/odCA8obTNY0dPFGkapa3j3134Kjjtylu8gdkMpKblBXcoZRjOT2zWj4fuYfCceuxeJtK1CeXXNNgXT3SwkmEwCMPJO1TsKlh9/A969F+1fFPB/4l/hrjtuk/wDi6X7V8U+n9n+G/wAGk/8Ai6Jaodzhvhh4c1LTfiNo0etafIZbbwkIt8ke5YmM3+r39MhTjGegrr/2fLe4tfhjZwXNvNbyJcXH7uVChUea2ODzirRufilj/kH+Gvpuk/8Ai6DcfFPH/IP8Nf8AfUn/AMXVOVybHcJTq4b7R8U+2n+Gfzk/+Lo+0/FT/oHeGfzk/wDi6kZ3NFcN9p+Kn/QO8M/nJ/8AF0fafip/0DvDP5yf/F0AdzRXDfafip/0DvDP5yf/ABdH2n4qf9A7wz+cn/xdAHc0Vw32n4qf9A7wz+cn/wAXR9p+Kn/QO8M/nJ/8XQB3NFcN9p+Kn/QO8M/nJ/8AF0fafip/0DvDP5yf/F0AdzRXDfafip/0DvDP5yf/ABdH2n4qf9A7wz+cn/xdAHc0Vw32n4qf9A7wz+cn/wAXR9p+Kn/QO8M/nJ/8XQB3NFcN9p+Kn/QO8M/nJ/8AF0fafip/0DvDP5yf/F0AdzRXDfafip/0DvDP5yf/ABdH2n4qf9A7wz+cn/xdAHc0GuG+0/FT/oHeGfzk/wDi6PtPxT/6B3hn/vqT/wCLoA1PiP4pi8JeHG1H7M95dzypa2Non3ri4kO2NM9gSRk9q5jTvhdp+sA6n8SmTxVqU5EjW12N9lanHCxQt8oxkjdjJ71jeIpfGs3xS8Ax+J7fTIdL+1XTMLTcQZREpi3FicfN0xjmut+L2tappPhmKPSdN1W7mvZ1t5JdPsnuntoyDuk2ICTwMfjUt2QGBpXw/wDhDrr36+DtL03Sr/TpzbTXuhw/ZJoJR/DvQDOPQEjtWr8ONb1+z1u98C+MrmO71WzQXFlfom0X9oSQGI6CRSCGA7YPeuR/ZqutKt9W8W6LpOl6zaW6XyyIbyxkiwNgHzs44kJ5wee9avxeXVj8VvAI8L3WnweIGi1IRfb4nkt2h2Rb/MWNlYkcbeQMk1Qkz1penPWlrzr7P8b8f8hb4d/+Cy8/+P0fZ/jh/wBBb4df+Cy8/wDj9Az0WivOvs/xw/6C3w6/8Fl5/wDH6Ps/xw/6C3w6/wDBZef/AB+gD0WivOvs/wAcP+gt8Ov/AAWXn/x+j7P8cP8AoLfDr/wV3n/x+gD0Q9DXF/FbR9W1HTNMv9Gg+03mkalBqH2YEBrmOM5eJCxCh2HQkge9Z/2f43/9Bb4df+Cu8/8Aj9HkfG//AKC/w7/8Fd5/8fpNaoCHRn8XXF5r/jNvCc9ldyW8Vvp2kXdzH577T87OUZo1B4IwxPBziqPi/wAC+M9Zl1TxDpfiz+ybzUdLFu+nHSoLgoPL5gWZzkKXyfTJJrU8j43f9Bf4d/8AgrvP/j9H2f43/wDQW+Hf/grvP/j9Ftw6m58L9K1vRfBOn6f4g1I399EmGc26Q7B2TCEg49feuoFed/Z/jf8A9Bb4d/8AgrvP/j9H2f43/wDQW+Hf/grvP/j9CWgHotFedfZ/jh/0Fvh1/wCCy8/+P0fZ/jh/0Fvh1/4LLz/4/TA9Forzr7P8cP8AoLfDr/wWXn/x+j7P8cP+gt8Ov/BXef8Ax+gD0WjIrzo2/wAb/wDoLfDv/wAFd5/8fqbTofjF/aFt/aOqeAnshMn2hYNOu1kMefmCFpiA2M4JBAPagDvs0Dp0rxj43eIrGTxxoHg3VtL8V3mkTwz3V2mkWV0zTsmzywskGGIGW3AHjK56iui1jwX4TufBlt/bl5riaFp8DzRQS6jPbPCpHG91ZZWZR8oDsc55yeaBtWPReOlJxXlng3wy/iD4T6VbeOL7UjawtNNt+2vA0luJGNuZJYyr8RbD94Z/izzXJabHqk/hLSvDcepahH4d1fxQ1vZyPcu08ulbCRGJc+YMsD8xO7jrTtq0K59AHFLleP614L4ijvPCVv4g8HeHdUvoNPubuwjtxNctcSWkczxrOqu5MnzhnwSxKk8YxUviy3m+GieItO8Half20M+hefbx3d092Le6DOvnAylnyQF+XO3jgdahSuroV0e6n8qB0ryrQfDlp4I8faJBot9qZttWs5Vv4bq+kuFmlXYVlAlZihGWGEwvzcjpXqa8UJ82wx9FIKWqQBRRRQAUUUUAFFFFABRRRQAUUUUAFFFFABRRRQAUUUUAFFFFABRRRQAUUUUAFBoooAjYbuGAIPBB6GvOPhER4f1vxH8PXZVXTLj7dpybiW+xzktk8cfvfOGOegr0rArzX4obvDvjjwr44j8xYBP/AGTqQQEhopiBGz46LGxZs9t1AHpMf3fX3p1NjwRkYwRTqACiiigAooooAKKKKACiiigAooooAKKKKACiiigAooooAKKKKACiiigAooooAKKKKACiiigAooooAKKKKAEo7UtFACCjFLRQAlBpaKAEPSo5d2DtPOOKlpCoJpPYEeC/D3w7q2sS+JvBPiXw7ppsE1Brm41W11NmuFdyGRVJiGWGw5ORjOMVb1Gz8T+H5/F3jbTta8O3dhFciaWzltfOmlSFdpQzEjy3wMY2tzXZRfCXwpBfXF5a3PiO1e5nNxMlvrt3HHJITySiyAHp6Vb1D4ZeEb7V31Ka1vA0jrJPbx30qW07r0aSENsc8dWBproBx/hM6f4k8VeM9R1q1iPm6fbiKO4wTHatFuxz0G5n59qwfgf5msa1pX/CRqLnyfC8f2P7Qd2UYjzGAP0XJr1bxR8PvDPiO9ivL+2uYpkiELG0u5LfzYh0jkEbDen+y2RUniTwH4b16GyjurWe2NlGYreSxuZLWRIz1j3RkHYcDK9DinF2jYfU8Z+CedQ+I0NhqSJPplna350pJfmQgXsqnaD1wnH0Fei/AjK6HrdrEc2NtrU8VkA2VEWEOB7bi1b2r/D/AMMalpNhpr2lxaRaeNtrJZXUltNGCMECSMhuec885Oa29A0fTtC0qDS9Ltlt7WBcIg5+pJ6kn1NC0Jn7zuXRTqMUUhhRRRQAUUYoxQAlKKKKQBRRRTAKKKKACiiigAooooAKKKKACiiigAooooAKKKKACiiigAoNFFAHK/E3wzN4o8NNZ2F4LDVLWVLzT7ojIhuIzuQsO65AyO4rG8K/EzTbiVtG8WIfDniG2+W4trv5Y5Mf8tI5Push7E4PtXoRAqhrmh6LrtkbHW9JsdTtT1hu4FlQ/wDAWBFIDkda8Z/DrwZa3mrf2jYq93J5syWH7+W6lxgDCZy3YZxXDeCfGH274jQ+NPF9lJptjrNqtr4cmaUPbwqHbekh/wCWczHr2wAM8V614e8G+EfDsrTeH/C+i6RI33msrGOEn6lAK86v9F0nwr4juPCOuWFlP4C8VSH7NFMg8u0vW+9Dg8KsnBXH8W+mB66nT1HY1IvSvKLG91n4USpp/iC7udW8GM+201SQmSfTgThYpzyzp2EnP+0a9RtLiK5t0nt5UmhkUPHJGwZHU9CCOooAnopBS0AFFFFACNXM+NvGOn+FRZxz2eo6nf37stpp+nxLJcT7cFyqsyjCggnJHWulk9+lea/EC+sdE+LHhHXNYlgs9MW1vYGv7l1jhtpCqYDu2ApfoOecUmB13g3xNp/irSG1CwjurcxSvb3NtdR7JraZT88cigkBgeuCR71U8deNNI8HR2TalHdzyXlwsEUNpGJHyTjcQSMKOpPsetcx4I8TaLYxa14hur4JpWpa41vZXAR2jnbJAZDj5kbsw+U9jXF/E7UPGcCa9qGqfDzV7jzLyGCzu49QsxBHbpMuxUUyb8uRuJIyC+OAKzlKVlbcF1Pf4m8yNXU8MARUgrP8PXFxdaHZXFzYyWE0kKl7eV1ZozjoSpKn8DWgK1a1FHYWiiigYUUUUAI1J05pTTT6+lAHn/jbwb4v1jxrp3iTQfGVho40+2lggt59G+1cy7fMYt5qZyETAxxg9c1neJ/APj/X4tH+1fETTC9hI8s8beHd1vdPnMbNH5/Gwe5yefatLxF4q8UT+Mrzwz4P0zS5bjT7SO7u5dSkkRGVywVYwgJJ+RuTx0qn4o+KY0H4eWniG88PapFqVyoUWJtJGEcm4K3mOBhF54JIzUt3WoSfcPFngbx14i8OWOl3fxB09Jobky3TpoP7m8j42xPF533cjn5uas3XgbxJqmg29trniywuNU029S90i8tNH+zx2sqKyjfF5reYuGPG5an8WeMNUsrfwzY6PZ2L6z4gH7j7Y7rbxYQO24r83Q4GKPCnj17vwnrmqa7aQ211oVzLa3otWLwyOgHMZPJB3Ac81SQl0Kx+G02paFq8PiXxA+p6zqU0Fw19DbeRHBJAytB5cO5sAFFLDd82DyM0sXw5u9WsdZj8deIv7fudVsP7OaS0tPsUcNvyRtj3PiTczZfPTAxxVCz+I2u6SdPvvG2ladY6Xq1tJPYvZyO8kWyJpfLmDcbtin7vGeKk0Xx74kW/0e88RaRptnoeuuUsJLeV2nhJ/wBWJgfl+bjG3NJbWQ33sa/hbwfr1p4gj1rxR4pTXZrS3a2sI4LD7JHEjFSzSDe+9/lUBuMc8c1269Pwryqz+JGvSwWXiWfSLBPBt9dC2hmV3+1opOFlZT8uwkY9eeleqrjn2puNhdRwpaQUtJDCiiimAUUUUAFFFFABRRRQAUUUUAFFFFABRRRQAUUUUAFFFFABRRRQAUUUUAFFFFABWJ440C18U+EtU8PXm4Q31s8LFTgrkcEHsa26aw/KgDkPg74im8R+A7K5v9q6paFrLUowc+Vcx8OufbiuwB56V5poWPC3xt1XRWcix8T2x1OzTb8qXERCz8/3n8xDj/ZNeljGfegBaKKKACiiigAooooAKKKKACiiigAooooAKKKKACiiigAooooAKKKKACiiigAooooAKKKKACiiigAooooAKKKKACiiigAooooAKKKKACiiigAooooAKKKKACiiigAooooAKKKKACiiigAooooAKKKKACiiigAooooAKKKKACiiigAooooAKKKKACiiigAooooAKKKKACsPxn4d07xV4dutE1JCYp1yrr96Jx92RT2YHoa3KZtPPXmgDg/hprlzrGm6h4Q8XfZ5/EOj7YNSjKfLdRtnZOFP8LgE47VBpfw/1rw5Lc2vg/xVJp+kSymWPT7qHz0tWblljOQQhOTgk4J444qX4p6RqFlcWfjzw6oOraMrfaoAv/H9ZHmSI+4wHB5PyY711/hnWdP8QaFZ61pcwls7yJZomxg4IzgjsR0I7EGgDmP7A+If/Q7WX/gu/wDs6P8AhH/iH/0O1n/4Lv8A7Ku5BFFAHDf8I/8AEP8A6Haz/wDBd/8AZUn/AAj/AMQ/+h2s/wDwXf8A2Vd1RQBwp0D4hf8AQ7WX/gu/+yqve+FfG17Abe+8VaVdwE58qfSRIhPurMRXoDZ7VyvxZ1jUPD/w81nVdIMS6jDbn7K0gyiyH7pI7igEZC+FfGy28dsvivSlgix5UQ0kbEx0wu7Ax2x0qWTw749mjCS+MtPlTglW03cCR7FvWszw/pepeD/HelWP/CU67rNjq1nIbmLVLo3JWdSpVoy3Ma4LAqAc5HpXY+MNCl8QWCWf9u6ppFurF55NOnMEzgDgCUcqAevqOKm6eoutjEGgfEH/AKHazA9Bp3/2VKNA+IX/AEO1n/4Lv/sqg+Cc+qzaJqsF5qF5qdha6rLBpV9eSeZNcWoVNrM/V/mLjccE46cV361TBHEf8I/8Q/8AodrP/wAF3/2VH/CP/EP/AKHaz/8ABd/9lXc0UDOG/wCEf+If/Q7Wf/gu/wDsqP8AhH/iF/0O1n/4Lv8A7Ku5ooA4U6B8Qv8AodrP/wAF3/2VWNM0XxvDqEE194utbm1VgZIlsdpcemd3FdietI3TFIDwr4jaJow+NNrrF54G8V31vFaMbm70y3uJUupSR5anY4wEwx9PmruPiJJe+J/hJqR07SNUS5uo1EdnPblLg4kU8oeR0rsL/UdN08R/2hqFnaCQkL58yx7vpkjNWHkiWHzmmQR43byw249c0PVWYPU8j+Jmh3d5aeDW1bQtT1fw9YwD+0LDT0Y3KzeWAhwuHIDYyFI6U3wX4Pvrr4ceK9Ct7C70nSdRmd9Isr5Ss8SnB+fPzDJAxuJPXk16+rKyB1ZWUjcCOQR7U22mguIhLbzxTR8gNG4ZfzFNOwHh2u6PrvxI07Q/Ddx4e1TRf7ItZhfXF7AY4mmNu8KrC3SRdzA5HYVcgs9c8VQ+FPCt34c1XSxoU0ct/eXMBjgYw4EYhfpJuxn2zXr1nqWnXk8sFnqFpcyxHEiRTK7J9QDxS2upabc3clpb6haT3EX+sijmVnT6qDkUXG22jxK30jxBceCNL+Fcvh3VIpbG7jWfU2hK2Zt423B1k6FiQBtr3he/1PSqY1LT2vmsE1C1N2oyYBMpkA91zmrq8UNt7isKtLSCloAKKKKACiiigAooooAKKKKACiiigAooooAKKKKACiiigAooooAKKKKACiiigAooooAKQ0tFAHnvxzsrmPwzaeKNOiaTUfDl5HqESq23enKSKe23Y7MQf7orttJvbXVNNtdTsZVmtbuBJ4JFOQ0bgMpH1BFS31vFeWs1pcLvhnjaORfVWGCPyNcB8DriSw07V/A95KXu/DV81suV2/6M/wC8twB6CJkXPtQB6NRSCloAKKKKACiiigAooooAKKKKACiiigAooooAKKKKACiiigAooooAKKKKACiiigAooooAKKKKACiiigAooooAKKKKACiiigAooooAKKKKACiiigAooooAKKKKACiiigAooooAKKKKACiiigAooooAKKKKACiiigAooooAKKKKACiiigAooooAKKKKACiiigAooooAKKKKAI3x1zn1ry7T3f4c/Eg6TNI//CLeJrhpLBivyWN6eXiJ7LIeRnqz4FeqmsrxVoOleJNHk0nWbRbm0kKsUJwQynKsCOhBAIoA0lBz0Ip9cGvws8K4C51Ptybxqd/wqvwt66l/4GNQB3VFcL/wqvwt66l/4GNR/wAKr8Leupf+BjUAdy1Ynjjw/b+KvCepeHbuaa3iv4GiM0P348/xL7isE/CvwtjrqX/gY1J/wqzwrn/mJf8AgY1DAg8P+GfGtxrq614u1PRXuLGzktdOj0yCRU3PgmWUyZO4bRgLgcnI6VW8Z+GfiVq3gvTtIsPEmjNfecx1WW6glRLqHJIjXyiGTjAJGDitD/hVfhX11L/wMaj/AIVZ4V9dS/8AAxqlpB1NP4e2PijTtLNl4ji8ORLDhbWPRopUjRPQiQnn6V04rhf+FWeFfXUv/AxqUfCzwr66l/4GNVCSO6orhf8AhVfhb11L/wADGo/4VX4W9dS/8DGoGd1RXC/8Kr8Leupf+BjUf8Kr8Leupf8AgY1AHctSHp0rhz8K/CvrqX/gY1T6Z8OfDem38F9bG/8ANgfem+6ZlB9x3pMDz3xpDeS/G+S01jwH/wAJRYappwj0xZ7q3KW/lEmaVVc4TiROfvHHtWh8XPCF1pXwZbTbDxXrEFppiKWTEbNcp5igI7EZwM9iPeur8RfD231rxQ3iOPxR4n0m+MAt8afdxpGEBJ4DRt68/hWreeFLW/8AB0vhjUtS1S/t5VCyXM0ym4fDA5LBQM5HpQ9Ugb1ON8ceLrDRvCvhzw2+u2OiXesWcSG7urlIRbwBBvcFiBuxkL7iuW+FmtW9p+zRqf8AYOpQXd3p8cqt5M6tIhZgATg8ZGTzXtqaRp62dvayWcFxHbxLFGZ41chVAA5I9qzPCngzQ/Dfhp/D1hAz2UhfzRNtLSBuoJAGfahaMOljxvx/a23gXw34S1rwfbR2upXNjPHcTQKFkvF+xSPvkI5dgwD7jk8da0LjTNP8NaJ8PvEWg2cUer3lxCl1PEoEt2swBk8xusmMnrnFegeHPhroWj36XLXmq6nHBC8FnbahOssVnGwwUiAUEDaSvJPFL4e+G+i6NrEGpR32rXiWZc2NneXCvb2W8/N5ShQRn3Jp9Rt3VkeWQWVpbfBnQPHsFup8US30NxJfqB9oleR9rozdSuCfl6cdK+iR1NcNb/DLQbbWY78XmqtaRXJuodLedTZRTHPzqm3OeT/FjnpXdJnPpTk03clIcKKQUtIYUUUUAFFFFABRRRQAUUUUAFFFFABRRRQAUUUUAFFFFABRRRQAUUUUAFFFFABRRRQAUUUUANbrXm3i4nwz8XfD/iTc4sdaiOj33z4jjfl4XIJxuZtsfrzivSiK5f4qeHpPEvgTUtNtghvlQXNgXGQt1ERJCfXh1WgDp+9OrnPhv4hh8VeCdK1yGRX+0Q4kIOf3iEo4/wC+lNdGKACiiigAooooAKKKKACiiigAooooAKKKKACiiigAooooAKKKKACiiigAooooAKKKKACiiigAooooAKKKKACiiigAooooAKKKKACiiigAooooAKKKKACiiigAooooAKKKKACiiigAooooAKKKKACiiigAooooAKKKKACiiigAooooAKKKKACiiigAooooAKKKKACiiigAoIoooAQKBS0UUAFFFFABRiiigBMCjFLRRYAxRRRQAUUUUAFFFFABik2ilooAQKoo2r6cUtFACFRRtFLRQAm1fSjaKWigBAo9KABS0UAFFFFABRRRQAUUUUAFFFFABRRRQAUUUUAFFFFABRRRQAUUUUAFFFFABRRRQAUUUUAFFFFABRRRQAUjdKWkbpQB5v4B/wCKa+JPiXwg+8Wl6y6zpxYjaBJ8ksSD0Uxhsf8ATSvSRXmfxtX+w5dB+IcMab9Au9t9Ieq2MuBPz/wFK9IjZXjVlIKkAgr0IoAkooooAKKKKACiiigAooooAKKKKACiiigAooooAKKKKACiiigAooooAKKKKACiiigAooooAKKKKACiiigAooooAKKKKACiiigAooooAKKKKACiiigAooooAKKKKACiiigAooooAKKKKACiiigAooooAKKKKACiiigAooooAKKKKACiiigAooooAKKKKACiiigAooooAKKKKACiiigAooooAK5vxn468J+Dvs//AAkmtQ6ebgnylZHdmx1OFBIHueK6Jq840hbdvjv4ma4XNyugWgUuOBB5s/TtjduzS1vYG7HodndW15axXVrPHPBKoeORGyrKehBrO1TxNoOl63p+i3+qQQajqJYWlu2d0u0ZOMD2PWuS+EWoadp3wy0lFkgWIwSPYQRMu6aJRkCJR97jpivL7rx1od14m0HXNVtPECatc6sd6N4evUFvABiOJS0Q3HAVmwT8xY9Khz6oHsfSlFRxMHjWRd2GAYZGDg/WnjrWgC0UUUAFFFFABRmg9KSgBc0mRQKbQA/IoptFADs0ZptB60dbAOzRkU2igB1FIKWgAooooAKKKKACiiigAooooAKKKKACiiigAooooAKKKKACiiigAooooAKKKKACiiigAooooAKKKKAKOu6ba6xo95pd7GstvdQtFIjDIIIrj/ghqN3P4M/sPUZJpNS8P3D6XcvL9+UxHasp9QwGQa73GB6V5pcKvhX45w3XlpHp/i+18iVycZvoFzGoHvEJT+FAHpg6UUDpRQAUUUUAFFFFABRRRQAUUUUAFFFFABRRRQAUUUUAFFFFABRRRQAUUUUAFFFFABRRRQAUUUUAFFFFABRTWYhuhxSBqLgPopM0UALRSE0mT9KAHUUzc2KQM3egCSimbj2pNzf0oYElFNBNLmgBaKSigBaKbk0ZPNADqKaCaUUALRRRQAUUUUAFFFFABRRRQAUUUUAFFFFABRRRQAUUUUAFFFFABRRRQAUUUUAFFBpCcUALRSZpCT2x+NADjUF5cQWsDT3M6QxL953YACsnxn4r0Xwjozarrl2IYtwSKNVLSTOeiIo5Zj/+viuKsPC2r/EK/h13x/bta6NFIJdO8OFsrx92S5xw75+YLyFOOaAO6/4SXw/nP9tWP/f4Uv8Awk3h/wD6DVj/AN/hVJfAvg3J/wCKY0rn/p2Wl/4QXwb/ANCzpX/gMtAFz/hJvD//AEGrH/v8KP8AhJvD/wD0GrH/AL/Cqf8Awgvg3/oWdK/8Blo/4QXwb/0LOlf+Ay0AWz4m8P8A/QZsf+/wrmvGOl/DXxg1u3iKXT7xrfPlMt68LAHsTGykj2ORWy3gXwbg/wDFMaV/4DLVG58O/Dm1vobG60vw9b3c5BiglEaySdhtU8np2osPUklfwHJeabdtNpSTaYpWyKyBfIBGCFAOOntVnUNT8I389rNealYSy2cvmW7Gf/VvjGRg+hpD4G8Gj/mWNK+n2dag/wCER8B/bPsX9haH9qC7/J8tPM2/3tvXHvSdthaXNUeJvD//AEGbD/v8KB4m8P8A/QZsf+/wqkvgXwb/ANCxpQ/7d1pw8C+Df+hZ0r/wHWi4Fz/hJvD/AP0GrH/v8KP+Em8P/wDQasf+/wAKp/8ACC+Df+hZ0r/wGWj/AIQXwb/0LOlf+Ay0wLn/AAk3h/8A6DVj/wB/hR/wk3h//oNWP/f4VT/4QXwb/wBCzpX/AIDLR/wgvg3/AKFnSv8AwGWgC2fE3h7/AKDVj/3+FPg8QaJcSpDBq1nJI5CqqygkmqJ8C+Df+hZ0r/wGWpLTwf4Vs7mO6tfD+nQzxnckiQKGU+oNDAx/iBr+uW2saT4Z8Lz6da6tqYmmW61CBpoIYoQu/KK6Esd4x8w6Gk1BfibNpFpBp974YstRjDG7vbi0lmt5scDZEsqsm773LtgDHPWuD+MXhqw1T4r6Nq998ItQ8W2VrYTR3dzDBbOJSxXylxLKpOwhzyON/Ga0vGHiHxbceHtJ0rQvhr4qsNNuQ8d6sH2QXNpCvyhEXz9vzjoQ3Az9KWyHLQfY/EXxPr+geGrPRLXTLTxBrNxdwSXNxG81pALV2V32KyswfYdo3cZwScVLN498WW+kjRJbTS5PFkmtDR4540c2fKlhctHu3BMAgpvznHNRXEWrxjwp4q0bwPrltBoXn2s+iS+QL2WKSPYrpiQxnDEscuCRVe50HxXc20XjVdEniv49fXU/7HMiNdNZqjL5R52CbLZxuK4H3qbEXbzx94q8PaVrena9a6ZqPiCyuLWCzmsI3iguPtDKquY2ZmURlxuG47gpxin3Xjjxb4Ot9ch8aRaRq91Y6X/aVpJpMT2wnOWUweW7ud2UzvzghhxxVDWNA8VeLNP1rxIuiT6PdPdWc2n6bfSIbh47d0aRXCFkVn2MEwxHIJIp2v6N4o+Iltr95/YN14YeTSfsOnQ6tInmPcZZi7LEzr5eGUA7skg8DjKina73Fd3N/wAMa544sfFdjo/jN9Du4tVtXntpdNgeA2zoVzG6u7+ZkN94bQNp45r0Jelec+HpPEHijxnpmo6j4V1Lw9ZaRbSI/wDaEkW+5nbbtMYjdwUAVslip5Xjrj0cUlfqALTqQClpoYUUUUwCiiigAooooAKKKKACiiigAooooAKKKKACiiigAooooAKKKKACiiigAooooAKKKKACiiigANcN8adFm1XwNPdWOV1LSJU1KycIGdGiOX257tHvX/gVdzUTJuBVgGVgQVI6jvmgCh4X1mDXvDmna1boyx3tsk21gQULKCVIPcHjHtWoDmvMvhK8fhvWvEnw/nYRR6ddte6bvfmS2uD5hbnsJWkX/gIr0ZLm2Ax9ohx/vigCeioftVr/AM/EP/fYo+1Wv/PxD/32KAJqKh+1Wv8Az8Q/99ij7Va/8/EP/fYoAmoqH7Va/wDPxD/32KPtVr/z8Q/99igCaioftVr/AM/EP/fYo+1Wv/PxD/32KAJqKh+1Wv8Az8Q/99ij7Va/8/EP/fYoAmoqH7Va/wDPxD/32KPtVr/z8Q/99igCaioftVr/AM/EP/fYo+1Wv/PxD/32KAJqKh+1Wv8Az8Q/99ij7Va/8/EP/fYoAmoqH7Va/wDPxD/32KPtVr/z8Q/99igCaioftVr/AM/EP/fYo+1Wv/PxD/32KAJqKh+1Wv8Az8Q/99ij7Va/8/EP/fYoAmoqH7Va/wDPxD/32KPtVr/z8Q/99igCaioftVr/AM/EP/fYo+1Wv/PxD/32KAJqKh+1Wv8Az8Q/99ij7Vbf8/EP/fYoAwfiXquo6L4G1jVNJt2nvba1d4lDKuCB1+bjj0rkdL+IPiKLwfo15N4N1HU9Rn0/7XeFLiGOOONQMuZDhCTnIQc+1dr4xtU1rwtqelQXkEct3bPEjFxgEjjNePXngPxRqEWlDV9I0DU44NLFiltNq7LHZSAAeeu1B5u7+6cY9anUDt9R+K1jHaeHJdJ0PUNXm8QJIbSGAqGDopLK2enIIz071W174tHTbbVtRt/CWpX2kaQ3lXt7FPGFSbCkxhSdzY3DLDisnwT4K17S7rwK99JpSr4fN4lx5V1ncsiuEZRj/aGR29TXJ/EKbUtK8F+OtF0C40PUNIudQZpZWvtlzbSts3QCLad54BDbh1PFXLyHDW1z03VfiY0M1zJpfhbUdV0/T0V9TvIpURbTIyQFbmQqMk7c4xWLbfEvUI/iXra3ttIPCNnoUWpR3AkjO1Wywk2j5zu+7t6gjOOa5q/+E+3VL5k8N+Hdcj1QrI13f6lJE9m5HzgxLxKBk45WtnxB8Nru81XUrC2m0uPR9S8PRaa0ouNpt5YixUiLnchJHG4YHrQrWF1Op0/4j7Lz7P4l8OX3hxJrV7uzluJo5FuI0xu+59xvmX5Wwea5y9+JHiO/8S+C4YNBv9C03WL1mWWdopReW/ksy9MmM8A4ODWb4e+FttdXEo1Lwt4a0BY7N4FntdRku5ppGxhwW2iNRt5XDZz14q9beH/Hd/qvgyHV4/D9vp/hmc7p4b4vJdqIWjVwu0bM5Hy5P1pAu7O98beLToF1p+mWOk3Gs6tqLOLWyhlWJmVAC7F3+VQAR1rzfS/iVrlxdajJqcmo6ekPiSLT0tRFDvhQpIzRsSvzL8g+Yc8cHrXa+P8ASdSm8R6L4s8Ntp11qWliWFrS6uvKSeKUAEbwDtIxxwetcRF4E8W3slze6lNokF3d+I4tUZYrrcsUSxyqVyQNzAuPTPPSiPxXYpHaeHviRJrWqAWnhXUn0V7qS1TVYpEkQOjFSXjX541yD8zACm2PxOW6u4rkeGdSXw7PcG3i1kOrRs4yMmMfOqZB+YjHFcbF8P8AW5/F8F49loelSR3rS3Gu2OosJL2EsT5bW2Nqkr8pO4+tavh/w7400/SbXwKLrRofDttLJv1RbrdcTwMS3leTjCnLH5tx6dKFsV1NzS/ihHd3Vjcz+HL+z8PalMIbDWJJUMczH7hMY+dA2OCwA6VOfiZYjwdqHiX+yrvyrLUHsWh3ruZlk2bgemO9cvY+EfFFxo2ieB9TOjp4e0eeJxqUd5unukhOY18raNhyAS249OnNZur+C/G39hav4T01dCfTbvVTqCX8t/tkZWk3mMx7eDnI3bj9KBHTal8Wmt7/AFpLXwfql5Z6HOI9Ru0njVYlIGHCk5fr0HPFZ0vxQ1Ow8e6++oafM3hez0yG6hkWSLgvt2tj73zFgMHpnnpVtfBuqDRfHln9o08ya7ceZZZueMbVHzccdD61nt4N8UWuo3EljJokkd3oVvZSPPPuCSxBMoUx8yttI3ZGM5wcUlfqD6Hc+CPFmoa9cvBqXhXUNFJhWeCWSRJ4Zo2zjEkeVDccqTkV1wPNeSfCjwjqGg+JbrVJLHTPDVhJAsbaXY6o11FPLk5myyrs6/dGenWvVBcW+f8Aj4h/77FUxdSxRUP2q2/5+If++xR9qtf+fiH/AL7FIZNRUP2q1/5+If8AvsUfarX/AJ+If++xQBNRUP2q1/5+If8AvsUfarX/AJ+If++xQBNRUP2q1/5+If8AvsUfarX/AJ+If++xQBNRUP2q1/5+If8AvsUfarX/AJ+If++xQBNRUP2q1/5+If8AvsUfarX/AJ+If++xQBNRUP2q1/5+If8AvsUfarX/AJ+If++xQBNRUP2q1/5+If8AvsUfarX/AJ+If++xQBNRUP2q1/5+If8AvsUfarX/AJ+If++xQBNRUP2q1/5+If8AvsUfarX/AJ+If++xQBNQah+1Wv8Az8Q/99ig3Vt/z8Q/99igCUntXneq/E43OoXGneB/DGo+L7q1lEU8lrIkFsh5zieTEbEY5AJPNHxk1K4u7bRvB2j6lHa3viO8+zPIrZdbVcG4KY6MEPB7VN8QL+H4bfC6aTw5HY6eLRY4bbzoi0SEkAswBBbjJ65NICgfiR4p0kG48X/DDWdI08YLXVpdRahs5xzHBlgB1JxgCtDxH8TtAttJspvDcieJtT1Rf+JXYWEgdpznG5iOEQEEMzYAwc074Wa7ea/Ddzz+NNA8TW6nYBp2nPbeUf8Aa3SPn9K52y0nRfh98cohY2tta2fi+0mkyQFW3uLcAuQTwocOvAxyDTA6Dwf4Hu5NWTxZ44uItV8Rcm3jAzbacD/DCvTcBx5hyx555rvAp9aqrqmm4H/ExtP+/wCv+NL/AGppv/QRtP8Av8v+NAFoDmlqp/amm/8AQRtP+/y/40f2ppv/AEEbT/v8v+NAFuiqn9qab/0EbT/v8v8AjR/amm/9BC0/7/L/AI0AWW5OK8Lm8PaH4g0n4lazrFpBfapbalLFb3cibp7BUgiZUhcfPFgsW+Ug5YmvaW1PTc/8hC0/7/L/AI1w3iHwH4R1rV7q8k8RX1naX7iTU9MtL+OO01FsAEzKQWJKhVO1l4UUpK6aA3bnxFbaF8PB4k1mRY4razWWZpG2jPAAJPTJIGT0zXk3gfxH4Pufi9pmrHxZ4cvdb1axbzzb6lFKUdmOy3Uqx+6u0YHUjPevWP7J8N/8JJLrrajFLNLaC0aB7pGt9gIIOw8Z4HNN/sPwd/wkltr6HTYry3hMMYQxBME5zgDrz1zUON5KXYlr3bHUqMU4VTGp6b/0EbT/AL/r/jSjVNN/6CFp/wB/l/xqyi5RVT+1NN/6CNp/3+X/ABo/tTTf+gjaf9/l/wAaYFuiqn9qab/0EbT/AL/L/jR/amm/9BG0/wC/y/40AWmpv86rHU9N/wCghaf9/l/xoGo6e7BUv7VnJwoEykk/nSYE+05759aXHavCvH8lpqXxnm0Txd4Z8Saxp1xYoNFS1hPlRyqW8+UYdScAx/MfyrX+Kmi+LNF+DX2Gz8YArYIq3U8lmTPcx71CqGDjYcdTg59qV9LgeudeM8/ypxUfQivEfiZfalfXPgHwla6ZJqlrqNoZriy+1G3W52RAqJJACVUEZOB0qz4Z1geHvhf4ui06zvNNv9HldW02S4+0JZs2ABFIQCydwT71Woj2XH1B/SgjoSO9fPniyBfhjovh3xN4ckuTqGp2k66k7SM5vH+ySSiVgTgEOoPGKuppsPg6z8F+LtLa5fVNXuIY9Ucys32wTAElgTgbcnGBQNqyPdccZ6jtT16V872tuLX4aaN8V45bj/hKLu7imubjzW/epI+0wlc42DOemeK+iFxQ0xXFFLRRQhhRRRQAUUUUAFFFFABRRRQAUUUUAFFFFABRRRQAUUUUAFFFFABRRRQAUUUUAFFFFABRRRQAUUUUAFJ3paKAOa8S+CPC/iLU49T1fSILm9ih8hJyMOI8ltmfTJJ/GqA+F/gk/wDMFj/77NdpRQBxf/CrvBP/AEBY/wDvs0f8Ku8E/wDQFj/77NdpRQBxf/CrvBP/AEBY/wDvs0f8Ku8E/wDQFj/77NdpRQBxf/CrvBP/AEBY/wDvs0f8Ku8E/wDQFj/77NdpRQBxf/CrvBP/AEBY/wDvs0f8Ku8E/wDQFj/77NdpRQBxf/CrvBP/AEBY/wDvs0f8Ku8E/wDQFj/77NdpRQBxf/CrvBP/AEBY/wDvo0f8Ku8E/wDQFj/76NdpRQBxf/CrvBP/AEBY/wDvo0f8Ku8E/wDQFj/76NdpRQBxf/CrvBP/AEBY/wDvo0f8Ku8E/wDQFj/76NdpRQBxf/CrvBP/AEBY/wDvo0f8Ku8E/wDQFj/76NdpRQBxf/CrvBP/AEBY/wDvo0f8Ku8E/wDQFj/76NdpRQBxf/CrvBP/AEBY/wDvo0f8Ku8E/wDQFj/76NdpRQBxf/CrvBP/AEBY/wDvo0f8Ku8E/wDQFj/76NdpRQBxf/CrvBP/AEBY/wDvo0f8Ku8E/wDQFj/76NdpRQBxf/CrvBP/AEBY/wDvo0f8Ku8Ef9AWP/vo12lFAHF/8Ku8Ef8AQFj/AO+jR/wq7wR/0BY/++jXaUUAcWfhd4I/6Asf/fZqo/wf+HMl4t5J4Zs2uFHyykZYfjXf0UAcX/wq7wR/0BY/++jTW+GPghT/AMgSPPb5jXbVFKC2RnHHX0qZbDR4VfT/AA1tp7i5XwTqk2g2tz9mudcjKfZonzg5BfzCMkDIUjmtn4gaZ8LfBdrpsupaOZX1G7itbaG3bLuXYLuwSBtGck//AKq5b4Za14O0XxV4i07UfinHLo0V8yQ6VqMlqBPKx/eMV2BiMhduMDrVT4zQ+MFN9rep+EIbmJtVsodMu01aLYkC3MZRVjxlTIQMnPG704qrK6RK8zq/FOn+AdF1iXTLPwPqOtT2tuLi9NiUxaxHOC+9lz0PC5PtTdYtfhvCumrofhK88R3F/bG8jg09kDJbjGZGMjKAOQMZyc8A0+28SWfg/wAZeKbjxj5ekTaxbxXNlFNMrCU7NpgjYcOwK5wP7wrD+Gskfw31HS7rxrcLpdte+H44oZbkhI45EIJhyejHPA6nFFlYpvU1buP4ayWGmzaH4RvddvtRV5ItPs2VZkCEh93mMqrtKsDz1GBXR+EPCHw58T6LFq2n6LiOQlXSUkSRuDgow7EV578OJI/BPi2Hxd4quBpOiavbXgtrm5OyOIvdySoGJ+7uUgj1zXpfwLgn/sLVdUkjkittV1aa8tFdcHyWVFBx2BKkinbQU9GaH/Cr/BH/AEBY/wDvo0f8Ku8Ef9AWP/vo12felpAcX/wq7wR/0BY/++jR/wAKu8Ef9AWP/vo12lFAHF/8Ku8Ef9AWP/vo0f8ACrvBP/QFj/76NdpRQBxf/CrvBP8A0BY/++jR/wAKu8E/9AWP/vo12lFAHF/8Ku8E/wDQFj/76NH/AAq7wT/0BY/++jXaUUAcX/wq7wT/ANAWP/vo0f8ACrvBP/QFj/76NdpRQBxf/CrvBP8A0BY/++jR/wAKu8E/9AWP/vo12lFAHF/8Ku8E/wDQFj/76NH/AAq7wT/0BY/++jXaUUAcX/wq7wT/ANAWP/vo0f8ACrvBP/QFj/76NdpRQBxf/CrvBP8A0BY/++jR/wAKu8E/9AWP/vo12lFAHF/8Ku8E/wDQFj/76NH/AAq7wT/0BY/++jXaUUAcX/wq7wT/ANAWP/vo0f8ACrvBP/QFj/76NdpRQBxf/CrvBP8A0BY/++jR/wAKu8E/9AWP/vo12lFAHF/8Ku8E/wDQFj/76NIfhf4J/wCgKn/fRrtaKAPGvHnhXw54F8R+E/HFjY/ZLbTb57e9kVuEiuAsZkbPRV6k9q734gwahdaBHLpOk2OtyRTpObO5ClZ0GfuFuA/IIJIHvW7q1hZapp1xpuo28dzaXMbRTQyLlXUjBBFec2uj/ETwLbSWvhmS28W6KhP2SxvpxBd269oxOflZB23At70NXAteDdL1zUfiPfeNdS0Ofw9DJp62KWU8sbzSsHDeY5jZl4AwOc1mePNN0vxz8YdB8L32n2Or6VolnPe6tbXMAlj3ygLADkFcgo5x1wR61e/tT4va7bNa2/hfSvCLEhWvLu/W+Kr/ABFFj24brjdkdMg1m/8ACtdb8GzL4k8B6vcX+tvzq8GpSBk1gZJ5bjy5BkhSuFHcGi4HSD4P/CjHPw38JfhpMP8A8TR/wp/4T/8ARN/Cf/goh/8Aia1PAvjHSvFtlK9qJbW/tiEvdPuAUntX/uup57HB710ienNAHD/8Kf8AhP8A9E38J/8Agoh/+Jo/4U/8J/8Aom/hP/wUQ/8AxNd1RQBwv/Cn/hP/ANE38J/+CiH/AOJo/wCFP/Cf/om/hP8A8FEP/wATXdUUAcL/AMKf+FH/AETfwn/4KYf/AImg/B/4U/8ARN/Cf/gph/8Aia7h68+8VeI/GF340n8LeCU0WGawsY728utWhllicSM6rEgjdSGGwkkkjBHFJgWP+FP/AAo/6Jv4T/8ABTD/APE0v/Cn/hP/ANE38J/+CmH/AOJra8Ca6/iTwpYa1La/Y5riPMsAkDiN+67h1rkvFnibx94Y1O11bUYfDr+HLnU4LAWUaS/b1E0oiSTzd/lnlgxXZnHHXmnu9ANL/hT/AMJ/+ib+E/8AwUw//E0v/Cn/AIT/APRN/Cf/AIKIf/ia7gUoo1A4b/hT/wAJ/wDom/hP/wAFEP8A8TR/wp/4T/8ARN/Cf/goh/8Aia7qigDhf+FP/Cf/AKJv4T/8FEP/AMTR/wAKf+E//RN/Cf8A4KIf/ia7qigDhf8AhT/wn/6Jv4T/APBTD/8AE1LY/Cr4Y2N7BfWXw/8ADFtdW8iywzRaXErxupyrKQuQQQDmu170negDgfFPgfX9T8aJ4n0rxvPpMsdt9nigOmw3CRAn5ipfoTxn6CtTVvC13rXgS48N6xrkt1PcKFlvltkjYkMG4QfKOldXSGk10A47xJ4JXVLLRmsNXn0vVtFULZajHErlRtCsGQ/KwYDkH1p/hnwRY6Xoep2d/dTavc6u7SajdzKFadiMcKOFA7AcCuuxRTuJbHnOifDFILq1GveILnX7HT7d7fTLSe3SMW8boUILDmQ7CVy3PNP0D4bNYarYS6j4ju9V0zSSzaXp0sCotsW9XHMmO27pXoVLQO55xafC+OC+ht38QXUvhu2u/tdvopt0CJJzjMn3mUZOFPFeir19ad+FAFFwF70UUUAFFFFABRRRQAUUUUAFFFFABRRRQAUUUUAFFFFABRRRQAUUUUAFFFFABRRRQAUUUUAFFFFABRRRQAUUUUAFFFFABRRRQAUUUUAFFFFABRRRQAUUUUAFFFFABRRRQAUUUUAFFFFABRRRQAUUUUAFFFFABRRRQAUUUUAFFFFABRRRQAUhApaKAIDZ2hbcbWAn18sVI0UbfeRWHoRmn0UARSW8EjBpIY3I6FlBxSywQygCWJJADkBlBwakooAjkghkQJJGjoOisoI/KnKiqAFAAHAxTqKAExS0UUAFFFFABRRRQAUUUUAFFFFABRRRQAUUUUAFFFFABRRRQAUUUUAFFFFABRRRQAUUUUAFFFFAARSFQaWigBNoo2jFLRQBxHj3wJHrWpW/iPQr59F8UWSlbe/iGRKh6xTL/HGcDjtgHtim+BvHf9o6k/hfxLZjRvFVtHuktWbMdyvTzYG/iU+nUenGa7crnvWD4z8H6L4stIItUgYT2r+baXcLmOe2f+9HIPmX3weRwaAN5S3cU6uFHw6AGP8AhLfEufX+0JMn9aX/AIV3/wBTd4l/8GEn+NAHc0Vw3/Cu/wDqbvEv/gwk/wAaP+Fd/wDU2+Jf/BhJ/jQB3DV5n4jfW/CfxFv/ABHbeGtW8Q6fqunQ2yRaXGjTQTxu5Yyb3UBCHXBBJyG4rTPw7/6m3xL/AOB8n+NH/Cux/wBDb4l/8D5P8aVtQGeC4fEnhvS/Dmh3OiC5a5V31S5iuMx2b4zgZALjPGeK5N/EfiLUfiCbrxB8OPGZsNNumi0yK1toHt3Odv2mRjMCfUDbwMHrxXXf8K6X/obPEvt/p8n+NL/wrsAj/irPEvH/AE/yf40rWYrHbxsWjVtpXIBweo+tPrhB8Ohj/kbfEv8A4Hyf40o+HY/6G3xL/wCB8n+NV1Gd1RXDf8K7/wCpu8S/+DCT/Gj/AIV3/wBTd4l/8GEn+NAHc0Vw3/Cu/wDqbvEv/gwk/wAaP+Fd/wDU2+Jf/BhJ/jQB3B+lIa4c/DsZ/wCRt8S/+DCT/GrGm+BRY30N3/wk2v3HlPuMct67I/sQT0pPYCr4j8aa6viq68OeE/D1tq13YWqXV813eG2REcsFVCEcux2txgDpzVDxD8XtE0TwDZeJr6zu4bm9G2CwkiYOZMgMpIBCgE9TXIfEO10C0+ONtql9D40t4xZE31xpiX7xXDA/uYx5AIAX5yR0O6u4+JN2fEfwg1S40i11CQ3MSCKGS1kjmbEi/wDLNgG/MUdEwfY6a98RWmn+Eh4i1H9xALVbhlX5jllB2j1POB61h+B/iBb+IPht/wAJte2J063CSO8PmbyoXpzgcmsrxN4c8YatZeFZdFbRDa6dbxSz2Wq+coecINpPljPykA4PcVzXwx8O+K9R+A+raDq9rbWc1z5otI0WWOTO7J3hwMZwMYojuC2Ol034m39vNZT+LdAh0XS9Ut5LjTbmO7MzOqRmUrKpRdj+WrHALdMZqTQ/iNq02o6XJrfhyHTNF1piumXaXhkkJ/h82MoBHu4xhmrifEdpqHxN0vQfDNnpOp6fcaXaTnUZLu1khjimNs8SojsAsmXYcqSMd6uRG98XW3hDwlHpGq2Vzok8UupzXFrJFFF5IAUJIwCybsZ+UnHem1oNpW0Oks/ihfzNa6zL4eij8I3l39lt9SF0TNuOdrtFswIzjGdxPTivTQeTXgFvb6ldfD/SfhT/AGRqker2V3FHcXBtZFtlhjfd5omI2HOANoOeele/LjJpyST0J1H0UgpaSGFFFFABRRRQAUUUUAFFFFABRRRQAUUUUAFFFFABRRRQAUUUUAFFFFABRRRQAUUUUAFFFFABRRRQAUUUUAFFFFABRRRQAUUUUAFFFFABRRRQAUUUUAFFFFABRRRQAUUUUAFFFFABRRRQAUUUUAFFFFABRRRQAUUUUAFFFFABRRRQAUUUUAFFFFABRRRQAUUUUAFFFFABRRRQAUUUUAFFFFABRRRQAUUUUAFFFFABRRRQAUUUUAFFFFABRRRQAUUUUAFFFFABRRRQAUUUUAFFFFABRRRQAUUUUAFFFFACGilooATtS0UUAIaWiigAooooAKO9FFACHtSEHFOooAjAb8PrRhsd8+tSUUWAjKnJ4pcNnueafRQBGQ2e5/Gggnrk1JRQBGQxGBx6ZpVBAp9FACDrS0UUAFFFFABRRRQAUUUUAFFFFABRRRQAUUUUAFFFFABRRRQAUUUUAFFFFABRRRQAUUUUAFFFFABRRRQAUUUUAFFFFABRRRQAUUUUAFFFFABRRRQAUUUUAFFFFABRRRQAUUUUAFFFFABRRRQAUUUUAFFFFABRRRQAUUUUAFFFFABRRRQAUUUUAFFFFABRRRQAUUUUAFFFFABRRRQAUUUUAFFFFABRRRQAUUUUAFFFFABRRRQAUUUUAFFFFABRRRQAUUUUAFFFFABRRRQAUUUUAFFFFABRRRQAUUUUAFFFFABRRRQAUUUUAFFFFABRRRQAUUUUAFFFFABRRRQAUUUUAFFFFABRRRQAUUUUAFFFFABRRRQAUUUUAFFFFABRRRQB/9k=&quot;&gt;" style="text;whiteSpace=wrap;html=1;" vertex="1" parent="DR4r57PZJUJLHKagL7Pu-20">
          <mxGeometry width="40" height="40" as="geometry" />
        </mxCell>
        <mxCell id="DR4r57PZJUJLHKagL7Pu-19" value="" style="group" vertex="1" connectable="0" parent="DR4r57PZJUJLHKagL7Pu-20">
          <mxGeometry x="970" y="100" width="1260" height="640" as="geometry" />
        </mxCell>
        <mxCell id="DR4r57PZJUJLHKagL7Pu-2" value="From (6)&lt;br&gt;E(X) = 30000 * 0.6 + 18000 * 0.3 + 12000 * 0.1 = 24600&lt;br&gt;Net gain = 24600 - 1500 =&amp;nbsp;23100" style="text;html=1;strokeColor=none;fillColor=none;align=center;verticalAlign=middle;whiteSpace=wrap;rounded=0;" vertex="1" parent="DR4r57PZJUJLHKagL7Pu-19">
          <mxGeometry width="320" height="80" as="geometry" />
        </mxCell>
        <mxCell id="DR4r57PZJUJLHKagL7Pu-3" value="From (6)&lt;br&gt;E(X) = 30000 * 0.5 + 18000 * 0.2 + 12000 * 0.3 = 22200&lt;br&gt;Net gain = E(X)" style="text;html=1;strokeColor=none;fillColor=none;align=center;verticalAlign=middle;whiteSpace=wrap;rounded=0;" vertex="1" parent="DR4r57PZJUJLHKagL7Pu-19">
          <mxGeometry y="80" width="320" height="80" as="geometry" />
        </mxCell>
        <mxCell id="DR4r57PZJUJLHKagL7Pu-4" value="Ergo if we get to 6 we should choose the additional sponsorship to maximize net gain" style="text;html=1;strokeColor=none;fillColor=none;align=center;verticalAlign=middle;whiteSpace=wrap;rounded=0;" vertex="1" parent="DR4r57PZJUJLHKagL7Pu-19">
          <mxGeometry x="340" y="70" width="160" height="30" as="geometry" />
        </mxCell>
        <mxCell id="DR4r57PZJUJLHKagL7Pu-5" value="From (1)&lt;br&gt;E(X) = NG(6) * 0.6 + NG(2) * 0.4 = 23100 * 0.6 + 21000 * 0.4 = 22260&lt;br&gt;Net gain = 22260 - 10000 = 12260" style="text;html=1;strokeColor=none;fillColor=none;align=center;verticalAlign=middle;whiteSpace=wrap;rounded=0;" vertex="1" parent="DR4r57PZJUJLHKagL7Pu-19">
          <mxGeometry x="550" y="70" width="380" height="30" as="geometry" />
        </mxCell>
        <mxCell id="DR4r57PZJUJLHKagL7Pu-6" value="From (2)&lt;br&gt;E(X) = 30000 * 0.4 + 18000 * 0.3 + 12000 * 0.3 = 21000&amp;nbsp;&lt;br&gt;Net gain = E(X)" style="text;html=1;strokeColor=none;fillColor=none;align=center;verticalAlign=middle;whiteSpace=wrap;rounded=0;" vertex="1" parent="DR4r57PZJUJLHKagL7Pu-19">
          <mxGeometry x="10" y="190" width="310" height="30" as="geometry" />
        </mxCell>
        <mxCell id="DR4r57PZJUJLHKagL7Pu-7" value="From (7)&lt;br&gt;E(X) = 24000 * 0.7 + 16000 * 0.2 + 10000 * 0.1 = 21000&lt;br&gt;Net gain = 21000 - 2000 = 19000" style="text;html=1;strokeColor=none;fillColor=none;align=center;verticalAlign=middle;whiteSpace=wrap;rounded=0;" vertex="1" parent="DR4r57PZJUJLHKagL7Pu-19">
          <mxGeometry x="10" y="270" width="310" height="30" as="geometry" />
        </mxCell>
        <mxCell id="DR4r57PZJUJLHKagL7Pu-8" value="From (7)&lt;br&gt;E(X) = 24000 * 0.6 + 16000 * 0.2 + 10000 * 0.2 = 19600&lt;br&gt;Net gain = E(X)" style="text;html=1;strokeColor=none;fillColor=none;align=center;verticalAlign=middle;whiteSpace=wrap;rounded=0;" vertex="1" parent="DR4r57PZJUJLHKagL7Pu-19">
          <mxGeometry x="10" y="350" width="310" height="30" as="geometry" />
        </mxCell>
        <mxCell id="DR4r57PZJUJLHKagL7Pu-9" value="From (3)&lt;br&gt;E(X) = 24000 * 0.5 + 16000 * 0.3 + 10000 * 0.2 = 18800&lt;br&gt;Net gain = E(X)" style="text;html=1;strokeColor=none;fillColor=none;align=center;verticalAlign=middle;whiteSpace=wrap;rounded=0;" vertex="1" parent="DR4r57PZJUJLHKagL7Pu-19">
          <mxGeometry x="10" y="430" width="310" height="30" as="geometry" />
        </mxCell>
        <mxCell id="DR4r57PZJUJLHKagL7Pu-11" value="Ergo if we get to 7 we should choose to avoid the additional sponsorship to maximize net gain" style="text;html=1;strokeColor=none;fillColor=none;align=center;verticalAlign=middle;whiteSpace=wrap;rounded=0;" vertex="1" parent="DR4r57PZJUJLHKagL7Pu-19">
          <mxGeometry x="340" y="310" width="160" height="30" as="geometry" />
        </mxCell>
        <mxCell id="DR4r57PZJUJLHKagL7Pu-13" value="From (1)&lt;br&gt;E(X) = NG(7) * 0.6 + NG(3) * 0.4 = 19600 * 0.6 + 18800 * 0.4 =&amp;nbsp;19280&lt;br&gt;Net gain = 19280 - 2000 = 17280" style="text;html=1;strokeColor=none;fillColor=none;align=center;verticalAlign=middle;whiteSpace=wrap;rounded=0;" vertex="1" parent="DR4r57PZJUJLHKagL7Pu-19">
          <mxGeometry x="550" y="310" width="380" height="30" as="geometry" />
        </mxCell>
        <mxCell id="DR4r57PZJUJLHKagL7Pu-14" value="" style="endArrow=classic;html=1;rounded=0;" edge="1" parent="DR4r57PZJUJLHKagL7Pu-19">
          <mxGeometry width="50" height="50" relative="1" as="geometry">
            <mxPoint x="90" y="540" as="sourcePoint" />
            <mxPoint x="550" y="540" as="targetPoint" />
          </mxGeometry>
        </mxCell>
        <mxCell id="DR4r57PZJUJLHKagL7Pu-15" value="" style="endArrow=classic;html=1;rounded=0;" edge="1" parent="DR4r57PZJUJLHKagL7Pu-19">
          <mxGeometry width="50" height="50" relative="1" as="geometry">
            <mxPoint x="90" y="630" as="sourcePoint" />
            <mxPoint x="550" y="630" as="targetPoint" />
          </mxGeometry>
        </mxCell>
        <mxCell id="DR4r57PZJUJLHKagL7Pu-16" value="From (1)&lt;br&gt;E(X) = 22000 * 0.4 + 18000 * 0.4 + 14000 * 0.2 = 18800&lt;br&gt;Net gain =&amp;nbsp;13800" style="text;html=1;strokeColor=none;fillColor=none;align=center;verticalAlign=middle;whiteSpace=wrap;rounded=0;" vertex="1" parent="DR4r57PZJUJLHKagL7Pu-19">
          <mxGeometry x="575" y="520" width="330" height="30" as="geometry" />
        </mxCell>
        <mxCell id="DR4r57PZJUJLHKagL7Pu-17" value="From (1)&lt;br&gt;E(X) = 20000 * 0.4 + 16000 * 0.4 + 14000 * 0.2 =&amp;nbsp;17200&lt;br&gt;Net gain = 17200 - 13200" style="text;html=1;strokeColor=none;fillColor=none;align=center;verticalAlign=middle;whiteSpace=wrap;rounded=0;" vertex="1" parent="DR4r57PZJUJLHKagL7Pu-19">
          <mxGeometry x="570" y="610" width="340" height="30" as="geometry" />
        </mxCell>
        <mxCell id="DR4r57PZJUJLHKagL7Pu-18" value="From a purely financial perspective, the business should sponsor a team and then avoid an additional sponsorship if there is media interest" style="text;html=1;strokeColor=none;fillColor=none;align=center;verticalAlign=middle;whiteSpace=wrap;rounded=0;" vertex="1" parent="DR4r57PZJUJLHKagL7Pu-19">
          <mxGeometry x="1000" y="270" width="260" height="30" as="geometry" />
        </mxCell>
      </root>
    </mxGraphModel>
  </diagram>
</mxfile>
